<svg width="20" height="20" viewBox="0 0 20 20" fill="none" xmlns="http://www.w3.org/2000/svg">
<path d="M8.33335 13.333H4.16669V17.4997" stroke="white" stroke-linecap="round" stroke-linejoin="round"/>
<path d="M16.1813 12.4971C15.7141 13.6535 14.9318 14.6557 13.9234 15.3897C12.915 16.1237 11.7208 16.5601 10.4768 16.6493C9.23268 16.7385 7.98853 16.4769 6.88572 15.8942C5.78292 15.3115 4.86569 14.4311 4.23828 13.3532" stroke="white" stroke-linecap="round" stroke-linejoin="round"/>
<path d="M11.6667 6.66667H15.8334V2.5" stroke="white" stroke-linecap="round" stroke-linejoin="round"/>
<path d="M3.81879 7.5023C4.28602 6.34585 5.06831 5.34366 6.07674 4.60965C7.08517 3.87564 8.27928 3.43925 9.52336 3.35007C10.7674 3.2609 12.0116 3.52251 13.1144 4.10519C14.2172 4.68786 15.1344 5.56822 15.7618 6.64621" stroke="white" stroke-linecap="round" stroke-linejoin="round"/>
</svg>
