<svg width="45" height="21" viewBox="0 0 45 21" fill="none" xmlns="http://www.w3.org/2000/svg">
<path d="M12.536 0.871999V4.136H4.112V8.888H11.552V12.176H4.112V16.952H12.8V20.264H0.248V0.871999H12.536ZM17.5421 0.871999L24.4781 13.208V0.871999H28.2221V20.264H24.6941L17.8061 7.952V20.264H13.9421V0.871999H17.5421ZM44.1382 13.064C44.1382 15.496 43.4582 17.304 42.0982 18.488C40.7382 19.672 38.8502 20.264 36.4342 20.264H30.0502V0.871999H36.4342C38.8822 0.871999 40.7782 1.512 42.1222 2.792C43.4662 4.072 44.1382 5.952 44.1382 8.432V13.064ZM33.9142 16.952H36.1702C36.9222 16.952 37.5542 16.872 38.0662 16.712C38.5942 16.552 39.0182 16.296 39.3382 15.944C39.6582 15.576 39.8902 15.112 40.0342 14.552C40.1782 13.992 40.2502 13.312 40.2502 12.512V9.128C40.2502 7.528 39.9462 6.296 39.3382 5.432C38.7302 4.568 37.6742 4.136 36.1702 4.136H33.9142V16.952Z" fill="#CCCCCC"/>
</svg>
