<svg width="17" height="16" viewBox="0 0 17 16" fill="none" xmlns="http://www.w3.org/2000/svg">
<path d="M7.75163 1.03842C7.93503 0.666776 8.46497 0.666778 8.64837 1.03842L10.3628 4.51243C10.5812 4.95506 11.0034 5.2619 11.4919 5.33298L15.3227 5.89046C15.7328 5.95015 15.8964 6.4542 15.5996 6.7434L12.8279 9.44351C12.4741 9.78821 12.3126 10.285 12.3963 10.7719L13.0518 14.5879C13.1219 14.9964 12.6933 15.3079 12.3265 15.1152L8.89754 13.3141C8.4608 13.0847 7.93919 13.0847 7.50246 13.3141L4.07355 15.1152C3.70669 15.3079 3.2781 14.9964 3.34825 14.5879L4.0038 10.7714C4.08736 10.285 3.92623 9.78849 3.5729 9.4438L0.800166 6.73888C0.503467 6.44943 0.667554 5.94541 1.07779 5.88612L4.90696 5.33264C5.39599 5.26195 5.81884 4.95497 6.0375 4.51187L7.75163 1.03842Z" fill="#26DFA6" stroke="#333333"/>
</svg>
