<svg width="40" height="40" viewBox="0 0 40 40" fill="none" xmlns="http://www.w3.org/2000/svg">
<path d="M22.5492 13.9194C21.5952 14.5996 20.4277 14.9997 19.1667 14.9997C15.945 14.9997 13.3334 12.388 13.3334 9.16634C13.3334 5.94468 15.945 3.33301 19.1667 3.33301C21.255 3.33301 23.087 4.43037 24.1176 6.07991M10 33.4783H14.3505C14.9178 33.4783 15.4815 33.5458 16.0314 33.6808L20.6282 34.7978C21.6256 35.0408 22.6647 35.0644 23.6725 34.8687L28.755 33.8799C30.0976 33.6183 31.3327 32.9754 32.3006 32.0338L35.8965 28.5359C36.9234 27.5386 36.9234 25.9204 35.8965 24.9215C34.972 24.0221 33.5079 23.9208 32.4619 24.6835L28.271 27.7411C27.6709 28.1798 26.9406 28.4161 26.1895 28.4161H22.1425L24.7185 28.4159C26.1704 28.4159 27.3465 27.2719 27.3465 25.8595V25.3483C27.3465 24.1755 26.526 23.1529 25.3568 22.8695L21.381 21.9026C20.734 21.7456 20.0714 21.6663 19.4053 21.6663C17.7973 21.6663 14.8865 22.9977 14.8865 22.9977L10 25.0411M33.3334 10.833C33.3334 14.0547 30.7217 16.6663 27.5 16.6663C24.2784 16.6663 21.6667 14.0547 21.6667 10.833C21.6667 7.61135 24.2784 4.99967 27.5 4.99967C30.7217 4.99967 33.3334 7.61135 33.3334 10.833ZM3.33337 24.333L3.33337 33.9997C3.33337 34.9331 3.33337 35.3998 3.51503 35.7563C3.67482 36.0699 3.92979 36.3249 4.24339 36.4847C4.59991 36.6663 5.06662 36.6663 6.00004 36.6663H7.33337C8.26679 36.6663 8.7335 36.6663 9.09002 36.4847C9.40363 36.3249 9.6586 36.0699 9.81839 35.7563C10 35.3998 10 34.9331 10 33.9997V24.333C10 23.3996 10 22.9329 9.81839 22.5764C9.6586 22.2628 9.40363 22.0078 9.09003 21.848C8.73351 21.6663 8.2668 21.6663 7.33338 21.6663L6.00004 21.6663C5.06662 21.6663 4.59991 21.6663 4.24339 21.848C3.92979 22.0078 3.67482 22.2628 3.51503 22.5764C3.33337 22.9329 3.33337 23.3996 3.33337 24.333Z" stroke="#26DFB3" stroke-width="2" stroke-linecap="round" stroke-linejoin="round"/>
</svg>
