<svg width="24" height="24" viewBox="0 0 24 24" fill="none" xmlns="http://www.w3.org/2000/svg">
<path fill-rule="evenodd" clip-rule="evenodd" d="M12 22.6667C17.891 22.6667 22.6667 17.891 22.6667 12C22.6667 6.10896 17.891 1.33333 12 1.33333C6.10896 1.33333 1.33333 6.10896 1.33333 12C1.33333 17.891 6.10896 22.6667 12 22.6667ZM12 24C18.6274 24 24 18.6274 24 12C24 5.37258 18.6274 0 12 0C5.37258 0 0 5.37258 0 12C0 18.6274 5.37258 24 12 24Z" fill="#333333"/>
<path d="M9.33333 7.99967C10.0697 7.99967 10.6667 7.40272 10.6667 6.66634C10.6667 5.92996 10.0697 5.33301 9.33333 5.33301C8.59695 5.33301 8 5.92996 8 6.66634C8 7.40272 8.59695 7.99967 9.33333 7.99967Z" fill="#333333"/>
<path d="M14.6667 7.99967C15.403 7.99967 16 7.40272 16 6.66634C16 5.92996 15.403 5.33301 14.6667 5.33301C13.9303 5.33301 13.3333 5.92996 13.3333 6.66634C13.3333 7.40272 13.9303 7.99967 14.6667 7.99967Z" fill="#333333"/>
<path d="M12 15.3337C14.3477 15.3337 16.2958 13.5908 16.6195 11.3317C16.6717 10.9672 16.3682 10.667 16 10.667C15.6318 10.667 15.3403 10.9685 15.2672 11.3294C14.9592 12.8512 13.6113 14.0003 12 14.0003C10.3887 14.0003 9.04079 12.8512 8.73276 11.3294C8.65971 10.9685 8.36818 10.667 7.99999 10.667C7.63181 10.667 7.32832 10.9672 7.38053 11.3317C7.70415 13.5908 9.65232 15.3337 12 15.3337Z" fill="#333333"/>
<path fill-rule="evenodd" clip-rule="evenodd" d="M10.7534 5.33301H13.2466H16H16.4444C16.8586 5.33301 17.2066 5.61629 17.3053 5.99967H20.8667L21.6 7.33301H17.3333V8.44412C17.3333 8.93504 16.9354 9.33301 16.4444 9.33301H13.6019C13.1853 9.33301 12.8246 9.04365 12.7342 8.63695L12.2963 6.66634H11.7037L11.2658 8.63695C11.1754 9.04365 10.8147 9.33301 10.3981 9.33301H7.55555C7.06463 9.33301 6.66666 8.93504 6.66666 8.44412V7.33301H2.39999L3.13333 5.99967H6.69466C6.79334 5.61629 7.14136 5.33301 7.55555 5.33301H8H10.7534Z" fill="#26DFB3"/>
</svg>
