<svg width="20" height="20" viewBox="0 0 20 20" fill="none" xmlns="http://www.w3.org/2000/svg">
<path fill-rule="evenodd" clip-rule="evenodd" d="M1.25 17.4998C1.25 17.1546 1.52982 16.8748 1.875 16.8748H18.125C18.4702 16.8748 18.75 17.1546 18.75 17.4998C18.75 17.845 18.4702 18.1248 18.125 18.1248H1.875C1.52982 18.1248 1.25 17.845 1.25 17.4998ZM15.8813 5.62481C16.116 5.39035 16.2479 5.0722 16.2479 4.74044C16.2479 4.40867 16.116 4.09052 15.8813 3.85606L13.6438 1.61856C13.4093 1.38384 13.0911 1.25195 12.7594 1.25195C12.4276 1.25195 12.1095 1.38384 11.875 1.61856L2.79289 10.7007C2.60536 10.8882 2.5 11.1426 2.5 11.4078V13.9998C2.5 14.5521 2.94772 14.9998 3.5 14.9998H6.09204C6.35725 14.9998 6.61161 14.8945 6.79914 14.7069L15.8813 5.62481ZM12.7563 2.49981L15 4.74356L13.125 6.61856L10.8813 4.37481L12.7563 2.49981ZM3.75 13.7498V11.5061L10 5.25606L12.2437 7.49981L5.99375 13.7498H3.75Z" fill="#333333"/>
</svg>
