<svg width="36" height="36" viewBox="0 0 36 36" fill="none" xmlns="http://www.w3.org/2000/svg">
<path fill-rule="evenodd" clip-rule="evenodd" d="M18 34C26.8366 34 34 26.8366 34 18C34 9.16344 26.8366 2 18 2C9.16344 2 2 9.16344 2 18C2 26.8366 9.16344 34 18 34ZM18 36C27.9411 36 36 27.9411 36 18C36 8.05887 27.9411 0 18 0C8.05887 0 0 8.05887 0 18C0 27.9411 8.05887 36 18 36Z" fill="#333333"/>
<path d="M22 12C23.1046 12 24 11.1046 24 10C24 8.89543 23.1046 8 22 8C20.8954 8 20 8.89543 20 10C20 11.1046 20.8954 12 22 12Z" fill="#333333"/>
<path d="M18 23C21.86 23 25 19.859 25 16H23C23 18.757 20.757 21 18 21C15.243 21 13 18.757 13 16H11C11 19.859 14.14 23 18 23Z" fill="#333333"/>
<path d="M12 10.5C12.1667 10 12.8 9 14 9C15.2 9 15.8333 10 16 10.5" stroke="#333333" stroke-width="2" stroke-linecap="round" stroke-linejoin="round"/>
</svg>
