<svg width="18" height="16" viewBox="0 0 18 16" fill="none" xmlns="http://www.w3.org/2000/svg">
<path d="M8.55161 1.28842C8.73502 0.916776 9.26496 0.916778 9.44836 1.28842L11.1628 4.76243C11.3812 5.20506 11.8034 5.5119 12.2919 5.58298L16.1227 6.14046C16.5328 6.20015 16.6964 6.7042 16.3996 6.9934L13.6279 9.69351C13.2741 10.0382 13.1126 10.535 13.1963 11.0219L13.8517 14.8379C13.9219 15.2464 13.4933 15.5579 13.1264 15.3652L9.69753 13.5641C9.26079 13.3347 8.73918 13.3347 8.30245 13.5641L4.87353 15.3652C4.50667 15.5579 4.07809 15.2464 4.14824 14.8379L4.80379 11.0214C4.88735 10.535 4.72622 10.0385 4.37289 9.6938L1.60015 6.98888C1.30345 6.69943 1.46754 6.19541 1.87778 6.13612L5.70695 5.58264C6.19598 5.51195 6.61883 5.20497 6.83749 4.76187L8.55161 1.28842Z" stroke="#333333"/>
</svg>
