<svg width="40" height="40" viewBox="0 0 40 40" fill="none" xmlns="http://www.w3.org/2000/svg">
<path d="M8.95081 16.6959C9.25198 16.8465 9.60872 16.8354 9.89995 16.6664C10.1912 16.4974 10.3778 16.1931 10.3965 15.8569L10.5151 13.7227C10.7947 8.68866 14.9583 4.75 20 4.75C25.0418 4.75 29.2053 8.68866 29.485 13.7227L29.6036 15.8569C29.6223 16.1931 29.8089 16.4973 30.1001 16.6663C30.3913 16.8354 30.7481 16.8464 31.0493 16.6959L32.2177 16.1116C33.6109 15.4151 35.25 16.4281 35.25 17.9857C35.25 18.5414 35.0293 19.0743 34.6363 19.4672L35.2963 20.1272L34.6363 19.4672L30.6159 23.4877C30.3778 23.7257 30.2755 24.0676 30.3437 24.3973C30.9688 27.4196 32.1705 30.3051 33.8948 32.8914C34.4558 33.733 33.6345 34.8084 32.6749 34.4885L32.348 34.3795C31.6353 34.142 30.8647 34.142 30.152 34.3795L29.1602 34.7101C28.0826 35.0693 26.9175 35.0693 25.8398 34.7101L25.2521 34.5142C24.2771 34.1892 23.2229 34.1892 22.2479 34.5142L21.6602 34.7101C20.5825 35.0693 19.4175 35.0693 18.3398 34.7101L18.0236 35.6588L18.3398 34.7101L17.7521 34.5142C16.7771 34.1892 15.7229 34.1892 14.7479 34.5142L14.1602 34.7101L14.4764 35.6588L14.1602 34.7101C13.0825 35.0693 11.9175 35.0693 10.8398 34.7101L9.848 34.3795C9.13528 34.1419 8.36472 34.1419 7.652 34.3795L7.32513 34.4885L7.64135 35.4372L7.32512 34.4885C6.36553 34.8083 5.5442 33.733 6.10528 32.8914C7.8295 30.3051 9.03122 27.4196 9.65632 24.3974C9.72451 24.0677 9.62222 23.7258 9.38415 23.4877L5.36368 19.4672L4.65658 20.1743L5.36368 19.4672C4.97075 19.0743 4.75 18.5414 4.75 17.9857C4.75 16.4281 6.38914 15.4151 7.78227 16.1116L8.95081 16.6959Z" stroke="#333333" stroke-width="2" stroke-linejoin="round"/>
<path d="M18.4375 16.5C17.9197 16.5 17.5 16.9197 17.5 17.4375V17.75C17.5 19.1307 18.6193 20.25 20 20.25C21.3807 20.25 22.5 19.1307 22.5 17.75V17.4375C22.5 16.9197 22.0803 16.5 21.5625 16.5H18.4375Z" fill="#333333"/>
<path d="M17 15C18.1046 15 19 14.1046 19 13C19 11.8954 18.1046 11 17 11C15.8954 11 15 11.8954 15 13C15 14.1046 15.8954 15 17 15Z" fill="#333333"/>
<path d="M23 15C24.1046 15 25 14.1046 25 13C25 11.8954 24.1046 11 23 11C21.8954 11 21 11.8954 21 13C21 14.1046 21.8954 15 23 15Z" fill="#333333"/>
</svg>
