<svg width="20" height="20" viewBox="0 0 20 20" fill="none" xmlns="http://www.w3.org/2000/svg">
<path d="M11.6666 8.33301L11.6666 14.1663" stroke="white" stroke-linecap="round" stroke-linejoin="round"/>
<path d="M8.33337 8.33301L8.33337 14.1663" stroke="white" stroke-linecap="round" stroke-linejoin="round"/>
<path d="M5 5V4.5C4.72386 4.5 4.5 4.72386 4.5 5H5ZM15 5H15.5C15.5 4.72386 15.2761 4.5 15 4.5V5ZM5 5.5H15V4.5H5V5.5ZM14.5 5V16.6667H15.5V5H14.5ZM14.1667 17H5.83333V18H14.1667V17ZM5.5 16.6667V5H4.5V16.6667H5.5ZM5.83333 17C5.64924 17 5.5 16.8508 5.5 16.6667H4.5C4.5 17.403 5.09695 18 5.83333 18V17ZM14.5 16.6667C14.5 16.8508 14.3508 17 14.1667 17V18C14.903 18 15.5 17.403 15.5 16.6667H14.5Z" fill="white"/>
<path d="M3.33337 5H16.6667" stroke="white" stroke-linecap="round" stroke-linejoin="round"/>
<path d="M13.3333 5V5.5C13.6094 5.5 13.8333 5.27614 13.8333 5H13.3333ZM6.66663 5H6.16663C6.16663 5.27614 6.39048 5.5 6.66663 5.5V5ZM7.49996 3H12.5V2H7.49996V3ZM12.8333 3.33333V5H13.8333V3.33333H12.8333ZM13.3333 4.5H6.66663V5.5H13.3333V4.5ZM7.16663 5V3.33333H6.16663V5H7.16663ZM12.5 3C12.6841 3 12.8333 3.14924 12.8333 3.33333H13.8333C13.8333 2.59695 13.2363 2 12.5 2V3ZM7.49996 2C6.76358 2 6.16663 2.59695 6.16663 3.33333H7.16663C7.16663 3.14924 7.31586 3 7.49996 3V2Z" fill="white"/>
</svg>
