<svg width="20" height="20" viewBox="0 0 20 20" fill="none" xmlns="http://www.w3.org/2000/svg">
<path fill-rule="evenodd" clip-rule="evenodd" d="M1.25 17.5001C1.25 17.1549 1.52982 16.8751 1.875 16.8751H18.125C18.4702 16.8751 18.75 17.1549 18.75 17.5001C18.75 17.8452 18.4702 18.1251 18.125 18.1251H1.875C1.52982 18.1251 1.25 17.8452 1.25 17.5001ZM15.8813 5.62506C16.116 5.3906 16.2479 5.07244 16.2479 4.74068C16.2479 4.40892 16.116 4.09077 15.8813 3.85631L13.6438 1.61881C13.4093 1.38408 13.0911 1.2522 12.7594 1.2522C12.4276 1.2522 12.1095 1.38408 11.875 1.61881L2.79289 10.7009C2.60536 10.8884 2.5 11.1428 2.5 11.408V14.0001C2.5 14.5523 2.94772 15.0001 3.5 15.0001H6.09204C6.35725 15.0001 6.61161 14.8947 6.79914 14.7072L15.8813 5.62506ZM12.7563 2.50006L15 4.74381L13.125 6.61881L10.8813 4.37506L12.7563 2.50006ZM3.75 13.7501V11.5063L10 5.25631L12.2437 7.50006L5.99375 13.7501H3.75Z" fill="white"/>
</svg>
