<svg width="28" height="26" viewBox="0 0 28 26" fill="none" xmlns="http://www.w3.org/2000/svg">
<path d="M11.3333 7.99967C12.0697 7.99967 12.6667 7.40272 12.6667 6.66634C12.6667 5.92996 12.0697 5.33301 11.3333 5.33301C10.597 5.33301 10 5.92996 10 6.66634C10 7.40272 10.597 7.99967 11.3333 7.99967Z" fill="#333333"/>
<path d="M16.6667 7.99967C17.403 7.99967 18 7.40272 18 6.66634C18 5.92996 17.403 5.33301 16.6667 5.33301C15.9303 5.33301 15.3333 5.92996 15.3333 6.66634C15.3333 7.40272 15.9303 7.99967 16.6667 7.99967Z" fill="#333333"/>
<path d="M14 15.3337C16.3477 15.3337 18.2958 13.5908 18.6195 11.3317C18.6717 10.9672 18.3682 10.667 18 10.667C17.6318 10.667 17.3403 10.9685 17.2672 11.3294C16.9592 12.8512 15.6113 14.0003 14 14.0003C12.3887 14.0003 11.0408 12.8512 10.7328 11.3294C10.6597 10.9685 10.3682 10.667 10 10.667C9.63181 10.667 9.32833 10.9672 9.38053 11.3317C9.70415 13.5908 11.6523 15.3337 14 15.3337Z" fill="#333333"/>
<path d="M25.9 8.43243C25.7236 8.43243 25.5549 8.46124 25.3911 8.5027C23.9148 3.58941 19.369 0 14 0C13.9902 0 13.9804 0.0014053 13.9706 0.0014053C13.9615 0.0014053 13.9517 0 13.9419 0C8.5785 0 4.0369 3.58168 2.555 8.48584C2.408 8.45281 2.2568 8.43243 2.1 8.43243C0.945 8.43243 0 9.38108 0 10.5405V13.3514C0 14.5108 0.945 15.4595 2.1 15.4595C2.2568 15.4595 2.408 15.4391 2.555 15.4061C2.7895 15.3534 3.0072 15.2592 3.2053 15.1341C3.4328 14.9908 3.6302 14.8059 3.7891 14.5888C3.6589 14.0864 3.5546 13.5748 3.4993 13.0464C3.4622 12.6852 3.4419 12.3177 3.4419 11.9459C3.4419 11.5742 3.4622 11.2067 3.5 10.8448C3.5546 10.3171 3.6596 9.80481 3.7898 9.30238C4.9623 4.76784 9.0629 1.40541 13.9419 1.40541C13.9517 1.40541 13.9615 1.40681 13.9713 1.40681C18.8818 1.42016 22.9992 4.83811 24.1262 9.42676C24.325 10.2356 24.4419 11.076 24.4419 11.9459C24.4419 12.8159 24.325 13.6563 24.1262 14.4651C23.205 18.2162 20.2846 21.1752 16.5634 22.1401C15.7241 22.3586 14.8484 22.4865 13.9419 22.4865C13.0634 22.4865 12.215 22.3656 11.3995 22.1611C11.1762 22.3164 10.9851 22.5139 10.836 22.7416C10.7072 22.9383 10.6141 23.1583 10.5567 23.3923C10.5175 23.5532 10.4902 23.719 10.4902 23.8919C10.4902 25.0514 11.4352 26 12.5902 26H15.4C16.555 26 17.5 25.0514 17.5 23.8919C17.5 23.7148 17.4713 23.5455 17.43 23.381C21.2373 22.2279 24.2424 19.2112 25.3911 15.3892C25.5549 15.4306 25.7236 15.4595 25.9 15.4595C27.055 15.4595 28 14.5108 28 13.3514V10.5405C28 9.38108 27.055 8.43243 25.9 8.43243Z" fill="#26DFB3"/>
</svg>
