<svg width="24" height="24" viewBox="0 0 24 24" fill="none" xmlns="http://www.w3.org/2000/svg">
<path fill-rule="evenodd" clip-rule="evenodd" d="M12 1.33333C6.10896 1.33333 1.33333 6.10896 1.33333 12C1.33333 17.891 6.10896 22.6667 12 22.6667C17.891 22.6667 22.6667 17.891 22.6667 12C22.6667 10.7521 22.4527 9.55563 22.0599 8.44439L23.317 8.00006C23.7595 9.25203 24 10.5986 24 12C24 18.6274 18.6274 24 12 24C5.37258 24 0 18.6274 0 12C0 5.37258 5.37258 0 12 0C13.1555 0 14.274 0.163519 15.333 0.4691L14.9633 1.75016C14.0233 1.47891 13.0292 1.33333 12 1.33333Z" fill="#333333"/>
<path d="M9.33333 7.99967C10.0697 7.99967 10.6667 7.40272 10.6667 6.66634C10.6667 5.92996 10.0697 5.33301 9.33333 5.33301C8.59695 5.33301 8 5.92996 8 6.66634C8 7.40272 8.59695 7.99967 9.33333 7.99967Z" fill="#333333"/>
<path d="M14.6667 7.99967C15.403 7.99967 16 7.40272 16 6.66634C16 5.92996 15.403 5.33301 14.6667 5.33301C13.9303 5.33301 13.3333 5.92996 13.3333 6.66634C13.3333 7.40272 13.9303 7.99967 14.6667 7.99967Z" fill="#333333"/>
<path d="M12 15.3337C14.3477 15.3337 16.2958 13.5908 16.6195 11.3317C16.6717 10.9672 16.3682 10.667 16 10.667C15.6318 10.667 15.3403 10.9685 15.2672 11.3294C14.9592 12.8512 13.6113 14.0003 12 14.0003C10.3887 14.0003 9.04079 12.8512 8.73276 11.3294C8.65972 10.9685 8.36819 10.667 8 10.667C7.63181 10.667 7.32833 10.9672 7.38053 11.3317C7.70415 13.5908 9.65232 15.3337 12 15.3337Z" fill="#333333"/>
<rect x="20" width="1.33333" height="6.66667" rx="0.666667" fill="#26DFB3"/>
<rect x="17.3333" y="4" width="1.33333" height="6.66667" rx="0.666667" transform="rotate(-90 17.3333 4)" fill="#26DFB3"/>
</svg>
