<svg width="140" height="140" viewBox="0 0 140 140" fill="none" xmlns="http://www.w3.org/2000/svg">
<path d="M99.1667 52.4997C99.1666 49.514 98.0276 46.5284 95.7496 44.2504C93.4715 41.9724 90.4858 40.8333 87.5 40.8333M87.5 87.5C106.83 87.5 122.5 71.83 122.5 52.5C122.5 33.17 106.83 17.5 87.5 17.5C68.17 17.5 52.5 33.17 52.5 52.5C52.5 54.0965 52.6069 55.668 52.8139 57.2077C53.1544 59.7402 53.3246 61.0065 53.21 61.8076C53.0906 62.6422 52.9387 63.0919 52.5273 63.8277C52.1325 64.5342 51.4366 65.23 50.0449 66.6217L20.2337 96.433C19.2248 97.4419 18.7203 97.9463 18.3596 98.535C18.0398 99.0569 17.8041 99.6259 17.6612 100.221C17.5 100.892 17.5 101.606 17.5 103.033V113.167C17.5 116.434 17.5 118.067 18.1358 119.315C18.6951 120.413 19.5874 121.305 20.6851 121.864C21.9329 122.5 23.5664 122.5 26.8333 122.5H40.8333V110.833H52.5V99.1667H64.1667L73.3783 89.9551C74.77 88.5634 75.4658 87.8675 76.1723 87.4726C76.9081 87.0613 77.3579 86.9094 78.1924 86.79C78.9935 86.6754 80.2598 86.8456 82.7923 87.1861C84.332 87.3931 85.9035 87.5 87.5 87.5Z" stroke="#26DFA6" stroke-width="8" stroke-linecap="round" stroke-linejoin="round"/>
</svg>
