<svg width="990vw" height="720" viewBox="0 0 360 520" fill="none" xmlns="http://www.w3.org/2000/svg">
<g filter="url(#filter0_d_2_2)">
<path fill-rule="evenodd" clip-rule="evenodd" d="M335 6H10V605.92V606H10.0797L10 605.92L24.7289 591.191L39.4578 605.92L39.3781 606H39.6981L39.6184 605.92L54.3473 591.191L69.0762 605.92L68.9965 606H69.2631L69.1833 605.92L83.9123 591.191L98.6412 605.92L98.5614 606H98.8278L98.748 605.92L113.477 591.191L128.206 605.92L128.126 606H128.393L128.313 605.92L143.042 591.191L157.771 605.92L157.691 606H157.958L157.878 605.92L172.607 591.191L187.336 605.92L187.256 606H187.523L187.443 605.92L202.172 591.191L216.901 605.92L216.821 606H217.088L217.008 605.92L231.737 591.191L246.466 605.92L246.386 606H246.599L246.519 605.92L261.248 591.191L275.977 605.92L275.897 606H276.11L276.031 605.92L290.759 591.191L305.488 605.92L305.409 606H305.622L305.542 605.92L320.271 591.191L335 605.92L334.92 606H335V6Z" fill="white"/>
<g style="mix-blend-mode:darken" opacity="0.25">
<rect x="325" y="547" width="13" height="305" transform="rotate(90 325 547)" fill="url(#paint0_linear_2_2)"/>
<rect x="325" y="547" width="13" height="305" transform="rotate(90 325 547)" fill="url(#paint1_linear_2_2)"/>
</g>
<rect x="17" y="560" width="311" height="20" fill="white"/>
</g>
<defs>
<filter id="filter0_d_2_2" x="0" y="0" width="345" height="620" filterUnits="userSpaceOnUse" color-interpolation-filters="sRGB">
<feFlood flood-opacity="0" result="BackgroundImageFix"/>
<feColorMatrix in="SourceAlpha" type="matrix" values="0 0 0 0 0 0 0 0 0 0 0 0 0 0 0 0 0 0 127 0" result="hardAlpha"/>
<feOffset dy="4"/>
<feGaussianBlur stdDeviation="5"/>
<feComposite in2="hardAlpha" operator="out"/>
<feColorMatrix type="matrix" values="0 0 0 0 0 0 0 0 0 0 0 0 0 0 0 0 0 0 0.3 0"/>
<feBlend mode="normal" in2="BackgroundImageFix" result="effect1_dropShadow_2_2"/>
<feBlend mode="normal" in="SourceGraphic" in2="effect1_dropShadow_2_2" result="shape"/>
</filter>
<linearGradient id="paint0_linear_2_2" x1="338" y1="688.204" x2="325" y2="688.204" gradientUnits="userSpaceOnUse">
<stop/>
<stop offset="1" stop-color="white" stop-opacity="0"/>
</linearGradient>
<linearGradient id="paint1_linear_2_2" x1="331.5" y1="547" x2="331.5" y2="852" gradientUnits="userSpaceOnUse">
<stop stop-color="white"/>
<stop offset="0.213542" stop-color="white" stop-opacity="0.484375"/>
<stop offset="0.807292" stop-color="white" stop-opacity="0.484375"/>
<stop offset="1" stop-color="white"/>
</linearGradient>
</defs>
</svg>
