<svg width="40" height="40" viewBox="0 0 40 40" fill="none" xmlns="http://www.w3.org/2000/svg">
<path d="M8.33326 21.6667C8.33326 16.1438 12.8104 11.6667 18.3333 11.6667M8.33326 21.6667C8.33326 24.414 9.44113 26.9025 11.2345 28.7099C11.4075 28.8842 11.4939 28.9714 11.545 29.0552C11.5937 29.1352 11.622 29.204 11.6438 29.2951C11.6666 29.3906 11.6666 29.4992 11.6666 29.7164V33.6667C11.6666 34.1334 11.6666 34.3667 11.7574 34.545C11.8373 34.7018 11.9648 34.8293 12.1216 34.9092C12.2999 35 12.5332 35 12.9999 35H16.1666C16.6333 35 16.8667 35 17.0449 34.9092C17.2017 34.8293 17.3292 34.7018 17.4091 34.545C17.4999 34.3667 17.4999 34.1334 17.4999 33.6667V33C17.4999 32.5333 17.4999 32.2999 17.5908 32.1217C17.6706 31.9649 17.7981 31.8374 17.9549 31.7575C18.1332 31.6667 18.3665 31.6667 18.8333 31.6667H21.1666C21.6333 31.6667 21.8667 31.6667 22.0449 31.7575C22.2017 31.8374 22.3292 31.9649 22.4091 32.1217C22.4999 32.2999 22.4999 32.5333 22.4999 33V33.6667C22.4999 34.1334 22.4999 34.3667 22.5908 34.545C22.6706 34.7018 22.7981 34.8293 22.9549 34.9092C23.1332 35 23.3665 35 23.8333 35H27C27.4668 35 27.7001 35 27.8784 34.9092C28.0352 34.8293 28.1627 34.7018 28.2425 34.545C28.3334 34.3667 28.3334 34.1334 28.3334 33.6667V32.0406C28.3334 31.7038 28.3334 31.5354 28.3813 31.4002C28.4273 31.2707 28.4851 31.18 28.5833 31.0837C28.6857 30.9833 28.8592 30.9028 29.2062 30.7417C30.8432 29.9817 32.2401 28.7918 33.2519 27.3169C33.4298 27.0576 33.5188 26.9279 33.6138 26.8513C33.7046 26.7781 33.7862 26.7351 33.8979 26.7017C34.0149 26.6667 34.1537 26.6667 34.4313 26.6667H35.3334C35.8001 26.6667 36.0334 26.6667 36.2117 26.5758C36.3685 26.4959 36.496 26.3685 36.5759 26.2117C36.6667 26.0334 36.6667 25.8 36.6667 25.3333V19.6429C36.6667 19.1986 36.6667 18.9764 36.5842 18.8051C36.5023 18.635 36.365 18.4978 36.195 18.4159C36.0236 18.3333 35.8014 18.3333 35.3571 18.3333C35.0355 18.3333 34.8747 18.3333 34.7452 18.2897C34.6055 18.2426 34.5076 18.18 34.4063 18.073C34.3123 17.9737 34.2356 17.8077 34.0822 17.4758C33.5897 16.4104 32.9153 15.4463 32.0988 14.6234C31.9258 14.4491 31.8394 14.3619 31.7883 14.2781C31.7396 14.1982 31.7113 14.1293 31.6895 14.0382C31.6667 13.9428 31.6667 13.8342 31.6667 13.617V11.7676C31.6667 11.1676 31.6667 10.8675 31.5417 10.6658C31.4323 10.4892 31.2607 10.3598 31.0608 10.3031C30.8326 10.2383 30.5441 10.3207 29.9671 10.4856L26.0128 11.6154C25.9456 11.6346 25.912 11.6442 25.8779 11.6509C25.8475 11.6569 25.8169 11.6612 25.786 11.6638C25.7514 11.6667 25.7161 11.6667 25.6457 11.6667H18.3333M8.33326 21.6667H6.66671C4.82576 21.6667 3.33337 20.1743 3.33337 18.3333C3.33337 17.0995 4.00371 16.0223 5.00004 15.4459M18.3333 11.6667H24.941C24.9799 11.3945 25 11.1163 25 10.8333C25 7.61167 22.3884 5 19.1667 5C15.945 5 13.3334 7.61167 13.3334 10.8333C13.3334 11.5287 13.455 12.1956 13.6782 12.814C15.0686 12.0813 16.6524 11.6667 18.3333 11.6667Z" stroke="white" stroke-width="2" stroke-linecap="round" stroke-linejoin="round"/>
</svg>
