<svg width="14" height="18" fill="none" xmlns="http://www.w3.org/2000/svg"><path fill-rule="evenodd" clip-rule="evenodd" d="M12.625.25H1.375C.685.25.125.81.125 1.5v15.625c0 .345.28.625.625.625h.625a.624.624 0 0 0 .5-.25l1.375-1.833L4.625 17.5a.647.647 0 0 0 1 0L7 15.667 8.375 17.5a.647.647 0 0 0 1 0l1.375-1.833 1.375 1.833c.118.157.303.25.5.25h.625c.345 0 .625-.28.625-.625V1.5c0-.69-.56-1.25-1.25-1.25Zm0 15.833L11.25 14.25a.647.647 0 0 0-1 0l-1.375 1.833L7.5 14.25a.647.647 0 0 0-1 0l-1.375 1.833L3.75 14.25a.647.647 0 0 0-1 0l-1.375 1.833V1.5h11.25v14.583ZM11.375 9h-1.25v1.25h1.25V9Zm-8.75 0h5v1.25h-5V9Zm8.75-2.5h-1.25v1.25h1.25V6.5Zm-8.75 0h5v1.25h-5V6.5Zm8.75-2.5h-8.75v1.25h8.75V4Z" fill="#26DFA6"/></svg>