<svg width="400" height="40" viewBox= "0 0 40 40" fill="none" xmlns="http://www.w3.org/2000/svg">
<path fill-rule="evenodd" clip-rule="evenodd" d="M31.25 2.5H8.75C7.36986 2.50138 6.25138 3.61986 6.25 5V36.25C6.25 36.9404 6.80964 37.5 7.5 37.5H8.75C9.14349 37.5002 9.51406 37.3149 9.75 37L12.5 33.3337L15.25 37C15.4957 37.2994 15.8627 37.4729 16.25 37.4729C16.6373 37.4729 17.0043 37.2994 17.25 37L20 33.3337L22.75 37C22.9957 37.2994 23.3627 37.4729 23.75 37.4729C24.1373 37.4729 24.5043 37.2994 24.75 37L27.5 33.3337L30.25 37C30.4861 37.3148 30.8566 37.5 31.25 37.5H32.5C33.1904 37.5 33.75 36.9404 33.75 36.25V5C33.7486 3.61986 32.6301 2.50138 31.25 2.5ZM31.25 34.1663L28.5 30.5C28.2543 30.2006 27.8873 30.0271 27.5 30.0271C27.1127 30.0271 26.7457 30.2006 26.5 30.5L23.75 34.1663L21 30.5C20.7543 30.2006 20.3873 30.0271 20 30.0271C19.6127 30.0271 19.2457 30.2006 19 30.5L16.25 34.1663L13.5 30.5C13.2543 30.2006 12.8873 30.0271 12.5 30.0271C12.1127 30.0271 11.7457 30.2006 11.5 30.5L8.75 34.1663V5H31.25V34.1663ZM28.75 20H26.25V22.5H28.75V20ZM11.25 20H21.25V22.5H11.25V20ZM28.75 15H26.25V17.5H28.75V15ZM11.25 15H21.25V17.5H11.25V15ZM28.75 10H11.25V12.5H28.75V10Z" fill="#26DFA6"/>
</svg>
