<svg width="345" height="580" viewBox="0 0 345 620" fill="none" xmlns="http://www.w3.org/2000/svg">
<g filter="url(#filter0_d_2_12)">
<path fill-rule="evenodd" clip-rule="evenodd" d="M335 6H10V605.92V606H10.0797L10 605.92L24.7289 591.191L39.4578 605.92L39.3781 606H39.6981L39.6184 605.92L54.3473 591.191L69.0762 605.92L68.9965 606H69.2631L69.1833 605.92L83.9123 591.191L98.6412 605.92L98.5614 606H98.8278L98.748 605.92L113.477 591.191L128.206 605.92L128.126 606H128.393L128.313 605.92L143.042 591.191L157.771 605.92L157.691 606H157.958L157.878 605.92L172.607 591.191L187.336 605.92L187.256 606H187.523L187.443 605.92L202.172 591.191L216.901 605.92L216.821 606H217.088L217.008 605.92L231.737 591.191L246.466 605.92L246.386 606H246.599L246.519 605.92L261.248 591.191L275.977 605.92L275.897 606H276.11L276.031 605.92L290.759 591.191L305.488 605.92L305.409 606H305.622L305.542 605.92L320.271 591.191L335 605.92L334.92 606H335V6Z" fill="white"/>
<path fill-rule="evenodd" clip-rule="evenodd" d="M184.25 18.5H161.75C160.37 18.5014 159.251 19.6199 159.25 21V52.25C159.25 52.9404 159.81 53.5 160.5 53.5H161.75C162.143 53.5002 162.514 53.3149 162.75 53L165.5 49.3337L168.25 53C168.496 53.2994 168.863 53.4729 169.25 53.4729C169.637 53.4729 170.004 53.2994 170.25 53L173 49.3337L175.75 53C175.996 53.2994 176.363 53.4729 176.75 53.4729C177.137 53.4729 177.504 53.2994 177.75 53L180.5 49.3337L183.25 53C183.486 53.3148 183.857 53.5 184.25 53.5H185.5C186.19 53.5 186.75 52.9404 186.75 52.25V21C186.749 19.6199 185.63 18.5014 184.25 18.5ZM184.25 50.1663L181.5 46.5C181.254 46.2006 180.887 46.0271 180.5 46.0271C180.113 46.0271 179.746 46.2006 179.5 46.5L176.75 50.1663L174 46.5C173.754 46.2006 173.387 46.0271 173 46.0271C172.613 46.0271 172.246 46.2006 172 46.5L169.25 50.1663L166.5 46.5C166.254 46.2006 165.887 46.0271 165.5 46.0271C165.113 46.0271 164.746 46.2006 164.5 46.5L161.75 50.1663V21H184.25V50.1663ZM181.75 36H179.25V38.5H181.75V36ZM164.25 36H174.25V38.5H164.25V36ZM181.75 31H179.25V33.5H181.75V31ZM164.25 31H174.25V33.5H164.25V31ZM181.75 26H164.25V28.5H181.75V26Z" fill="#26DFA6"/>
<g style="mix-blend-mode:darken" opacity="0.25">
<rect x="325" y="547" width="13" height="305" transform="rotate(90 325 547)" fill="url(#paint0_linear_2_12)"/>
<rect x="325" y="547" width="13" height="305" transform="rotate(90 325 547)" fill="url(#paint1_linear_2_12)"/>
</g>
<rect x="17" y="560" width="311" height="20" fill="white"/>
</g>
<defs>
<filter id="filter0_d_2_12" x="0" y="0" width="345" height="620" filterUnits="userSpaceOnUse" color-interpolation-filters="sRGB">
<feFlood flood-opacity="0" result="BackgroundImageFix"/>
<feColorMatrix in="SourceAlpha" type="matrix" values="0 0 0 0 0 0 0 0 0 0 0 0 0 0 0 0 0 0 127 0" result="hardAlpha"/>
<feOffset dy="4"/>
<feGaussianBlur stdDeviation="5"/>
<feComposite in2="hardAlpha" operator="out"/>
<feColorMatrix type="matrix" values="0 0 0 0 0 0 0 0 0 0 0 0 0 0 0 0 0 0 0.3 0"/>
<feBlend mode="normal" in2="BackgroundImageFix" result="effect1_dropShadow_2_12"/>
<feBlend mode="normal" in="SourceGraphic" in2="effect1_dropShadow_2_12" result="shape"/>
</filter>
<linearGradient id="paint0_linear_2_12" x1="338" y1="688.204" x2="325" y2="688.204" gradientUnits="userSpaceOnUse">
<stop/>
<stop offset="1" stop-color="white" stop-opacity="0"/>
</linearGradient>
<linearGradient id="paint1_linear_2_12" x1="331.5" y1="547" x2="331.5" y2="852" gradientUnits="userSpaceOnUse">
<stop stop-color="white"/>
<stop offset="0.213542" stop-color="white" stop-opacity="0.484375"/>
<stop offset="0.807292" stop-color="white" stop-opacity="0.484375"/>
<stop offset="1" stop-color="white"/>
</linearGradient>
</defs>
</svg>
