<svg width="14" height="18" viewBox="0 0 14 18" fill="none" xmlns="http://www.w3.org/2000/svg">
<path fill-rule="evenodd" clip-rule="evenodd" d="M12.625 0.25H1.375C0.68493 0.250689 0.125689 0.80993 0.125 1.5V17.125C0.125 17.4702 0.404822 17.75 0.75 17.75H1.375C1.57175 17.7501 1.75703 17.6575 1.875 17.5L3.25 15.6669L4.625 17.5C4.74787 17.6497 4.93134 17.7365 5.125 17.7365C5.31866 17.7365 5.50213 17.6497 5.625 17.5L7 15.6669L8.375 17.5C8.49787 17.6497 8.68134 17.7365 8.875 17.7365C9.06866 17.7365 9.25213 17.6497 9.375 17.5L10.75 15.6669L12.125 17.5C12.243 17.6574 12.4283 17.75 12.625 17.75H13.25C13.5952 17.75 13.875 17.4702 13.875 17.125V1.5C13.8743 0.80993 13.3151 0.250689 12.625 0.25ZM12.625 16.0831L11.25 14.25C11.1271 14.1003 10.9437 14.0135 10.75 14.0135C10.5563 14.0135 10.3729 14.1003 10.25 14.25L8.875 16.0831L7.5 14.25C7.37713 14.1003 7.19366 14.0135 7 14.0135C6.80634 14.0135 6.62287 14.1003 6.5 14.25L5.125 16.0831L3.75 14.25C3.62713 14.1003 3.44366 14.0135 3.25 14.0135C3.05634 14.0135 2.87287 14.1003 2.75 14.25L1.375 16.0831V1.5H12.625V16.0831ZM11.375 9H10.125V10.25H11.375V9ZM2.625 9H7.625V10.25H2.625V9ZM11.375 6.5H10.125V7.75H11.375V6.5ZM2.625 6.5H7.625V7.75H2.625V6.5ZM11.375 4H2.625V5.25H11.375V4Z" fill="#26DFA6"/>
</svg>
