<svg width="15" height="15" viewBox="0 0 15 15" fill="none" xmlns="http://www.w3.org/2000/svg">
<path fill-rule="evenodd" clip-rule="evenodd" d="M7.49961 3.05625L8.79336 5.67188L9.00898 6.14063L9.47773 6.21094L12.3652 6.62812L10.3121 8.64375L9.96055 8.98594L10.0449 9.45469L10.5371 12.3281L7.9543 10.9734L7.49961 10.7813L7.06367 11.0109L4.48086 12.3469L4.94961 9.47344L5.03398 9.00469L4.68711 8.64375L2.61523 6.60469L5.50273 6.1875L5.97148 6.11719L6.18711 5.64844L7.49961 3.05625V3.05625ZM7.49961 0.9375L5.3668 5.25937L0.599609 5.94844L4.04961 9.31406L3.23398 14.0625L7.49961 11.8219L11.7652 14.0625L10.9496 9.31406L14.3996 5.95312L9.63242 5.25937L7.49961 0.9375Z" fill="#333333"/>
</svg>
