<svg width="31" height="35" viewBox="0 0 31 35" fill="none" xmlns="http://www.w3.org/2000/svg">
<g filter="url(#filter0_d_911_26673)">
<path fill-rule="evenodd" clip-rule="evenodd" d="M23.7389 4.03456C23.3731 3.66799 22.7794 3.66745 22.413 4.03335C22.0468 4.39905 22.0462 4.99235 22.4118 5.35871L24.4448 7.39629C24.8106 7.76287 25.4043 7.76341 25.7707 7.3975C26.1369 7.0318 26.1375 6.43851 25.7719 6.07215L23.7389 4.03456ZM4.60127 7.40515C4.23467 7.03933 4.23407 6.44557 4.59992 6.079L6.63325 4.0417C6.99906 3.67518 7.59273 3.67457 7.95929 4.04035C8.32589 4.40618 8.32649 4.99993 7.96064 5.3665L5.92731 7.4038C5.5615 7.77033 4.96783 7.77093 4.60127 7.40515ZM18.2771 18.6511C17.9118 19.0165 17.3194 19.0165 16.9541 18.6511L15.2357 16.9328C14.6046 16.3016 14.25 15.4455 14.25 14.5529V10.8751C14.25 10.3574 14.6697 9.93763 15.1875 9.93763C15.7052 9.93763 16.125 10.3574 16.125 10.8751V14.0025C16.125 14.7495 16.421 15.466 16.9483 15.995L18.2782 17.3293C18.6425 17.6948 18.642 18.2862 18.2771 18.6511ZM15 26.2501C9.30453 26.2501 4.68747 21.6331 4.68747 15.9376C4.68747 10.2422 9.30453 5.62513 15 5.62513C20.6954 5.62513 25.3125 10.2422 25.3125 15.9376C25.3125 18.6727 24.226 21.2957 22.292 23.2297C20.358 25.1636 17.735 26.2501 15 26.2501ZM6.56247 15.9376C6.56247 11.2777 10.3401 7.50013 15 7.50013C19.6599 7.50013 23.4375 11.2777 23.4375 15.9376C23.4375 20.5975 19.6599 24.3751 15 24.3751C10.3401 24.3751 6.56247 20.5975 6.56247 15.9376Z" fill="#26DFA6"/>
</g>
<defs>
<filter id="filter0_d_911_26673" x="-4" y="0" width="38" height="38" filterUnits="userSpaceOnUse" color-interpolation-filters="sRGB">
<feFlood flood-opacity="0" result="BackgroundImageFix"/>
<feColorMatrix in="SourceAlpha" type="matrix" values="0 0 0 0 0 0 0 0 0 0 0 0 0 0 0 0 0 0 127 0" result="hardAlpha"/>
<feOffset dy="4"/>
<feGaussianBlur stdDeviation="2"/>
<feComposite in2="hardAlpha" operator="out"/>
<feColorMatrix type="matrix" values="0 0 0 0 0 0 0 0 0 0 0 0 0 0 0 0 0 0 0.25 0"/>
<feBlend mode="normal" in2="BackgroundImageFix" result="effect1_dropShadow_911_26673"/>
<feBlend mode="normal" in="SourceGraphic" in2="effect1_dropShadow_911_26673" result="shape"/>
</filter>
</defs>
</svg>
