<svg width="24" height="24" viewBox="0 0 24 24" fill="none" xmlns="http://www.w3.org/2000/svg">
<path fill-rule="evenodd" clip-rule="evenodd" d="M12 22.6667C17.891 22.6667 22.6667 17.891 22.6667 12C22.6667 6.10896 17.891 1.33333 12 1.33333C6.10896 1.33333 1.33333 6.10896 1.33333 12C1.33333 17.891 6.10896 22.6667 12 22.6667ZM12 24C18.6274 24 24 18.6274 24 12C24 5.37258 18.6274 0 12 0C5.37258 0 0 5.37258 0 12C0 18.6274 5.37258 24 12 24Z" fill="#333333"/>
<path d="M12 10.6663C14.3477 10.6663 16.2958 12.4092 16.6195 14.6683C16.6717 15.0328 16.3682 15.333 16 15.333C15.6318 15.333 15.3403 15.0315 15.2672 14.6706C14.9592 13.1488 13.6113 11.9997 12 11.9997C10.3887 11.9997 9.04079 13.1488 8.73276 14.6706C8.65971 15.0315 8.36818 15.333 7.99999 15.333C7.63181 15.333 7.32832 15.0328 7.38053 14.6683C7.70415 12.4092 9.65232 10.6663 12 10.6663Z" fill="#333333"/>
<path d="M16.6667 5.33301L7.33333 7.99967" stroke="#26DFB3" stroke-width="1.5" stroke-linecap="round"/>
<path d="M7.33334 5.33301L16.6667 7.99967" stroke="#26DFB3" stroke-width="1.5" stroke-linecap="round"/>
</svg>
