<svg width="28" height="36" viewBox="0 0 28 36" fill="none" xmlns="http://www.w3.org/2000/svg">
<path fill-rule="evenodd" clip-rule="evenodd" d="M25.25 0.5H2.75C1.36986 0.501378 0.251378 1.61986 0.25 3V34.25C0.25 34.9404 0.809644 35.5 1.5 35.5H2.75C3.14349 35.5002 3.51406 35.3149 3.75 35L6.5 31.3337L9.25 35C9.49574 35.2994 9.86268 35.4729 10.25 35.4729C10.6373 35.4729 11.0043 35.2994 11.25 35L14 31.3337L16.75 35C16.9957 35.2994 17.3627 35.4729 17.75 35.4729C18.1373 35.4729 18.5043 35.2994 18.75 35L21.5 31.3337L24.25 35C24.4861 35.3148 24.8566 35.5 25.25 35.5H26.5C27.1904 35.5 27.75 34.9404 27.75 34.25V3C27.7486 1.61986 26.6301 0.501378 25.25 0.5ZM25.25 32.1663L22.5 28.5C22.2543 28.2006 21.8873 28.0271 21.5 28.0271C21.1127 28.0271 20.7457 28.2006 20.5 28.5L17.75 32.1663L15 28.5C14.7543 28.2006 14.3873 28.0271 14 28.0271C13.6127 28.0271 13.2457 28.2006 13 28.5L10.25 32.1663L7.5 28.5C7.25426 28.2006 6.88732 28.0271 6.5 28.0271C6.11268 28.0271 5.74574 28.2006 5.5 28.5L2.75 32.1663V3H25.25V32.1663ZM22.75 18H20.25V20.5H22.75V18ZM5.25 18H15.25V20.5H5.25V18ZM22.75 13H20.25V15.5H22.75V13ZM5.25 13H15.25V15.5H5.25V13ZM22.75 8H5.25V10.5H22.75V8Z" fill="#26DFA6"/>
</svg>
