<svg width="16" height="4" viewBox="0 0 16 4" fill="none" xmlns="http://www.w3.org/2000/svg">
<path fill-rule="evenodd" clip-rule="evenodd" d="M1.75 3.25C2.44036 3.25 3 2.69036 3 2C3 1.30964 2.44036 0.75 1.75 0.75C1.05964 0.75 0.5 1.30964 0.5 2C0.5 2.69036 1.05964 3.25 1.75 3.25ZM8 3.25C8.69036 3.25 9.25 2.69036 9.25 2C9.25 1.30964 8.69036 0.75 8 0.75C7.30964 0.75 6.75 1.30964 6.75 2C6.75 2.69036 7.30964 3.25 8 3.25ZM15.5 2C15.5 2.69036 14.9404 3.25 14.25 3.25C13.5596 3.25 13 2.69036 13 2C13 1.30964 13.5596 0.75 14.25 0.75C14.9404 0.75 15.5 1.30964 15.5 2Z" fill="#ffffff"/>
</svg>
