<svg width="20" height="20" viewBox="0 0 20 20" fill="none" xmlns="http://www.w3.org/2000/svg">
<path d="M10 13.5C10 13.7761 9.77614 14 9.5 14H2.5C2.22386 14 2 13.7761 2 13.5C2 13.2239 2.22386 13 2.5 13H9.5C9.77614 13 10 13.2239 10 13.5ZM13 10C13 10.2761 12.7761 10.5 12.5 10.5H2.5C2.22386 10.5 2 10.2761 2 10C2 9.72386 2.22386 9.5 2.5 9.5H12.5C12.7761 9.5 13 9.72386 13 10ZM13 6.5C13 6.77614 12.7761 7 12.5 7H2.5C2.22386 7 2 6.77614 2 6.5C2 6.22386 2.22386 6 2.5 6H12.5C12.7761 6 13 6.22386 13 6.5Z" fill="#333333"/>
<path d="M15.5 10V17M15.5 10V17" stroke="#26DFA6" stroke-linecap="round" stroke-linejoin="round"/>
<path d="M19 13.5L12 13.5M19 13.5L12 13.5" stroke="#26DFA6" stroke-linecap="round" stroke-linejoin="round"/>
</svg>
