<svg width="20" height="20" viewBox="0 0 11 13" fill="none" xmlns="http://www.w3.org/2000/svg">
<path fill-rule="evenodd" clip-rule="evenodd" d="M3.625 0.375C3.00368 0.375 2.5 0.87868 2.5 1.5V2.25H1.75H0.5C0.223858 2.25 0 2.47386 0 2.75C0 3.02614 0.223858 3.25 0.5 3.25H1.25V11.5C1.25 12.1213 1.75368 12.625 2.375 12.625H8.625C9.24632 12.625 9.75 12.1213 9.75 11.5V3.25H10.5C10.7761 3.25 11 3.02614 11 2.75C11 2.47386 10.7761 2.25 10.5 2.25H9.25H8.5V1.5C8.5 0.87868 7.99632 0.375 7.375 0.375H3.625ZM7.5 2.25V1.5C7.5 1.43096 7.44404 1.375 7.375 1.375H3.625C3.55596 1.375 3.5 1.43096 3.5 1.5V2.25H7.5ZM3 3.25H2.25V11.5C2.25 11.569 2.30596 11.625 2.375 11.625H8.625C8.69404 11.625 8.75 11.569 8.75 11.5V3.25H8H3ZM4.25 4.75C4.52614 4.75 4.75 4.97386 4.75 5.25L4.75 9.625C4.75 9.90114 4.52614 10.125 4.25 10.125C3.97386 10.125 3.75 9.90114 3.75 9.625L3.75 5.25C3.75 4.97386 3.97386 4.75 4.25 4.75ZM6.75 4.75C7.02614 4.75 7.25 4.97386 7.25 5.25L7.25 9.625C7.25 9.90114 7.02614 10.125 6.75 10.125C6.47386 10.125 6.25 9.90114 6.25 9.625L6.25 5.25C6.25 4.97386 6.47386 4.75 6.75 4.75Z" fill="#333333"/>
</svg>

