<svg width="50" height="50" viewBox="0 0 50 50" fill="none" xmlns="http://www.w3.org/2000/svg">
<rect width="50" height="50" fill="white"/>
<path d="M30.9 29V19.6667C30.9 17.4575 33.2632 19.6667 35.5 19.6667L39 17V13H12V29H30.9Z" fill="#26DFB3"/>
<path fill-rule="evenodd" clip-rule="evenodd" d="M38 10.5H12C10.6193 10.5 9.5 11.6193 9.5 13V30.5H40.5V13C40.5 11.6193 39.3807 10.5 38 10.5ZM12 9C9.79086 9 8 10.7909 8 13V32H42V13C42 10.7909 40.2091 9 38 9H12Z" fill="#333333"/>
<path fill-rule="evenodd" clip-rule="evenodd" d="M41 36H7C5.61929 36 4.5 34.8807 4.5 33.5V32H43.5V33.5C43.5 34.8807 42.3807 36 41 36ZM7 37.5C4.79086 37.5 3 35.7091 3 33.5V31.5C3 30.9477 3.44772 30.5 4 30.5H44C44.5523 30.5 45 30.9477 45 31.5V33.5C45 35.7091 43.2091 37.5 41 37.5H7Z" fill="#333333"/>
<path d="M30.3333 16C29.597 16 29 16.5489 29 17.2261V41.7739C29 42.4511 29.597 43 30.3333 43H43.6667C44.403 43 45 42.4511 45 41.7739V17.2261C45 16.5489 44.403 16 43.6667 16H30.3333Z" fill="white"/>
<path fill-rule="evenodd" clip-rule="evenodd" d="M30.5 17.5V41.5H43.5V17.5H30.5ZM29 17.2261C29 16.5489 29.597 16 30.3333 16H43.6667C44.403 16 45 16.5489 45 17.2261V41.7739C45 42.4511 44.403 43 43.6667 43H30.3333C29.597 43 29 42.4511 29 41.7739V17.2261Z" fill="#333333"/>
<path d="M36.0387 40.0774C35.465 40.0774 35 39.6123 35 39.0387C35 38.465 35.465 38 36.0387 38H38.1161C38.6897 38 39.1548 38.465 39.1548 39.0387C39.1548 39.6123 38.6897 40.0774 38.1161 40.0774H36.0387Z" fill="#26DFB3"/>
<path d="M19 37C19 35.8954 19.8954 35 21 35H24C25.1046 35 26 35.8954 26 37V44C26 45.1046 25.1046 46 24 46H21C19.8954 46 19 45.1046 19 44V37Z" fill="white"/>
<path fill-rule="evenodd" clip-rule="evenodd" d="M24 36.5H21C20.7239 36.5 20.5 36.7239 20.5 37V44C20.5 44.2761 20.7239 44.5 21 44.5H24C24.2761 44.5 24.5 44.2761 24.5 44V37C24.5 36.7239 24.2761 36.5 24 36.5ZM21 35C19.8954 35 19 35.8954 19 37V44C19 45.1046 19.8954 46 21 46H24C25.1046 46 26 45.1046 26 44V37C26 35.8954 25.1046 35 24 35H21Z" fill="#333333"/>
<path d="M19 27C19 25.8954 19.8954 25 21 25H24C25.1046 25 26 25.8954 26 27V34C26 35.1046 25.1046 36 24 36H21C19.8954 36 19 35.1046 19 34V27Z" fill="white"/>
<path fill-rule="evenodd" clip-rule="evenodd" d="M24 26.5H21C20.7239 26.5 20.5 26.7239 20.5 27V34C20.5 34.2761 20.7239 34.5 21 34.5H24C24.2761 34.5 24.5 34.2761 24.5 34V27C24.5 26.7239 24.2761 26.5 24 26.5ZM21 25C19.8954 25 19 25.8954 19 27V34C19 35.1046 19.8954 36 21 36H24C25.1046 36 26 35.1046 26 34V27C26 25.8954 25.1046 25 24 25H21Z" fill="#333333"/>
<path d="M17 32C17 30.8954 17.8954 30 19 30H26C27.1046 30 28 30.8954 28 32V39C28 40.1046 27.1046 41 26 41H19C17.8954 41 17 40.1046 17 39V32Z" fill="white"/>
<path fill-rule="evenodd" clip-rule="evenodd" d="M26 31.5H19C18.7239 31.5 18.5 31.7239 18.5 32V39C18.5 39.2761 18.7239 39.5 19 39.5H26C26.2761 39.5 26.5 39.2761 26.5 39V32C26.5 31.7239 26.2761 31.5 26 31.5ZM19 30C17.8954 30 17 30.8954 17 32V39C17 40.1046 17.8954 41 19 41H26C27.1046 41 28 40.1046 28 39V32C28 30.8954 27.1046 30 26 30H19Z" fill="#333333"/>
<path d="M22.5 39C20.567 39 19 37.433 19 35.5C19 33.567 20.567 32 22.5 32C24.433 32 26 33.567 26 35.5C26 37.433 24.433 39 22.5 39Z" fill="#26DFB3"/>
<path fill-rule="evenodd" clip-rule="evenodd" d="M21.2765 33.0529C21.5235 32.9294 21.8238 33.0295 21.9473 33.2765L22.8091 35.0001H24.5001C24.7763 35.0001 25.0001 35.224 25.0001 35.5001C25.0001 35.7763 24.7763 36.0001 24.5001 36.0001H22.5001C22.3107 36.0001 22.1376 35.8931 22.0529 35.7237L21.0529 33.7237C20.9294 33.4767 21.0295 33.1764 21.2765 33.0529Z" fill="#333333"/>
<path d="M43.3333 6.33333V5.66667C43.3333 5.29848 43.6318 5 44 5C44.3682 5 44.6667 5.29848 44.6667 5.66667V6.33333H45.3333C45.7015 6.33333 46 6.63181 46 7C46 7.36819 45.7015 7.66667 45.3333 7.66667H44.6667V8.33333C44.6667 8.70152 44.3682 9 44 9C43.6318 9 43.3333 8.70152 43.3333 8.33333V7.66667H42.6667C42.2985 7.66667 42 7.36819 42 7C42 6.63181 42.2985 6.33333 42.6667 6.33333H43.3333Z" fill="#DDFFF5"/>
<path d="M3.66667 23.6667V22.8333C3.66667 22.3731 4.03976 22 4.5 22C4.96024 22 5.33333 22.3731 5.33333 22.8333V23.6667H6.16667C6.6269 23.6667 7 24.0398 7 24.5C7 24.9602 6.6269 25.3333 6.16667 25.3333H5.33333V26.1667C5.33333 26.6269 4.96024 27 4.5 27C4.03976 27 3.66667 26.6269 3.66667 26.1667V25.3333H2.83333C2.3731 25.3333 2 24.9602 2 24.5C2 24.0398 2.3731 23.6667 2.83333 23.6667H3.66667Z" fill="#DDFFF5"/>
</svg>
