<svg width="50" height="50" viewBox="0 0 50 50" fill="none" xmlns="http://www.w3.org/2000/svg">
<rect width="50" height="50" fill="white"/>
<path fill-rule="evenodd" clip-rule="evenodd" d="M8.375 40C8.375 39.5858 8.71079 39.25 9.125 39.25H40.875C41.2892 39.25 41.625 39.5858 41.625 40C41.625 40.4142 41.2892 40.75 40.875 40.75H9.125C8.71079 40.75 8.375 40.4142 8.375 40ZM35.0938 19.0625H15.5C14.1889 19.0638 13.1263 20.1264 13.125 21.4375V30.9375C13.1289 34.2151 15.7849 36.8711 19.0625 36.875H28.5625C31.8401 36.8711 34.4961 34.2151 34.5 30.9375V29.75H35.0938C38.045 29.75 40.4375 27.3575 40.4375 24.4062C40.4375 21.455 38.045 19.0625 35.0938 19.0625V19.0625ZM33 31.1818C32.9979 33.2897 31.2722 35.4979 29.1429 35.5H18.8571C16.7278 35.4979 14.5021 33.2897 14.5 31.1818V26.0909V21.5C14.5 20.9477 14.9477 20.5 15.5 20.5H33V31.1818ZM35.1667 28.5H34.5V20.5H35.1667C37.0076 20.5 39 22.4289 39 24.5C39 26.5711 37.0076 28.5 35.1667 28.5Z" fill="#333333"/>
<path fill-rule="evenodd" clip-rule="evenodd" d="M27.9756 15.7597C28.0713 16.2665 27.6428 16.6875 27.1271 16.6875V16.6875C26.6088 16.6875 26.1988 16.2549 26.0234 15.7671C25.8126 15.1805 25.4091 14.6543 24.8753 14.3897L21.6869 12.7972C20.074 11.9967 19.0563 10.349 19.0625 8.54838V8.12624C19.0625 7.60779 19.4828 7.1875 20.0013 7.1875V7.1875C20.5197 7.1875 20.94 7.60779 20.94 8.12624V8.54838C20.937 9.44866 21.6936 10.5996 22.5 11L25.5 12.5C26.8293 13.1595 27.71 14.3526 27.9756 15.7597Z" fill="#26DFB3"/>
<path d="M38.3333 8.33333V7.66667C38.3333 7.29848 38.6318 7 39 7C39.3682 7 39.6667 7.29848 39.6667 7.66667V8.33333H40.3333C40.7015 8.33333 41 8.63181 41 9C41 9.36819 40.7015 9.66667 40.3333 9.66667H39.6667V10.3333C39.6667 10.7015 39.3682 11 39 11C38.6318 11 38.3333 10.7015 38.3333 10.3333V9.66667H37.6667C37.2985 9.66667 37 9.36819 37 9C37 8.63181 37.2985 8.33333 37.6667 8.33333H38.3333Z" fill="#DDFFF5"/>
<path d="M11 16V15.5C11 15.2239 11.2239 15 11.5 15C11.7761 15 12 15.2239 12 15.5V16H12.5C12.7761 16 13 16.2239 13 16.5C13 16.7761 12.7761 17 12.5 17H12V17.5C12 17.7761 11.7761 18 11.5 18C11.2239 18 11 17.7761 11 17.5V17H10.5C10.2239 17 10 16.7761 10 16.5C10 16.2239 10.2239 16 10.5 16H11Z" fill="#DDFFF5"/>
<path d="M6.66667 21.6667V20.8333C6.66667 20.3731 7.03976 20 7.5 20C7.96024 20 8.33333 20.3731 8.33333 20.8333V21.6667H9.16667C9.6269 21.6667 10 22.0398 10 22.5C10 22.9602 9.6269 23.3333 9.16667 23.3333H8.33333V24.1667C8.33333 24.6269 7.96024 25 7.5 25C7.03976 25 6.66667 24.6269 6.66667 24.1667V23.3333H5.83333C5.3731 23.3333 5 22.9602 5 22.5C5 22.0398 5.3731 21.6667 5.83333 21.6667H6.66667Z" fill="#DDFFF5"/>
</svg>
