<svg width="50" height="50" viewBox="0 0 50 50" fill="none" xmlns="http://www.w3.org/2000/svg">
<rect width="50" height="50" fill="white"/>
<path fill-rule="evenodd" clip-rule="evenodd" d="M36.1962 20.602C36.1592 20.6605 36.1152 20.7158 36.0643 20.7669C35.9508 20.8806 35.8331 20.9874 35.7116 21.0873L14.9809 41.8502C13.1084 43.7269 10.0691 43.7303 8.19095 41.8564C6.31017 39.9721 6.30829 36.928 8.18613 35.0473L33.0404 10.167C33.0788 10.1286 33.1196 10.0941 33.1624 10.0635C34.0213 9.24939 35.1815 8.75 36.4583 8.75C39.1046 8.75 41.2499 10.8953 41.2499 13.5417C41.2499 14.8095 40.7575 15.9623 39.9536 16.8193C39.9226 16.8631 39.8876 16.9049 39.8484 16.9441L36.1962 20.602ZM30.6256 15.3184C30.6674 15.2766 30.7045 15.2319 30.7369 15.1849L31.7126 14.2082C32.0069 16.3233 33.6819 17.9965 35.7979 18.2882L34.4311 19.6572C33.301 20.5339 31.6686 20.4545 30.6294 19.4177C29.4965 18.2826 29.4954 16.4503 30.6256 15.3184ZM9.54228 36.4017L27.9068 18.018C28.0441 19.0248 28.4999 19.9973 29.2743 20.7731C30.0333 21.5304 30.982 21.9811 31.9666 22.1254L13.6244 40.4962C12.4993 41.6238 10.6735 41.6258 9.54611 40.501C8.4132 39.3659 8.41207 37.5337 9.54228 36.4017ZM39.3333 13.5417C39.3333 15.1295 38.0461 16.4167 36.4583 16.4167C34.8704 16.4167 33.5833 15.1295 33.5833 13.5417C33.5833 11.9538 34.8704 10.6667 36.4583 10.6667C38.0461 10.6667 39.3333 11.9538 39.3333 13.5417Z" fill="#333333"/>
<path d="M32.5833 30.6667H33.5417C34.0709 30.6667 34.5 31.0957 34.5 31.625C34.5 32.1543 34.0709 32.5833 33.5417 32.5833H32.5833V33.6596C32.5833 34.1889 32.1543 34.618 31.625 34.618C31.0957 34.618 30.6667 34.1889 30.6667 33.6596V32.5833H29.7083C29.1791 32.5833 28.75 32.1543 28.75 31.625C28.75 31.0957 29.1791 30.6667 29.7083 30.6667H30.6667V29.7083C30.6667 29.1791 31.0957 28.75 31.625 28.75C32.1543 28.75 32.5833 29.1791 32.5833 29.7083V30.6667Z" fill="#26DFB3"/>
<path d="M19.1667 7.66667V6.70833C19.1667 6.17906 19.5957 5.75 20.125 5.75C20.6543 5.75 21.0833 6.17906 21.0833 6.70833V7.66667H22.0417C22.5709 7.66667 23 8.09573 23 8.625C23 9.15427 22.5709 9.58333 22.0417 9.58333H21.0833V10.5417C21.0833 11.0709 20.6543 11.5 20.125 11.5C19.5957 11.5 19.1667 11.0709 19.1667 10.5417V9.58333H18.2083C17.6791 9.58333 17.25 9.15427 17.25 8.625C17.25 8.09573 17.6791 7.66667 18.2083 7.66667H19.1667Z" fill="#26DFB3"/>
<path d="M42.1668 23.0002H43.1252C43.6544 23.0002 44.0835 23.4292 44.0835 23.9585C44.0835 24.4878 43.6544 24.9168 43.1252 24.9168H42.1668V25.8752C42.1668 26.4044 41.7378 26.8335 41.2085 26.8335C40.6792 26.8335 40.2502 26.4044 40.2502 25.8752V24.9168H39.2918C38.7626 24.9168 38.3335 24.4878 38.3335 23.9585C38.3335 23.4292 38.7626 23.0002 39.2918 23.0002H40.2502V22.0418C40.2502 21.5126 40.6792 21.0835 41.2085 21.0835C41.7378 21.0835 42.1668 21.5126 42.1668 22.0418V23.0002Z" fill="#26DFB3"/>
<path d="M28.6667 7.66667V7.33333C28.6667 7.14924 28.8159 7 29 7C29.1841 7 29.3333 7.14924 29.3333 7.33333V7.66667H29.6667C29.8508 7.66667 30 7.81591 30 8C30 8.18409 29.8508 8.33333 29.6667 8.33333H29.3333V8.66667C29.3333 8.85076 29.1841 9 29 9C28.8159 9 28.6667 8.85076 28.6667 8.66667V8.33333H28.3333C28.1492 8.33333 28 8.18409 28 8C28 7.81591 28.1492 7.66667 28.3333 7.66667H28.6667Z" fill="#DDFFF5"/>
<path d="M43 30V29.5C43 29.2239 43.2239 29 43.5 29C43.7761 29 44 29.2239 44 29.5V30H44.5C44.7761 30 45 30.2239 45 30.5C45 30.7761 44.7761 31 44.5 31H44V31.5C44 31.7761 43.7761 32 43.5 32C43.2239 32 43 31.7761 43 31.5V31H42.5C42.2239 31 42 30.7761 42 30.5C42 30.2239 42.2239 30 42.5 30H43Z" fill="#DDFFF5"/>
</svg>
