<svg width="50" height="50" viewBox="0 0 50 50" fill="none" xmlns="http://www.w3.org/2000/svg">
<rect width="50" height="50" fill="white"/>
<path fill-rule="evenodd" clip-rule="evenodd" d="M15.616 26.3887C13.9591 26.3887 12.616 25.0455 12.616 23.3887C12.616 21.7318 13.9591 20.3887 15.616 20.3887C17.2728 20.3887 18.616 21.7318 18.616 23.3887C18.616 25.0455 17.2728 26.3887 15.616 26.3887Z" fill="#333333"/>
<path fill-rule="evenodd" clip-rule="evenodd" d="M32.2954 21.9907C33.1238 21.9907 33.7954 21.3191 33.7954 20.4907C33.7954 19.6623 33.1238 18.9907 32.2954 18.9907C31.467 18.9907 30.7954 19.6623 30.7954 20.4907C30.7954 21.3191 31.467 21.9907 32.2954 21.9907Z" fill="#26DFB3"/>
<path fill-rule="evenodd" clip-rule="evenodd" d="M32.2954 27.584C33.1238 27.584 33.7954 26.9124 33.7954 26.084C33.7954 25.2556 33.1238 24.584 32.2954 24.584C31.467 24.584 30.7954 25.2556 30.7954 26.084C30.7954 26.9124 31.467 27.584 32.2954 27.584Z" fill="#26DFB3"/>
<path fill-rule="evenodd" clip-rule="evenodd" d="M29.499 24.7871C30.3275 24.7871 30.999 24.1155 30.999 23.2871C30.999 22.4587 30.3275 21.7871 29.499 21.7871C28.6706 21.7871 27.999 22.4587 27.999 23.2871C27.999 24.1155 28.6706 24.7871 29.499 24.7871Z" fill="#26DFB3"/>
<path fill-rule="evenodd" clip-rule="evenodd" d="M35.0925 24.7871C35.921 24.7871 36.5925 24.1155 36.5925 23.2871C36.5925 22.4587 35.921 21.7871 35.0925 21.7871C34.2641 21.7871 33.5925 22.4587 33.5925 23.2871C33.5925 24.1155 34.2641 24.7871 35.0925 24.7871Z" fill="#26DFB3"/>
<path fill-rule="evenodd" clip-rule="evenodd" d="M40.794 17.8192L44.0523 30.1813C45.1367 34.3033 42.7253 38.5357 38.6264 39.7045C37.9699 39.8821 37.2928 39.9714 36.6127 39.9702C35.3011 39.9563 34.0151 39.6047 32.8789 38.9494C31.0813 37.9096 29.7764 36.1915 29.257 34.1808L28.9353 32.9781H20.5448L20.2931 34.2087C19.7737 36.2195 18.4688 37.9375 16.6712 38.9774C14.9153 39.9944 12.8254 40.2663 10.8677 39.7325C5.3412 38.425 5.24604 32.8202 5.88927 30.1813L8.68618 17.7913C9.20985 15.7826 10.5136 14.0661 12.3081 13.0226C14.064 12.0056 16.1539 11.7337 18.1116 12.2675C20.197 12.8412 21.9437 14.268 22.9221 16.1971H26.558C27.5406 14.2714 29.2856 12.8459 31.3686 12.2675C33.3263 11.7337 35.4162 12.0056 37.1721 13.0226C38.9757 14.0689 40.2813 15.7981 40.794 17.8192ZM36.4194 14.3201C35.0115 13.505 33.3362 13.2867 31.7666 13.7137C30.0898 14.1804 28.6852 15.3283 27.8942 16.8788L27.4767 17.6971H22.001L21.5844 16.8756C20.7974 15.3239 19.3926 14.1761 17.7153 13.7142C16.1452 13.2866 14.4694 13.5047 13.0611 14.3199C11.6195 15.1586 10.5702 16.5353 10.1436 18.147L7.34963 30.5241L7.3466 30.5365C7.07273 31.6601 6.96558 33.4217 7.48725 34.98C7.97808 36.4463 9.01697 37.7532 11.2131 38.2728L11.2378 38.2787L11.2623 38.2854C12.8333 38.7137 14.5103 38.4955 15.9194 37.6794C17.3585 36.8469 18.4067 35.475 18.8316 33.8686L19.3206 31.4781H30.0869L30.7061 33.7932L30.7093 33.8056C31.1281 35.427 32.1803 36.8124 33.6298 37.6509M36.4194 14.3201C37.8736 15.1639 38.9267 16.5583 39.34 18.188L39.3435 18.2015L42.6017 30.5629C43.477 33.8919 41.5325 37.3103 38.225 38.2592C37.7022 38.3997 37.1633 38.4706 36.622 38.4703C35.5709 38.458 34.5405 38.1758 33.6298 37.6509" fill="#333333"/>
<path d="M41.3333 6.33333V5.66667C41.3333 5.29848 41.6318 5 42 5C42.3682 5 42.6667 5.29848 42.6667 5.66667V6.33333H43.3333C43.7015 6.33333 44 6.63181 44 7C44 7.36819 43.7015 7.66667 43.3333 7.66667H42.6667V8.33333C42.6667 8.70152 42.3682 9 42 9C41.6318 9 41.3333 8.70152 41.3333 8.33333V7.66667H40.6667C40.2985 7.66667 40 7.36819 40 7C40 6.63181 40.2985 6.33333 40.6667 6.33333H41.3333Z" fill="#DDFFF5"/>
<path d="M5.66667 10.6667V9.83333C5.66667 9.3731 6.03976 9 6.5 9C6.96024 9 7.33333 9.3731 7.33333 9.83333V10.6667H8.16667C8.6269 10.6667 9 11.0398 9 11.5C9 11.9602 8.6269 12.3333 8.16667 12.3333H7.33333V13.1667C7.33333 13.6269 6.96024 14 6.5 14C6.03976 14 5.66667 13.6269 5.66667 13.1667V12.3333H4.83333C4.3731 12.3333 4 11.9602 4 11.5C4 11.0398 4.3731 10.6667 4.83333 10.6667H5.66667Z" fill="#DDFFF5"/>
</svg>
