<svg width="50" height="50" viewBox="0 0 50 50" fill="none" xmlns="http://www.w3.org/2000/svg">
<rect width="50" height="50" fill="white"/>
<path d="M10 14.5334C10 9.82051 13.8205 6 18.5333 6C23.2462 6 27.0667 9.82051 27.0667 14.5334V33.7334C27.0667 38.4462 23.2462 42.2667 18.5333 42.2667C13.8205 42.2667 10 38.4462 10 33.7334V14.5334Z" fill="white"/>
<path fill-rule="evenodd" clip-rule="evenodd" d="M25.5667 33.7334V14.5334C25.5667 10.6489 22.4178 7.5 18.5333 7.5C14.6489 7.5 11.5 10.6489 11.5 14.5334V33.7334C11.5 37.6178 14.6489 40.7667 18.5333 40.7667C22.4178 40.7667 25.5667 37.6178 25.5667 33.7334ZM18.5333 6C13.8205 6 10 9.82051 10 14.5334V33.7334C10 38.4462 13.8205 42.2667 18.5333 42.2667C23.2462 42.2667 27.0667 38.4462 27.0667 33.7334V14.5334C27.0667 9.82051 23.2462 6 18.5333 6Z" fill="#333333"/>
<path d="M21.7334 32.1334C21.7334 26.5369 26.2703 22 31.8667 22C37.4632 22 42.0001 26.5369 42.0001 32.1334C42.0001 37.7298 37.4632 42.2667 31.8667 42.2667C26.2703 42.2667 21.7334 37.7298 21.7334 32.1334Z" fill="#26DFB3"/>
<path fill-rule="evenodd" clip-rule="evenodd" d="M23.2334 32.1334C23.2334 36.9014 27.0987 40.7667 31.8667 40.7667C36.6348 40.7667 40.5001 36.9014 40.5001 32.1334C40.5001 27.3653 36.6348 23.5 31.8667 23.5C27.0987 23.5 23.2334 27.3653 23.2334 32.1334ZM31.8667 22C26.2703 22 21.7334 26.5369 21.7334 32.1334C21.7334 37.7298 26.2703 42.2667 31.8667 42.2667C37.4632 42.2667 42.0001 37.7298 42.0001 32.1334C42.0001 26.5369 37.4632 22 31.8667 22Z" fill="#333333"/>
<path d="M11.0671 23.0669H26.0005V24.6669H11.0671V23.0669Z" fill="#333333"/>
<rect x="22.7996" y="31.6001" width="18.1334" height="1.6" fill="#333333"/>
<path d="M37.3333 12.3333V11.6667C37.3333 11.2985 37.6318 11 38 11C38.3682 11 38.6667 11.2985 38.6667 11.6667V12.3333H39.3333C39.7015 12.3333 40 12.6318 40 13C40 13.3682 39.7015 13.6667 39.3333 13.6667H38.6667V14.3333C38.6667 14.7015 38.3682 15 38 15C37.6318 15 37.3333 14.7015 37.3333 14.3333V13.6667H36.6667C36.2985 13.6667 36 13.3682 36 13C36 12.6318 36.2985 12.3333 36.6667 12.3333H37.3333Z" fill="#DDFFF5"/>
<path d="M32.6667 8.66667V8.33333C32.6667 8.14924 32.8159 8 33 8C33.1841 8 33.3333 8.14924 33.3333 8.33333V8.66667H33.6667C33.8508 8.66667 34 8.81591 34 9C34 9.18409 33.8508 9.33333 33.6667 9.33333H33.3333V9.66667C33.3333 9.85076 33.1841 10 33 10C32.8159 10 32.6667 9.85076 32.6667 9.66667V9.33333H32.3333C32.1492 9.33333 32 9.18409 32 9C32 8.81591 32.1492 8.66667 32.3333 8.66667H32.6667Z" fill="#DDFFF5"/>
<path d="M5.66667 23.6667V22.8333C5.66667 22.3731 6.03976 22 6.5 22C6.96024 22 7.33333 22.3731 7.33333 22.8333V23.6667H8.16667C8.6269 23.6667 9 24.0398 9 24.5C9 24.9602 8.6269 25.3333 8.16667 25.3333H7.33333V26.1667C7.33333 26.6269 6.96024 27 6.5 27C6.03976 27 5.66667 26.6269 5.66667 26.1667V25.3333H4.83333C4.3731 25.3333 4 24.9602 4 24.5C4 24.0398 4.3731 23.6667 4.83333 23.6667H5.66667Z" fill="#DDFFF5"/>
</svg>
