<svg width="50" height="50" viewBox="0 0 50 50" fill="none" xmlns="http://www.w3.org/2000/svg">
<rect width="50" height="50" fill="white"/>
<path fill-rule="evenodd" clip-rule="evenodd" d="M26.228 9.76927C24.4244 9.87233 22.663 10.3773 21.0744 11.251C19.2611 12.2483 17.7332 13.6929 16.6358 15.4475L16.6316 15.4542C15.9483 16.5215 15.3619 17.6475 14.8795 18.8186L17.1829 21.122C18.3681 20.6406 19.5085 20.0548 20.5906 19.3712C25.0611 16.3697 26.077 12.4008 26.228 9.76927ZM20.5213 21.1628C19.6287 21.6732 18.7029 22.1235 17.75 22.5107V26.0439C17.9445 25.9872 18.1587 25.9189 18.3805 25.8385C19.2472 25.5241 20.0367 25.0905 20.3764 24.5831C20.5511 24.3206 20.6645 23.9429 20.7088 23.4657C20.7526 22.9945 20.7244 22.4792 20.6611 21.9881C20.6228 21.691 20.5727 21.41 20.5213 21.1628ZM17 26.9998L17.1339 27.7377C16.9151 27.7774 16.69 27.718 16.5193 27.5755C16.3486 27.433 16.25 27.2221 16.25 26.9998V22.3104L13.6893 19.7498H8.99997C8.77761 19.7498 8.56672 19.6511 8.42423 19.4804C8.28173 19.3097 8.22232 19.0846 8.26203 18.8658L8.99997 18.9998C8.26203 18.8658 8.262 18.866 8.26203 18.8658L8.26234 18.8641L8.26287 18.8612L8.26454 18.8523L8.27042 18.8217C8.27548 18.7958 8.28283 18.7591 8.29257 18.7129C8.31205 18.6206 8.34115 18.4898 8.38062 18.3306C8.45929 18.0134 8.58056 17.5781 8.75117 17.1078C9.0742 16.2172 9.64052 15.0068 10.583 14.3764L10.5839 14.3757C11.1314 14.0107 11.7835 13.8542 12.3952 13.7974C13.0134 13.7399 13.6469 13.7792 14.2033 13.8509C14.7628 13.923 15.2648 14.0306 15.6261 14.1197C15.652 14.1261 15.6771 14.1324 15.7016 14.1386C16.9025 12.3981 18.4938 10.9585 20.3515 9.93669C22.389 8.81607 24.6793 8.23535 27.0046 8.24977C27.417 8.25233 27.75 8.58736 27.75 8.99976C27.75 11.7873 26.9638 16.655 21.8648 20.3126C21.8698 20.3325 21.8749 20.3528 21.88 20.3736C21.9691 20.7349 22.0767 21.237 22.1488 21.7964C22.2205 22.3529 22.2598 22.9863 22.2024 23.6045C22.1455 24.2162 21.989 24.8683 21.624 25.4158L21.6233 25.4168C20.9929 26.3592 19.7825 26.9255 18.892 27.2486C18.4216 27.4192 17.9863 27.5404 17.6691 27.6191C17.51 27.6586 17.3792 27.6877 17.2868 27.7072C17.2406 27.7169 17.2039 27.7243 17.1781 27.7293L17.1475 27.7352L17.1385 27.7369L17.1357 27.7374L17.1339 27.7377C17.1337 27.7377 17.1339 27.7377 17 26.9998ZM15.7717 15.7142L15.7669 15.7127L15.7435 15.7055C15.7219 15.6989 15.6885 15.6889 15.6448 15.6764C15.5571 15.6512 15.4279 15.6157 15.267 15.5761C15.146 15.5463 15.0082 15.5143 14.8573 15.4827C15.0209 15.2012 15.1906 14.9231 15.3662 14.6487M13.4916 18.2498C13.8837 17.2974 14.3401 16.3729 14.8573 15.4827C14.6052 15.4299 14.317 15.378 14.0116 15.3386C13.5206 15.2753 13.0053 15.2471 12.5341 15.2909C12.0567 15.3353 11.6789 15.4487 11.4165 15.6235C10.9091 15.9632 10.4756 16.7526 10.1613 17.6193C10.0808 17.841 10.0126 18.0552 9.95579 18.2498H13.4916ZM9.01711 22.9259C9.56928 22.4607 10.2737 22.2158 10.9954 22.2381C11.7172 22.2605 12.4054 22.5486 12.9278 23.0472L12.937 23.056C14.0261 24.1313 14.0168 25.8671 13.0728 26.9839C12.662 27.4721 12.0876 27.8399 11.5163 28.119C10.9357 28.4026 10.3052 28.6199 9.73373 28.7833C9.15989 28.9475 8.62987 29.0618 8.24394 29.135C8.05045 29.1718 7.89189 29.1984 7.78056 29.2161C7.72487 29.2249 7.68091 29.2315 7.65021 29.236L7.61429 29.2411L7.60412 29.2425L7.60003 29.2431C7.59988 29.2431 7.59935 29.2431 7.49997 28.4998C6.75658 28.4004 6.7566 28.4002 6.75662 28.4001L6.75681 28.3987L6.75723 28.3956L6.75863 28.3854L6.76376 28.3495C6.76822 28.3188 6.7748 28.2749 6.78363 28.2192C6.80128 28.1078 6.82796 27.9493 6.8647 27.7558C6.93797 27.3699 7.05225 26.8398 7.21639 26.266C7.37985 25.6946 7.59716 25.064 7.88075 24.4834C8.16006 23.9116 8.52828 23.3367 9.01711 22.9259ZM7.49997 28.4998L6.75662 28.4001C6.72566 28.6317 6.80439 28.8648 6.96964 29.0301C7.13489 29.1953 7.3684 29.274 7.60003 29.2431L7.49997 28.4998ZM8.4351 27.5646C8.70346 27.5054 9.00588 27.4314 9.32121 27.3412C9.84227 27.1921 10.383 27.0032 10.858 26.7712C11.3416 26.5349 11.7065 26.2783 11.9257 26.0174L11.9272 26.0156C12.4017 25.4542 12.3741 24.6133 11.8875 24.1279C11.6331 23.8872 11.2992 23.7483 10.949 23.7374C10.5967 23.7265 10.2528 23.8461 9.98328 24.0733L9.98236 24.074C9.72143 24.2932 9.46479 24.6581 9.22856 25.1417C8.99653 25.6168 8.80759 26.1575 8.65855 26.6785C8.56835 26.9939 8.49437 27.2963 8.4351 27.5646Z" fill="#333333"/>
<path fill-rule="evenodd" clip-rule="evenodd" d="M32 23.25C32.4142 23.25 32.75 23.5858 32.75 24V27.25H35C37.3682 27.25 39.3315 28.983 39.6911 31.25H40C41.5188 31.25 42.75 32.4812 42.75 34V35C42.75 36.5188 41.5188 37.75 40 37.75H39.75V39C39.75 39.4142 39.4142 39.75 39 39.75H25C24.5858 39.75 24.25 39.4142 24.25 39V37.75H24C22.4812 37.75 21.25 36.5188 21.25 35V34C21.25 32.4812 22.4812 31.25 24 31.25H24.3089C24.6685 28.983 26.6318 27.25 29 27.25H31.25V24C31.25 23.5858 31.5858 23.25 32 23.25ZM24.25 32.75H24C23.3096 32.75 22.75 33.3096 22.75 34V35C22.75 35.6904 23.3096 36.25 24 36.25H24.25V32.75ZM25.75 38.25H27.25V35C27.25 34.5858 27.5858 34.25 28 34.25H36C36.4142 34.25 36.75 34.5858 36.75 35V38.25H38.25V32C38.25 30.2051 36.7949 28.75 35 28.75H29C27.2051 28.75 25.75 30.2051 25.75 32V38.25ZM35.25 38.25V35.75H32.75V38.25H35.25ZM31.25 38.25V35.75H28.75V38.25H31.25ZM39.75 36.25H40C40.6904 36.25 41.25 35.6904 41.25 35V34C41.25 33.3096 40.6904 32.75 40 32.75H39.75V36.25Z" fill="#333333"/>
<path fill-rule="evenodd" clip-rule="evenodd" d="M28 32C28 31.4477 28.4477 31 29 31H29.001C29.5533 31 30.001 31.4477 30.001 32C30.001 32.5523 29.5533 33 29.001 33H29C28.4477 33 28 32.5523 28 32Z" fill="#333333"/>
<path fill-rule="evenodd" clip-rule="evenodd" d="M34 32C34 31.4477 34.4477 31 35 31H35.001C35.5533 31 36.001 31.4477 36.001 32C36.001 32.5523 35.5533 33 35.001 33H35C34.4477 33 34 32.5523 34 32Z" fill="#333333"/>
<path fill-rule="evenodd" clip-rule="evenodd" d="M30 24C30 22.8954 30.8954 22 32 22C33.1046 22 34 22.8954 34 24C34 25.1046 33.1046 26 32 26C30.8954 26 30 25.1046 30 24Z" fill="#26DFB3"/>
<path d="M36 10V9.5C36 9.22386 36.2239 9 36.5 9C36.7761 9 37 9.22386 37 9.5V10H37.5C37.7761 10 38 10.2239 38 10.5C38 10.7761 37.7761 11 37.5 11H37V11.5C37 11.7761 36.7761 12 36.5 12C36.2239 12 36 11.7761 36 11.5V11H35.5C35.2239 11 35 10.7761 35 10.5C35 10.2239 35.2239 10 35.5 10H36Z" fill="#DDFFF5"/>
<path d="M41 15V14C41 13.4477 41.4477 13 42 13C42.5523 13 43 13.4477 43 14V15H44C44.5523 15 45 15.4477 45 16C45 16.5523 44.5523 17 44 17H43V18C43 18.5523 42.5523 19 42 19C41.4477 19 41 18.5523 41 18V17H40C39.4477 17 39 16.5523 39 16C39 15.4477 39.4477 15 40 15H41Z" fill="#DDFFF5"/>
<path d="M12.6667 34.6667V33.8333C12.6667 33.3731 13.0398 33 13.5 33C13.9602 33 14.3333 33.3731 14.3333 33.8333V34.6667H15.1667C15.6269 34.6667 16 35.0398 16 35.5C16 35.9602 15.6269 36.3333 15.1667 36.3333H14.3333V37.1667C14.3333 37.6269 13.9602 38 13.5 38C13.0398 38 12.6667 37.6269 12.6667 37.1667V36.3333H11.8333C11.3731 36.3333 11 35.9602 11 35.5C11 35.0398 11.3731 34.6667 11.8333 34.6667H12.6667Z" fill="#DDFFF5"/>
</svg>
