<svg width="50" height="50" viewBox="0 0 50 50" fill="none" xmlns="http://www.w3.org/2000/svg">
<rect width="50" height="50" fill="white"/>
<path fill-rule="evenodd" clip-rule="evenodd" d="M18.75 11.75C19.1642 11.75 19.5 12.0858 19.5 12.5V15.9167H24.25V12.5C24.25 12.0858 24.5858 11.75 25 11.75C25.4142 11.75 25.75 12.0858 25.75 12.5V15.9167H30.5V12.5C30.5 12.0858 30.8358 11.75 31.25 11.75C31.6642 11.75 32 12.0858 32 12.5V15.9167H33.3333C34.6373 15.9167 35.8879 16.4347 36.8099 17.3567C37.732 18.2788 38.25 19.5294 38.25 20.8333V24.25H39.5833C40.8873 24.25 42.1379 24.768 43.0599 25.6901C43.982 26.6121 44.5 27.8627 44.5 29.1667V43.75C44.5 44.1642 44.1642 44.5 43.75 44.5H6.25C5.83579 44.5 5.5 44.1642 5.5 43.75L5.5 32.3878C5.5 32.3876 5.5 32.3881 5.5 32.3878L5.5 29.1667C5.5 27.8627 6.018 26.6121 6.94006 25.6901C7.86211 24.768 9.11269 24.25 10.4167 24.25H11.75V20.8333C11.75 19.5294 12.268 18.2788 13.1901 17.3567C14.1121 16.4347 15.3627 15.9167 16.6667 15.9167H18V12.5C18 12.0858 18.3358 11.75 18.75 11.75ZM16.6667 17.4167C15.7605 17.4167 14.8915 17.7766 14.2507 18.4174C13.61 19.0581 13.25 19.9272 13.25 20.8333V24.25H36.75V20.8333C36.75 19.9272 36.39 19.0581 35.7493 18.4174C35.1085 17.7766 34.2395 17.4167 33.3333 17.4167H16.6667ZM10.4167 25.75C9.51051 25.75 8.64147 26.11 8.00072 26.7507C7.35997 27.3915 7 28.2605 7 29.1667V31.6815C7.99485 31.7989 8.9518 32.1495 9.79105 32.7093C10.5933 33.2442 11.5358 33.5296 12.5 33.5296C13.4642 33.5296 14.4067 33.2442 15.209 32.7093C16.2576 32.0102 17.4897 31.6371 18.75 31.6371C20.0103 31.6371 21.2424 32.0102 22.291 32.7093C23.0933 33.2442 24.0358 33.5296 25 33.5296C25.9642 33.5296 26.9067 33.2442 27.709 32.7093C28.7576 32.0102 29.9897 31.6371 31.25 31.6371C32.5103 31.6371 33.7424 32.0102 34.791 32.7093C35.5933 33.2442 36.5358 33.5296 37.5 33.5296C38.464 33.5296 39.4065 33.2442 40.2087 32.7095C41.0633 32.1391 42.0215 31.7969 43 31.6816V29.1667C43 28.2605 42.64 27.3915 41.9993 26.7507C41.3585 26.11 40.4895 25.75 39.5833 25.75H10.4167ZM43 33.1952C42.3125 33.3016 41.6433 33.5554 41.0413 33.9572C39.9927 34.6563 38.7603 35.0296 37.5 35.0296C36.2397 35.0296 35.0076 34.6565 33.9589 33.9574C33.1567 33.4225 32.2142 33.1371 31.25 33.1371C30.2858 33.1371 29.3433 33.4225 28.541 33.9574C27.4924 34.6565 26.2603 35.0296 25 35.0296C23.7397 35.0296 22.5076 34.6565 21.4589 33.9574C20.6567 33.4225 19.7142 33.1371 18.75 33.1371C17.7858 33.1371 16.8433 33.4225 16.041 33.9574C14.9924 34.6565 13.7603 35.0296 12.5 35.0296C11.2397 35.0296 10.0076 34.6565 8.95895 33.9574C8.36668 33.5623 7.69763 33.3033 7 33.1951V43H43V33.1952Z" fill="#333333"/>
<path fill-rule="evenodd" clip-rule="evenodd" d="M14.9316 32.2934C16.0623 31.5395 17.391 31.1372 18.75 31.1372C20.109 31.1372 21.4377 31.5395 22.5684 32.2934C23.2885 32.7735 24.1346 33.0297 25 33.0297C25.8654 33.0297 26.7115 32.7735 27.4316 32.2934C28.5623 31.5395 29.891 31.1372 31.25 31.1372C32.609 31.1372 33.9377 31.5395 35.0684 32.2934C35.7885 32.7735 36.6346 33.0297 37.5 33.0297C38.3652 33.0297 39.2111 32.7736 39.9311 32.2937C41.0876 31.5219 42.4198 31.1376 43.75 31.1376C44.4404 31.1376 45 31.6973 45 32.3876C45 33.078 44.4404 33.6376 43.75 33.6376C42.901 33.6376 42.054 33.8825 41.3189 34.3732L41.3184 34.3735C40.1877 35.1274 38.859 35.5297 37.5 35.5297C36.141 35.5297 34.8123 35.1274 33.6816 34.3735C32.9615 33.8934 32.1154 33.6372 31.25 33.6372C30.3846 33.6372 29.5385 33.8934 28.8184 34.3735C27.6877 35.1274 26.359 35.5297 25 35.5297C23.641 35.5297 22.3123 35.1274 21.1816 34.3735C20.4615 33.8934 19.6154 33.6372 18.75 33.6372C17.8846 33.6372 17.0385 33.8934 16.3184 34.3735C15.1877 35.1274 13.859 35.5297 12.5 35.5297C11.141 35.5297 9.81234 35.1274 8.68158 34.3735L8.68137 34.3733C7.96162 33.8933 7.11573 33.6372 6.25056 33.6376C5.5602 33.6379 5.00031 33.0785 5 32.3882C4.99969 31.6978 5.55909 31.1379 6.24944 31.1376C7.60868 31.137 8.93762 31.5392 10.0684 32.2934M10.0686 32.2936C10.7887 32.7736 11.6346 33.0297 12.5 33.0297C13.3654 33.0297 14.2115 32.7735 14.9316 32.2934" fill="#26DFB3"/>
<path d="M17 8.85714C17 6.95814 18.2 5.85714 19 5C19.8 5.85714 21 7.01154 21 8.85714C21 9.71429 20.28 11 19 11C17.4 11 17 9.71429 17 8.85714Z" fill="#26DFB3"/>
<path d="M23 8.85714C23 6.95814 24.2 5.85714 25 5C25.8 5.85714 27 7.01154 27 8.85714C27 9.71429 26.28 11 25 11C23.4 11 23 9.71429 23 8.85714Z" fill="#26DFB3"/>
<path d="M29.5 8.85714C29.5 6.95814 30.7 5.85714 31.5 5C32.3 5.85714 33.5 7.01154 33.5 8.85714C33.5 9.71429 32.78 11 31.5 11C29.9 11 29.5 9.71429 29.5 8.85714Z" fill="#26DFB3"/>
<path d="M36.3333 5.33333V4.66667C36.3333 4.29848 36.6318 4 37 4C37.3682 4 37.6667 4.29848 37.6667 4.66667V5.33333H38.3333C38.7015 5.33333 39 5.63181 39 6C39 6.36819 38.7015 6.66667 38.3333 6.66667H37.6667V7.33333C37.6667 7.70152 37.3682 8 37 8C36.6318 8 36.3333 7.70152 36.3333 7.33333V6.66667H35.6667C35.2985 6.66667 35 6.36819 35 6C35 5.63181 35.2985 5.33333 35.6667 5.33333H36.3333Z" fill="#DDFFF5"/>
<path d="M6.66667 19.6667V18.8333C6.66667 18.3731 7.03976 18 7.5 18C7.96024 18 8.33333 18.3731 8.33333 18.8333V19.6667H9.16667C9.6269 19.6667 10 20.0398 10 20.5C10 20.9602 9.6269 21.3333 9.16667 21.3333H8.33333V22.1667C8.33333 22.6269 7.96024 23 7.5 23C7.03976 23 6.66667 22.6269 6.66667 22.1667V21.3333H5.83333C5.3731 21.3333 5 20.9602 5 20.5C5 20.0398 5.3731 19.6667 5.83333 19.6667H6.66667Z" fill="#DDFFF5"/>
</svg>
