<svg width="50" height="50" viewBox="0 0 50 50" fill="none" xmlns="http://www.w3.org/2000/svg">
<rect width="50" height="50" fill="white"/>
<path d="M27.8797 32.1245C27.4262 32.1245 27.0583 32.4858 27.0583 32.9316C27.0583 33.377 27.4261 33.7383 27.8797 33.7383C28.3334 33.7383 28.7012 33.377 28.7012 32.9316C28.7012 32.4858 28.3334 32.1245 27.8797 32.1245Z" fill="#333333"/>
<path d="M35.3479 32.1245C34.8944 32.1245 34.5266 32.4858 34.5266 32.9316C34.5266 33.377 34.8944 33.7383 35.3479 33.7383C35.8016 33.7383 36.1694 33.377 36.1694 32.9316C36.1694 32.4858 35.8016 32.1245 35.3479 32.1245Z" fill="#333333"/>
<path d="M33.4887 38.4936C33.3357 38.578 33.1921 38.6101 33.0475 38.6105C32.7806 38.6127 32.4967 38.4851 32.2893 38.3109C32.1861 38.2254 32.104 38.1297 32.0543 38.05C32.0294 38.0106 32.0128 37.9751 32.0039 37.9495L31.9957 37.9203L31.9946 37.9123C31.9946 37.7058 31.9946 37.4347 31.9946 37.1669C32.0296 37.1468 32.0675 37.1348 32.0995 37.1092L33.1657 36.2579C33.3682 36.0967 33.445 35.8275 33.358 35.5856C33.2706 35.3441 33.038 35.1826 32.7769 35.1826H30.4505C30.1897 35.1826 29.957 35.3441 29.8696 35.5856C29.7824 35.8275 29.8594 36.0967 30.0619 36.2579L31.1279 37.1092C31.1601 37.1348 31.198 37.1472 31.233 37.1669C31.233 37.4347 31.233 37.7058 31.233 37.9123L31.2319 37.9203C31.2284 37.9451 31.2003 38.0175 31.1421 38.0964C31.056 38.2166 30.9084 38.3536 30.736 38.4515C30.5629 38.5505 30.3686 38.6108 30.1803 38.6105C30.0354 38.6101 29.8918 38.578 29.7389 38.4936C29.5864 38.4088 29.422 38.2674 29.2572 38.035L28.6321 38.4625C28.8498 38.7701 29.0973 38.997 29.364 39.145C29.6301 39.2933 29.9131 39.3595 30.1803 39.3587C30.6807 39.3565 31.1135 39.145 31.4311 38.8816C31.4979 38.8257 31.557 38.7657 31.6139 38.7051C31.7385 38.8385 31.885 38.9623 32.0559 39.0672C32.3339 39.2363 32.673 39.3583 33.0476 39.3587C33.3147 39.3595 33.5978 39.2934 33.8638 39.145C34.1305 38.997 34.378 38.7701 34.5957 38.4625L33.9706 38.035C33.8056 38.2674 33.6414 38.4088 33.4887 38.4936Z" fill="#333333"/>
<path d="M42.5774 33.224C42.0114 32.0585 41.1893 30.9061 40.5062 30.0322C39.9396 29.3087 39.4732 28.7863 39.3248 28.6226C39.1936 28.3694 38.7468 27.5985 37.8005 26.8206C36.6845 25.8995 34.8614 24.9967 32.1595 25C31.9817 25 31.7993 25.0047 31.6139 25.0124C31.4284 25.0047 31.2461 25 31.0684 25C28.3664 24.9967 26.5434 25.8995 25.4274 26.8206C24.4815 27.5985 24.0347 28.369 23.9032 28.6222C23.6888 28.8586 22.8526 29.7987 22.0069 30.9891C21.519 31.6767 21.0277 32.4465 20.6505 33.224C20.2758 34.0033 20.0037 34.787 20 35.5503C20.0019 36.1652 20.159 36.8279 20.3875 37.5163C20.7321 38.5466 21.2481 39.6299 21.7293 40.563C21.9699 41.0293 22.2018 41.4571 22.3987 41.8177C22.5952 42.1776 22.7577 42.4732 22.8529 42.6606C23.061 43.0691 23.3511 43.4001 23.691 43.6324C24.0303 43.8645 24.4226 43.9996 24.8274 44C25.0831 44.0004 25.3425 43.9441 25.5802 43.8279C25.9385 43.654 26.2364 43.3456 26.4288 42.9507C26.6229 42.5543 26.7218 42.0727 26.7222 41.5053C26.7222 41.472 26.7222 41.437 26.7222 41.4033C26.7831 41.4607 26.8444 41.5181 26.9087 41.5765C27.2215 41.8605 27.5718 42.1542 27.9326 42.4019C28.2963 42.6474 28.6589 42.8553 29.0721 42.9426C29.6631 43.061 30.1568 43.1023 30.5565 43.1023C31.0524 43.1027 31.4027 43.0384 31.6139 42.9824C31.8252 43.0383 32.1755 43.1026 32.6714 43.1023C33.071 43.1023 33.5647 43.061 34.1558 42.9426C34.569 42.8553 34.9316 42.6474 35.2953 42.4019C35.7304 42.1027 36.1499 41.7373 36.5056 41.4026C36.5056 41.4366 36.5056 41.4717 36.5056 41.5053C36.5061 42.2601 36.6815 42.8692 37.0249 43.3149C37.1958 43.5364 37.4096 43.7118 37.6476 43.8279C37.8853 43.9441 38.1447 44.0004 38.4004 44C38.805 43.9996 39.1975 43.8645 39.5368 43.6324C39.8768 43.4001 40.1668 43.069 40.3749 42.6606C40.5024 42.4096 40.7476 41.9708 41.0367 41.4359C41.4716 40.6306 42.0104 39.5988 42.4463 38.5568C42.6643 38.0351 42.8567 37.5111 42.9971 37.0051C43.1369 36.4987 43.2271 36.0121 43.2279 35.5502C43.2241 34.787 42.9521 34.0033 42.5774 33.224ZM41.7548 37.1666C41.4426 38.1031 40.9479 39.1488 40.4796 40.0556C40.0101 40.9657 39.5726 41.7282 39.353 42.1586C39.225 42.4104 39.056 42.5942 38.8846 42.7111C38.7124 42.8287 38.5411 42.878 38.4004 42.8777C38.3104 42.8773 38.2315 42.8594 38.1564 42.8229C38.0452 42.7673 37.9305 42.6687 37.8279 42.4626C37.7267 42.258 37.6477 41.9442 37.648 41.5054C37.648 40.429 37.648 39.1897 37.648 38.2193C37.648 37.2492 37.648 36.5499 37.648 36.5481H36.5056C36.5056 36.5481 36.5056 38.1093 36.5056 39.7962C36.3582 39.9562 35.9339 40.4074 35.4344 40.8506C35.159 41.095 34.8611 41.3358 34.5865 41.5185C34.3148 41.7026 34.0573 41.8207 33.9275 41.8429C33.4072 41.9471 32.9911 41.98 32.6715 41.98C32.3516 41.98 32.1285 41.9471 31.9939 41.9186C31.9264 41.9043 31.8812 41.8908 31.857 41.8831L31.8365 41.8758L31.6139 41.7783L31.3914 41.8758C31.3798 41.8802 31.116 41.9796 30.5565 41.98C30.2369 41.98 29.8205 41.9471 29.3004 41.8429C29.1616 41.8195 28.8793 41.6858 28.5862 41.4812C28.1409 41.1769 27.65 40.7337 27.2811 40.3713C27.0963 40.19 26.9404 40.0285 26.8319 39.9134C26.7858 39.8645 26.7502 39.8261 26.7224 39.7958C26.7224 39.2393 26.7224 38.6968 26.7224 38.2192C26.7224 37.2492 26.7224 36.5499 26.7224 36.548H25.5799C25.5799 36.548 25.5799 39.3526 25.5799 41.5053C25.5805 42.0921 25.4395 42.4498 25.294 42.6354C25.2205 42.7297 25.1465 42.7859 25.0716 42.8228C24.9965 42.8593 24.9176 42.8773 24.8276 42.8777C24.6869 42.878 24.5156 42.8287 24.3434 42.7111C24.172 42.5941 24.003 42.4103 23.875 42.1586C23.7278 41.8696 23.4864 41.4392 23.2005 40.9094C22.7724 40.1176 22.2492 39.1129 21.8384 38.1301C21.6331 37.6394 21.4563 37.1542 21.3332 36.7099C21.2093 36.2667 21.1419 35.863 21.1426 35.5503C21.1389 35.0665 21.3429 34.4005 21.6822 33.7066C22.1872 32.6624 22.9718 31.5528 23.6274 30.7165C23.9552 30.2982 24.2507 29.9463 24.4634 29.7004C24.5698 29.5776 24.6553 29.4809 24.7139 29.4158L24.7806 29.3416L24.8022 29.3182L24.8635 29.2521L24.9004 29.171H24.9005C24.9225 29.1239 25.3044 28.3544 26.25 27.6094C27.1983 26.8648 28.6996 26.1252 31.0685 26.1224C31.2372 26.1224 31.4103 26.1264 31.588 26.134L31.6139 25.5736L31.64 26.1341C31.8177 26.1264 31.9908 26.1224 32.1595 26.1224C34.6046 26.1257 36.126 26.9131 37.0677 27.6818C37.5372 28.0669 37.858 28.4512 38.0586 28.734C38.159 28.8751 38.2291 28.9909 38.2728 29.068C38.2946 29.1067 38.3096 29.1356 38.3186 29.1531L38.3275 29.171H38.3277L38.3645 29.2521L38.4259 29.3183L38.435 29.3281C38.5367 29.4388 39.4733 30.471 40.3711 31.7549C40.8199 32.3958 41.2586 33.1002 41.5771 33.7717C41.898 34.4418 42.0888 35.0819 42.0855 35.5503C42.0872 35.9679 41.964 36.5441 41.7548 37.1666Z" fill="#333333"/>
<path d="M17.5006 23.5313C17.3199 23.1335 17.0826 22.7629 16.7539 22.4762C16.428 22.1893 15.9934 21.9975 15.5061 22.0001C15.2574 21.9998 15.0226 22.0522 14.8149 22.1425C14.4498 22.3014 14.1742 22.5653 13.963 22.8481C13.6467 23.2742 13.4595 23.7552 13.3406 24.1347C13.3089 24.2369 13.2826 24.331 13.2606 24.4158H12.3895H11.6104H10.7391C10.6753 24.1666 10.5708 23.8288 10.4074 23.4771C10.2488 23.1404 10.037 22.7889 9.72808 22.5017C9.57373 22.3588 9.39336 22.2326 9.18511 22.1425C8.97736 22.0522 8.74234 21.9998 8.49388 22C8.00937 21.9975 7.57599 22.184 7.24907 22.4661C6.75599 22.8917 6.46277 23.4976 6.27073 24.1243C6.08122 24.7535 6.00051 25.4119 6 25.9741C6 26.8313 6 30.1819 6 31.4287C6.00024 31.9059 6.07441 32.4989 6.25832 33.1345C6.5346 34.0853 7.06138 35.1358 7.9874 35.9591C8.91113 36.7834 10.2367 37.3537 11.9999 37.3506C13.1756 37.3511 14.1566 37.1014 14.9538 36.6867C16.152 36.0648 16.9189 35.0847 17.3764 34.1063C17.8351 33.1238 17.9987 32.1429 18 31.4287C18 30.1819 18 26.8312 18 25.974C17.9977 25.2487 17.8583 24.3292 17.5006 23.5313ZM17.0649 31.4287C17.0651 31.8085 17.0029 32.3259 16.8435 32.8739C16.6047 33.6982 16.1508 34.5873 15.392 35.2595C14.6312 35.931 13.5678 36.4125 11.9999 36.4155C10.9547 36.415 10.1339 36.1974 9.47737 35.8571C8.49493 35.3465 7.86468 34.5478 7.47024 33.7093C7.21522 33.1679 7.06645 32.6112 6.99332 32.13C7.37004 32.13 8.02688 32.13 8.92936 32.13C10.4117 32.13 11.4 30.7033 11.4 29.5503C11.4 28.6636 11.4 26.3655 11.4 25.3506H11.6105H12.3896H14.0346L14.0979 24.958C14.0986 24.9455 14.1995 24.3722 14.4515 23.8483C14.5758 23.5864 14.7372 23.341 14.9153 23.1806C15.0046 23.0996 15.0962 23.0389 15.1911 22.9984C15.287 22.9579 15.3867 22.9354 15.5061 22.9352C15.7591 22.9377 15.9478 23.0181 16.1409 23.1824C16.4273 23.4257 16.6778 23.8895 16.8339 24.4175C16.993 24.9428 17.0656 25.5247 17.0649 25.974C17.0649 26.8313 17.0649 30.1819 17.0649 31.4287Z" fill="#333333"/>
<path d="M11.9221 32.5195C11.2337 32.5195 10.6755 32.9385 10.6755 33.4547C10.6755 33.9711 11.2337 34.3898 11.9221 34.3898C12.6108 34.3898 13.169 33.9711 13.169 33.4547C13.169 32.9385 12.6109 32.5195 11.9221 32.5195Z" fill="#333333"/>
<path d="M14.3379 30.2602C14.7683 30.2602 15.1172 29.9113 15.1172 29.4809C15.1172 29.0506 14.7683 28.7017 14.3379 28.7017C13.9075 28.7017 13.5586 29.0506 13.5586 29.4809C13.5586 29.9113 13.9075 30.2602 14.3379 30.2602Z" fill="#333333"/>
<path d="M9.21581 30.2602C9.6462 30.2602 9.99509 29.9113 9.99509 29.4809C9.99509 29.0506 9.6462 28.7017 9.21581 28.7017C8.78542 28.7017 8.43652 29.0506 8.43652 29.4809C8.43652 29.9113 8.78542 30.2602 9.21581 30.2602Z" fill="white"/>
<path d="M15.4803 24.1299C14.9612 24.1299 14.8569 25.2209 14.8569 25.2209H16C16 25.2208 15.9995 24.1299 15.4803 24.1299Z" fill="#333333"/>
<path fill-rule="evenodd" clip-rule="evenodd" d="M19.1292 7.63777C18.5201 9.79027 18.2373 11.8775 18.1266 13.5354C18.013 15.2381 18.0856 16.4113 18.1423 16.7201C18.1948 17.0054 18.5922 18.2042 19.6998 19.2724C20.7662 20.3008 22.542 21.259 25.4745 21.0779C28.6099 20.8843 30.1521 20.2887 31.0256 19.5793C31.8939 18.8742 32.2534 17.9499 32.7555 16.5609C32.8635 16.2622 32.9334 15.7633 32.9333 15.0602C32.9332 14.376 32.8678 13.5743 32.7561 12.7149C32.535 11.0128 32.1423 9.15627 31.7757 7.6752L30.11 8.89712C29.6121 9.26237 28.9901 9.36665 28.4209 9.22898C27.6696 9.04723 26.4874 8.81252 25.4844 8.76046C24.5592 8.71244 23.3806 8.95735 22.5934 9.18237C22.0035 9.35096 21.333 9.26533 20.7967 8.86929L19.1292 7.63777ZM19.6899 6.80869L21.3908 8.06488C21.6565 8.26108 22.001 8.31164 22.3185 8.22087C23.1389 7.98638 24.4444 7.70514 25.5362 7.7618C26.6294 7.81854 27.8806 8.06943 28.6561 8.25701C28.9544 8.32918 29.271 8.27238 29.5185 8.09081L31.2055 6.8533C31.7684 6.44039 32.5679 6.71601 32.7362 7.3935C33.486 10.4124 34.3642 15.0524 33.6959 16.9009C32.7168 19.6096 31.9552 21.6796 25.5362 22.076C19.1172 22.4724 17.3329 17.8478 17.1588 16.9009C16.9999 16.0365 16.8954 11.8138 18.186 7.29857C18.3715 6.64964 19.147 6.40773 19.6899 6.80869Z" fill="#333333"/>
<path fill-rule="evenodd" clip-rule="evenodd" d="M14.2814 12.7792C14.3484 12.5113 14.6198 12.3485 14.8877 12.4154L21.0211 13.9488C21.289 14.0157 21.4519 14.2872 21.3849 14.5551C21.3179 14.823 21.0464 14.9859 20.7785 14.9189L14.6452 13.3856C14.3773 13.3186 14.2144 13.0471 14.2814 12.7792Z" fill="#333333"/>
<path fill-rule="evenodd" clip-rule="evenodd" d="M37.4852 12.7792C37.4182 12.5113 37.1468 12.3485 36.8789 12.4154L30.7455 13.9488C30.4776 14.0157 30.3147 14.2872 30.3817 14.5551C30.4487 14.823 30.7202 14.9859 30.9881 14.9189L37.1214 13.3856C37.3893 13.3186 37.5522 13.0471 37.4852 12.7792Z" fill="#333333"/>
<path fill-rule="evenodd" clip-rule="evenodd" d="M21.397 16.6782C21.4275 16.9527 21.2297 17.1999 20.9553 17.2304L14.0553 17.9971C13.7808 18.0275 13.5336 17.8298 13.5031 17.5553C13.4726 17.2809 13.6704 17.0337 13.9448 17.0032L20.8448 16.2365C21.1193 16.206 21.3665 16.4038 21.397 16.6782Z" fill="#333333"/>
<path fill-rule="evenodd" clip-rule="evenodd" d="M30.3707 16.6714C30.3365 16.9454 30.5308 17.1953 30.8048 17.2296L36.9382 17.9963C37.2122 18.0305 37.4621 17.8361 37.4963 17.5621C37.5306 17.2881 37.3362 17.0382 37.0622 17.004L30.9289 16.2373C30.6549 16.2031 30.405 16.3974 30.3707 16.6714Z" fill="#333333"/>
<path d="M27.0335 15.9666C27.0335 15.5834 23.9668 15.5834 23.9668 15.9666C23.9668 16.3497 24.6612 17.5059 25.511 17.4999C26.3548 17.4939 27.0335 16.3498 27.0335 15.9666Z" fill="#333333"/>
<path d="M23.2001 13.6671C23.2001 14.0905 22.8568 14.4337 22.4334 14.4337C22.01 14.4337 21.6667 14.0905 21.6667 13.6671C21.6667 13.2436 22.01 12.9004 22.4334 12.9004C22.8568 12.9004 23.2001 13.2436 23.2001 13.6671Z" fill="#26DFB3"/>
<path d="M29.3339 13.6671C29.3339 14.0905 28.9906 14.4337 28.5672 14.4337C28.1438 14.4337 27.8005 14.0905 27.8005 13.6671C27.8005 13.2436 28.1438 12.9004 28.5672 12.9004C28.9906 12.9004 29.3339 13.2436 29.3339 13.6671Z" fill="#26DFB3"/>
<path d="M38.3333 9.33333V8.66667C38.3333 8.29848 38.6318 8 39 8C39.3682 8 39.6667 8.29848 39.6667 8.66667V9.33333H40.3333C40.7015 9.33333 41 9.63181 41 10C41 10.3682 40.7015 10.6667 40.3333 10.6667H39.6667V11.3333C39.6667 11.7015 39.3682 12 39 12C38.6318 12 38.3333 11.7015 38.3333 11.3333V10.6667H37.6667C37.2985 10.6667 37 10.3682 37 10C37 9.63181 37.2985 9.33333 37.6667 9.33333H38.3333Z" fill="#DDFFF5"/>
<path d="M9.66667 16.6667V15.8333C9.66667 15.3731 10.0398 15 10.5 15C10.9602 15 11.3333 15.3731 11.3333 15.8333V16.6667H12.1667C12.6269 16.6667 13 17.0398 13 17.5C13 17.9602 12.6269 18.3333 12.1667 18.3333H11.3333V19.1667C11.3333 19.6269 10.9602 20 10.5 20C10.0398 20 9.66667 19.6269 9.66667 19.1667V18.3333H8.83333C8.3731 18.3333 8 17.9602 8 17.5C8 17.0398 8.3731 16.6667 8.83333 16.6667H9.66667Z" fill="#DDFFF5"/>
</svg>
