<svg width="50" height="50" viewBox="0 0 50 50" fill="none" xmlns="http://www.w3.org/2000/svg">
<rect width="50" height="50" fill="white"/>
<path d="M29.5572 8.99808C29.5914 8.44686 30.066 8.02773 30.6172 8.06193L35.6487 8.37415C36.1999 8.40836 36.6191 8.88294 36.5849 9.43417L36.0894 17.4188C36.0552 17.97 35.5806 18.3892 35.0294 18.355L29.9979 18.0427C29.4467 18.0085 29.0275 17.5339 29.0617 16.9827L29.5572 8.99808Z" fill="#26DFB3"/>
<path d="M14.4364 12.1366C14.1954 11.6396 14.4028 11.0414 14.8997 10.8004L23.8972 6.43627C24.3941 6.19525 24.9923 6.40269 25.2334 6.89961L28.7247 14.0976C28.9657 14.5945 28.7583 15.1927 28.2613 15.4337L19.2639 19.7979C18.767 20.0389 18.1687 19.8315 17.9277 19.3345L14.4364 12.1366Z" fill="#26DFB3"/>
<path d="M15 15H38V22H15V15Z" fill="white"/>
<path fill-rule="evenodd" clip-rule="evenodd" d="M10.0088 10.1536C8.96265 9.71263 7.82772 9.69372 7.12439 9.81189C6.7159 9.88053 6.32912 9.60502 6.26049 9.19653C6.19185 8.78804 6.46736 8.40126 6.87585 8.33263C7.80215 8.17699 9.23388 8.19916 10.5914 8.7713C11.9822 9.35746 13.2796 10.5189 13.8352 12.5727C13.974 13.0859 14.1534 13.7342 14.3631 14.4827H37.5026C39.2638 14.4827 40.571 16.1152 40.1861 17.8338L38.1677 26.8447C37.9277 27.916 37.0736 28.7419 35.9949 28.9458L17.8705 32.3716C17.86 32.3736 17.8529 32.3754 17.8488 32.3765C17.4348 32.6316 16.7131 33.3516 16.7131 34.5357C16.7131 35.0547 16.9498 35.4258 17.3018 35.7102C17.6715 36.0089 18.1411 36.1829 18.4713 36.2491C18.4727 36.2493 18.4788 36.2499 18.4909 36.2499H36.7409C37.1551 36.2499 37.4909 36.5857 37.4909 36.9999C37.4909 37.4142 37.1551 37.7499 36.7409 37.7499H18.4909C18.3982 37.7499 18.292 37.743 18.1786 37.7203L18.3256 36.9848L18.1786 37.7203C17.6718 37.619 16.9609 37.3632 16.3591 36.8769C15.739 36.376 15.2131 35.6062 15.2131 34.5357C15.2131 32.6758 16.3565 31.5267 17.0814 31.0876C17.2354 30.9943 17.3913 30.9419 17.5274 30.9111C16.3693 26.9377 14.3044 19.8124 13.0727 15.4359C12.796 14.4526 12.5608 13.6061 12.3873 12.9645C11.9651 11.4041 11.0218 10.5805 10.0088 10.1536ZM19.0079 30.63L35.7163 27.4719C36.2067 27.3792 36.5949 27.0038 36.7039 26.5168L38.7223 17.5059C38.8973 16.7247 38.3031 15.9827 37.5026 15.9827H14.7857C16.0456 20.4331 17.9375 26.9584 19.0079 30.63Z" fill="#333333"/>
<path fill-rule="evenodd" clip-rule="evenodd" d="M19.5 42.5C20.0523 42.5 20.5 42.0523 20.5 41.5C20.5 40.9477 20.0523 40.5 19.5 40.5C18.9477 40.5 18.5 40.9477 18.5 41.5C18.5 42.0523 18.9477 42.5 19.5 42.5ZM19.5 44C20.8807 44 22 42.8807 22 41.5C22 40.1193 20.8807 39 19.5 39C18.1193 39 17 40.1193 17 41.5C17 42.8807 18.1193 44 19.5 44Z" fill="#333333"/>
<path fill-rule="evenodd" clip-rule="evenodd" d="M33.5 42.5C34.0523 42.5 34.5 42.0523 34.5 41.5C34.5 40.9477 34.0523 40.5 33.5 40.5C32.9477 40.5 32.5 40.9477 32.5 41.5C32.5 42.0523 32.9477 42.5 33.5 42.5ZM33.5 44C34.8807 44 36 42.8807 36 41.5C36 40.1193 34.8807 39 33.5 39C32.1193 39 31 40.1193 31 41.5C31 42.8807 32.1193 44 33.5 44Z" fill="#333333"/>
<path d="M40.3333 5.33333V4.66667C40.3333 4.29848 40.6318 4 41 4C41.3682 4 41.6667 4.29848 41.6667 4.66667V5.33333H42.3333C42.7015 5.33333 43 5.63181 43 6C43 6.36819 42.7015 6.66667 42.3333 6.66667H41.6667V7.33333C41.6667 7.70152 41.3682 8 41 8C40.6318 8 40.3333 7.70152 40.3333 7.33333V6.66667H39.6667C39.2985 6.66667 39 6.36819 39 6C39 5.63181 39.2985 5.33333 39.6667 5.33333H40.3333Z" fill="#DDFFF5"/>
<path d="M6.66667 21.6667V20.8333C6.66667 20.3731 7.03976 20 7.5 20C7.96024 20 8.33333 20.3731 8.33333 20.8333V21.6667H9.16667C9.6269 21.6667 10 22.0398 10 22.5C10 22.9602 9.6269 23.3333 9.16667 23.3333H8.33333V24.1667C8.33333 24.6269 7.96024 25 7.5 25C7.03976 25 6.66667 24.6269 6.66667 24.1667V23.3333H5.83333C5.3731 23.3333 5 22.9602 5 22.5C5 22.0398 5.3731 21.6667 5.83333 21.6667H6.66667Z" fill="#DDFFF5"/>
</svg>
