<svg width="50" height="50" viewBox="0 0 50 50" fill="none" xmlns="http://www.w3.org/2000/svg">
<rect width="50" height="50" fill="white"/>
<path d="M13 22C13 21.4477 13.4477 21 14 21H24C24.5523 21 25 21.4477 25 22V30C25 30.5523 24.5523 31 24 31H14C13.4477 31 13 30.5523 13 30V22Z" fill="#26DFB3"/>
<path fill-rule="evenodd" clip-rule="evenodd" d="M13.4615 8.75C11.4328 8.75 9.59612 10.7171 9.59612 13.4V19.9178C11.8514 20.332 13.4423 22.5858 13.4423 25.1V30.65H36.5577V25.1C36.5577 22.5858 38.1485 20.332 40.4038 19.9178V13.4C40.4038 10.7171 38.5671 8.75 36.5384 8.75H13.4615ZM41.9038 19.9178V13.4C41.9038 10.1182 39.6078 7.25 36.5384 7.25H13.4615C10.3922 7.25 8.09612 10.1182 8.09612 13.4V19.9178C5.84081 20.332 4.25 22.5858 4.25 25.1V40.4C4.25 40.8142 4.58579 41.15 5 41.15L11.9423 41.15V44C11.9423 44.4142 12.2781 44.75 12.6923 44.75C13.1065 44.75 13.4423 44.4142 13.4423 44V41.15H36.5577V44C36.5577 44.4142 36.8935 44.75 37.3077 44.75C37.7219 44.75 38.0577 44.4142 38.0577 44V41.15L45 41.15C45.4142 41.15 45.75 40.8142 45.75 40.4V25.1C45.75 22.5858 44.1591 20.332 41.9038 19.9178ZM8.84612 21.35C7.2423 21.35 5.75 22.9142 5.75 25.1V39.65H44.25V25.1C44.25 22.9142 42.7576 21.35 41.1538 21.35C39.55 21.35 38.0577 22.9142 38.0577 25.1V31.4C38.0577 31.8142 37.7219 32.15 37.3077 32.15H12.6923C12.2781 32.15 11.9423 31.8142 11.9423 31.4V25.1C11.9423 22.9142 10.45 21.35 8.84612 21.35Z" fill="#333333"/>
<path d="M41.3333 5.33333V4.66667C41.3333 4.29848 41.6318 4 42 4C42.3682 4 42.6667 4.29848 42.6667 4.66667V5.33333H43.3333C43.7015 5.33333 44 5.63181 44 6C44 6.36819 43.7015 6.66667 43.3333 6.66667H42.6667V7.33333C42.6667 7.70152 42.3682 8 42 8C41.6318 8 41.3333 7.70152 41.3333 7.33333V6.66667H40.6667C40.2985 6.66667 40 6.36819 40 6C40 5.63181 40.2985 5.33333 40.6667 5.33333H41.3333Z" fill="#DDFFF5"/>
<path d="M3.66667 16.6667V15.8333C3.66667 15.3731 4.03976 15 4.5 15C4.96024 15 5.33333 15.3731 5.33333 15.8333V16.6667H6.16667C6.6269 16.6667 7 17.0398 7 17.5C7 17.9602 6.6269 18.3333 6.16667 18.3333H5.33333V19.1667C5.33333 19.6269 4.96024 20 4.5 20C4.03976 20 3.66667 19.6269 3.66667 19.1667V18.3333H2.83333C2.3731 18.3333 2 17.9602 2 17.5C2 17.0398 2.3731 16.6667 2.83333 16.6667H3.66667Z" fill="#DDFFF5"/>
</svg>
