<svg width="50" height="50" viewBox="0 0 50 50" fill="none" xmlns="http://www.w3.org/2000/svg">
<rect width="50" height="50" fill="white"/>
<path d="M12.4299 17.6812C12.0207 17.7452 11.7408 18.1288 11.8047 18.538C11.8687 18.9473 12.2523 19.2272 12.6616 19.1632L12.4299 17.6812ZM17.5907 18.3928C17.9999 18.3288 18.2798 17.9452 18.2159 17.536C18.1519 17.1267 17.7683 16.8468 17.3591 16.9108L17.5907 18.3928ZM13.204 38.2643L13.3198 39.0053L13.204 38.2643ZM10.3491 36.2174L9.60853 36.3362L10.3491 36.2174ZM32.5302 32.7505L31.7896 32.8693L32.5302 32.7505ZM30.4559 35.5678L30.3401 34.8268L30.4559 35.5678ZM26.3573 10.0307L26.2415 9.28967L26.3573 10.0307ZM29.2122 12.0776L29.9527 11.9587L29.2122 12.0776ZM9.1053 12.7271L9.22112 13.4681L9.1053 12.7271ZM7.03109 15.5444L7.77161 15.4256L7.03109 15.5444ZM35.25 18.607V39.5376H36.75V18.607H35.25ZM33.5047 41.25H16.0377V42.75H33.5047V41.25ZM16.0377 41.25C15.0644 41.25 14.2924 40.474 14.2924 39.5376H12.7924C12.7924 41.3211 14.2548 42.75 16.0377 42.75V41.25ZM35.25 39.5376C35.25 40.474 34.478 41.25 33.5047 41.25V42.75C35.2876 42.75 36.75 41.3211 36.75 39.5376H35.25ZM33.5047 16.8945C34.478 16.8945 35.25 17.6706 35.25 18.607H36.75C36.75 16.8235 35.2876 15.3945 33.5047 15.3945V16.8945ZM14.2924 39.5376V38H12.7924V39.5376H14.2924ZM33.5047 15.3945H29.7618V16.8945H33.5047V15.3945ZM12.6616 19.1632L17.5907 18.3928L17.3591 16.9108L12.4299 17.6812L12.6616 19.1632ZM9.22112 13.4681L26.4731 10.7717L26.2415 9.28967L8.98949 11.9861L9.22112 13.4681ZM28.4717 12.1964L31.7896 32.8693L33.2707 32.6316L29.9527 11.9587L28.4717 12.1964ZM11.0896 36.0985L7.77161 15.4256L6.29056 15.6633L9.60853 36.3362L11.0896 36.0985ZM13.0882 37.5233C12.1263 37.6736 11.2383 37.0252 11.0896 36.0985L9.60853 36.3362C9.89096 38.096 11.5594 39.2804 13.3198 39.0053L13.0882 37.5233ZM31.7896 32.8693C31.938 33.7936 31.2997 34.6768 30.3401 34.8268L30.5718 36.3088C32.3344 36.0333 33.5535 34.3939 33.2707 32.6316L31.7896 32.8693ZM26.4731 10.7717C27.435 10.6213 28.3229 11.2697 28.4717 12.1964L29.9527 11.9587C29.6703 10.199 28.0019 9.01452 26.2415 9.28967L26.4731 10.7717ZM8.98949 11.9861C7.2268 12.2616 6.00773 13.9011 6.29056 15.6633L7.77161 15.4256C7.62327 14.5014 8.26152 13.6181 9.22112 13.4681L8.98949 11.9861ZM30.3401 34.8268L21.7141 36.175L21.9458 37.657L30.5718 36.3088L30.3401 34.8268ZM21.7141 36.175L13.0882 37.5233L13.3198 39.0053L21.9458 37.657L21.7141 36.175Z" fill="#333333"/>
<path d="M10.8842 21.185C10.4749 21.249 10.195 21.6326 10.259 22.0419C10.323 22.4511 10.7066 22.731 11.1158 22.667L10.8842 21.185ZM23.4387 20.741C23.8479 20.677 24.1278 20.2934 24.0638 19.8842C23.9999 19.4749 23.6163 19.195 23.207 19.259L23.4387 20.741ZM11.1158 22.667L23.4387 20.741L23.207 19.259L10.8842 21.185L11.1158 22.667Z" fill="#333333"/>
<path d="M11.8842 26.185C11.4749 26.249 11.195 26.6326 11.259 27.0419C11.323 27.4511 11.7066 27.731 12.1158 27.667L11.8842 26.185ZM24.4387 25.741C24.8479 25.677 25.1278 25.2934 25.0638 24.8842C24.9999 24.4749 24.6163 24.195 24.207 24.259L24.4387 25.741ZM12.1158 27.667L24.4387 25.741L24.207 24.259L11.8842 26.185L12.1158 27.667Z" fill="#333333"/>
<path d="M11.3842 23.7998C10.9749 23.8638 10.695 24.2474 10.759 24.6567C10.823 25.0659 11.2066 25.3458 11.6158 25.2818L11.3842 23.7998ZM21.4741 23.741C21.8833 23.677 22.1632 23.2934 22.0993 22.8842C22.0353 22.4749 21.6517 22.195 21.2425 22.259L21.4741 23.741ZM11.6158 25.2818L21.4741 23.741L21.2425 22.259L11.3842 23.7998L11.6158 25.2818Z" fill="#333333"/>
<path d="M12.8842 30.7998C12.4749 30.8638 12.195 31.2474 12.259 31.6567C12.323 32.0659 12.7066 32.3458 13.1158 32.2818L12.8842 30.7998ZM22.9741 30.741C23.3833 30.677 23.6632 30.2934 23.5993 29.8842C23.5353 29.4749 23.1517 29.195 22.7425 29.259L22.9741 30.741ZM13.1158 32.2818L22.9741 30.741L22.7425 29.259L12.8842 30.7998L13.1158 32.2818Z" fill="#333333"/>
<path d="M19.8842 32.7998C19.4749 32.8638 19.195 33.2474 19.259 33.6567C19.323 34.0659 19.7066 34.3458 20.1158 34.2818L19.8842 32.7998ZM29.9741 32.741C30.3833 32.677 30.6632 32.2934 30.5993 31.8842C30.5353 31.4749 30.1517 31.195 29.7425 31.259L29.9741 32.741ZM20.1158 34.2818L29.9741 32.741L29.7425 31.259L19.8842 32.7998L20.1158 34.2818Z" fill="#333333"/>
<path d="M47.1037 20.6195C47.1036 20.6196 47.1035 20.6197 47.1034 20.6198L36.4858 31.2374C36.1576 31.5656 35.7125 31.75 35.2483 31.75H32C31.0335 31.75 30.25 30.9665 30.25 30V26.7517C30.25 26.2875 30.4344 25.8424 30.7626 25.5142L41.3802 14.8966C41.7937 14.4826 42.3549 14.25 42.94 14.25C43.5251 14.25 44.0861 14.4825 44.4996 14.8963L47.1037 20.6195ZM47.1037 20.6195C47.5175 20.206 47.75 19.645 47.75 19.06C47.75 18.4749 47.5175 17.9139 47.1037 17.5004C47.1036 17.5003 47.1035 17.5002 47.1034 17.5001L44.4999 14.8966L47.1037 20.6195Z" fill="white" stroke="white" stroke-width="1.5"/>
<path d="M35.5 31L32.5 28L32 30L32.5 30.5L35.5 31Z" fill="#333333"/>
<path d="M42.5 16L40 18.5L40.5 19.5L42.5 22H43.5L45.5 20L46.5 19C46 18.5 45 17.4 45 17C45 16.6 44.3333 16.1667 44 16H42.5Z" fill="#26DFB3"/>
<path d="M46.0433 19.5586L46.043 19.5589L35.4251 30.1768C35.3782 30.2237 35.3146 30.25 35.2483 30.25H32C31.8619 30.25 31.75 30.1381 31.75 30V26.7517C31.75 26.6854 31.7763 26.6218 31.8232 26.5749L42.4411 15.957L42.4414 15.9567C42.5736 15.8244 42.753 15.75 42.94 15.75C43.1271 15.75 43.3065 15.8244 43.4387 15.9567L43.439 15.957L46.043 18.561L46.0433 18.5613C46.1756 18.6935 46.25 18.8729 46.25 19.06C46.25 19.247 46.1756 19.4264 46.0433 19.5586Z" stroke="#333333" stroke-width="1.5"/>
<path d="M39.5 18.5L43.5 22.5" stroke="#333333"/>
<path d="M37.3333 8.33333V7.66667C37.3333 7.29848 37.6318 7 38 7C38.3682 7 38.6667 7.29848 38.6667 7.66667V8.33333H39.3333C39.7015 8.33333 40 8.63181 40 9C40 9.36819 39.7015 9.66667 39.3333 9.66667H38.6667V10.3333C38.6667 10.7015 38.3682 11 38 11C37.6318 11 37.3333 10.7015 37.3333 10.3333V9.66667H36.6667C36.2985 9.66667 36 9.36819 36 9C36 8.63181 36.2985 8.33333 36.6667 8.33333H37.3333Z" fill="#DDFFF5"/>
<path d="M32.6667 3.66667V3.33333C32.6667 3.14924 32.8159 3 33 3C33.1841 3 33.3333 3.14924 33.3333 3.33333V3.66667H33.6667C33.8508 3.66667 34 3.81591 34 4C34 4.18409 33.8508 4.33333 33.6667 4.33333H33.3333V4.66667C33.3333 4.85076 33.1841 5 33 5C32.8159 5 32.6667 4.85076 32.6667 4.66667V4.33333H32.3333C32.1492 4.33333 32 4.18409 32 4C32 3.81591 32.1492 3.66667 32.3333 3.66667H32.6667Z" fill="#DDFFF5"/>
<path d="M4.66667 33.6667V32.8333C4.66667 32.3731 5.03976 32 5.5 32C5.96024 32 6.33333 32.3731 6.33333 32.8333V33.6667H7.16667C7.6269 33.6667 8 34.0398 8 34.5C8 34.9602 7.6269 35.3333 7.16667 35.3333H6.33333V36.1667C6.33333 36.6269 5.96024 37 5.5 37C5.03976 37 4.66667 36.6269 4.66667 36.1667V35.3333H3.83333C3.3731 35.3333 3 34.9602 3 34.5C3 34.0398 3.3731 33.6667 3.83333 33.6667H4.66667Z" fill="#DDFFF5"/>
</svg>
