<svg width="50" height="50" viewBox="0 0 50 50" fill="none" xmlns="http://www.w3.org/2000/svg">
<rect width="50" height="50" fill="white"/>
<path fill-rule="evenodd" clip-rule="evenodd" d="M23.5 25.5H9C8.17157 25.5 7.5 26.1716 7.5 27V44.5H42.5V11C42.5 10.1716 41.8284 9.5 41 9.5H25C24.1716 9.5 23.5 10.1716 23.5 11V25.5ZM22 11C22 9.34315 23.3431 8 25 8H41C42.6569 8 44 9.34315 44 11V45C44 45.5523 43.5523 46 43 46H7C6.44772 46 6 45.5523 6 45V27C6 25.3431 7.34315 24 9 24H22V11Z" fill="#333333"/>
<path fill-rule="evenodd" clip-rule="evenodd" d="M22 31.5H14C13.7239 31.5 13.5 31.7239 13.5 32V44.5H22.5V32C22.5 31.7239 22.2761 31.5 22 31.5ZM14 30C12.8954 30 12 30.8954 12 32V46H24V32C24 30.8954 23.1046 30 22 30H14Z" fill="#333333"/>
<path d="M26 12H30V17H26V12Z" fill="#26DFB3"/>
<path d="M26 18H30V23H26V18Z" fill="#26DFB3"/>
<path d="M26 24H30V29H26V24Z" fill="#26DFB3"/>
<path d="M26 30H30V35H26V30Z" fill="#26DFB3"/>
<path d="M31 12H35V17H31V12Z" fill="#26DFB3"/>
<path d="M31 18H35V23H31V18Z" fill="#26DFB3"/>
<path d="M31 24H35V29H31V24Z" fill="#26DFB3"/>
<path d="M31 30H35V35H31V30Z" fill="#26DFB3"/>
<path d="M36 12H40V17H36V12Z" fill="#26DFB3"/>
<path d="M36 18H40V23H36V18Z" fill="#26DFB3"/>
<path d="M36 24H40V29H36V24Z" fill="#26DFB3"/>
<path d="M36 30H40V35H36V30Z" fill="#26DFB3"/>
<path d="M41.3333 4.33333V3.66667C41.3333 3.29848 41.6318 3 42 3C42.3682 3 42.6667 3.29848 42.6667 3.66667V4.33333H43.3333C43.7015 4.33333 44 4.63181 44 5C44 5.36819 43.7015 5.66667 43.3333 5.66667H42.6667V6.33333C42.6667 6.70152 42.3682 7 42 7C41.6318 7 41.3333 6.70152 41.3333 6.33333V5.66667H40.6667C40.2985 5.66667 40 5.36819 40 5C40 4.63181 40.2985 4.33333 40.6667 4.33333H41.3333Z" fill="#DDFFF5"/>
<path d="M9.66667 19.6667V18.8333C9.66667 18.3731 10.0398 18 10.5 18C10.9602 18 11.3333 18.3731 11.3333 18.8333V19.6667H12.1667C12.6269 19.6667 13 20.0398 13 20.5C13 20.9602 12.6269 21.3333 12.1667 21.3333H11.3333V22.1667C11.3333 22.6269 10.9602 23 10.5 23C10.0398 23 9.66667 22.6269 9.66667 22.1667V21.3333H8.83333C8.3731 21.3333 8 20.9602 8 20.5C8 20.0398 8.3731 19.6667 8.83333 19.6667H9.66667Z" fill="#DDFFF5"/>
<path d="M15 16V15.5C15 15.2239 15.2239 15 15.5 15C15.7761 15 16 15.2239 16 15.5V16H16.5C16.7761 16 17 16.2239 17 16.5C17 16.7761 16.7761 17 16.5 17H16V17.5C16 17.7761 15.7761 18 15.5 18C15.2239 18 15 17.7761 15 17.5V17H14.5C14.2239 17 14 16.7761 14 16.5C14 16.2239 14.2239 16 14.5 16H15Z" fill="#DDFFF5"/>
</svg>
