<svg width="50" height="50" viewBox="0 0 50 50" fill="none" xmlns="http://www.w3.org/2000/svg">
<rect width="50" height="50" fill="white"/>
<path fill-rule="evenodd" clip-rule="evenodd" d="M21.6279 21.7202C20.7648 22.5856 20.2357 23.7686 20.2349 25.0839C20.2357 26.3994 20.7648 27.5823 21.628 28.4478C22.4934 29.3108 23.6763 29.8399 24.9916 29.8407C26.3071 29.8399 27.4899 29.3107 28.3554 28.4477C29.2184 27.5822 29.7476 26.3993 29.7484 25.0839C29.7476 23.7685 29.2185 22.5857 28.3555 21.7202C27.49 20.8571 26.3071 20.328 24.9916 20.3271C23.6762 20.328 22.4933 20.8571 21.6279 21.7202ZM24.9916 19.3271C23.3998 19.328 21.9657 19.9705 20.9208 21.013C19.8782 22.058 19.2357 23.4922 19.2349 25.0839C19.2357 26.6758 19.8782 28.1098 20.9208 29.1548C21.9657 30.1973 23.3999 30.8399 24.9916 30.8407C26.5835 30.8399 28.0175 30.1973 29.0625 29.1548C30.1051 28.1098 30.7476 26.6757 30.7484 25.0839C30.7476 23.4921 30.1051 22.058 29.0625 21.013C28.0175 19.9705 26.5834 19.328 24.9916 19.3271Z" fill="#26DFB3"/>
<path fill-rule="evenodd" clip-rule="evenodd" d="M24.9913 14.1675C18.9631 14.1675 14.0752 19.0553 14.0752 25.0836C14.0752 31.1119 18.963 35.9998 24.9913 35.9998C31.0204 35.9998 35.9075 31.112 35.9075 25.0836C35.9075 19.0553 31.0204 14.1675 24.9913 14.1675ZM13.0752 25.0836C13.0752 18.5031 18.4108 13.1675 24.9913 13.1675C31.5727 13.1675 36.9075 18.5031 36.9075 25.0836C36.9075 31.6642 31.5727 36.9998 24.9913 36.9998C18.4107 36.9998 13.0752 31.6642 13.0752 25.0836Z" fill="#26DFB3"/>
<path fill-rule="evenodd" clip-rule="evenodd" d="M5.84094 26.5287L5.84049 26.5346L5.83698 26.5856C5.83404 26.6311 5.83022 26.6975 5.82695 26.7777C5.82036 26.9394 5.81652 27.1454 5.82474 27.3442H7.81479V35.248C7.81479 35.4402 7.97196 35.5974 8.16415 35.5974H9.20994C9.40213 35.5974 9.55931 35.4402 9.55931 35.248V15.6443C9.55931 15.4831 9.52765 15.3967 9.50722 15.3575C9.49442 15.3604 9.47715 15.3654 9.45457 15.3737C9.30533 15.4284 9.00262 15.6189 8.63481 16.1488C8.27335 16.6697 7.8866 17.4665 7.55073 18.6234C6.84055 21.0699 6.41168 23.0602 6.16093 24.4333C6.03557 25.1198 5.95477 25.6518 5.90561 26.009C5.88103 26.1876 5.86437 26.3226 5.854 26.4113C5.84881 26.4556 5.8452 26.4884 5.84297 26.5093L5.84094 26.5287ZM9.53794 15.354C9.53776 15.3542 9.53537 15.3544 9.5313 15.3536C9.53609 15.3533 9.53812 15.3537 9.53794 15.354ZM4.84487 26.4394C4.84487 26.4394 5.14925 23.3091 6.59038 18.3446C8.01907 13.4234 10.5594 13.7395 10.5593 15.6443V35.248C10.5593 35.9925 9.95442 36.5974 9.20994 36.5974H8.16415C7.41968 36.5974 6.81479 35.9925 6.81479 35.248V28.3442H5.16339C4.68799 28.3442 4.84487 26.4394 4.84487 26.4394Z" fill="#333333"/>
<path fill-rule="evenodd" clip-rule="evenodd" d="M37.9075 15.7248C37.9075 14.8203 38.6413 14.0864 39.5458 14.0864H39.5489C39.7292 14.0864 39.9132 14.1233 40.0784 14.2242C40.2466 14.327 40.3551 14.4716 40.4223 14.6184C40.542 14.8797 40.5471 15.1915 40.5471 15.4063V19.8616C40.5471 20.0109 40.6681 20.132 40.8175 20.132C40.9668 20.132 41.0879 20.0109 41.0879 19.8616V15.4063C41.0879 14.6774 41.6789 14.0864 42.4077 14.0864C43.1366 14.0864 43.7276 14.6774 43.7276 15.4063V19.9757C43.7276 20.062 43.7975 20.132 43.8838 20.132C43.9701 20.132 44.0401 20.062 44.0401 19.9757V15.4063C44.0401 15.1915 44.0452 14.8797 44.1649 14.6184C44.2321 14.4716 44.3406 14.327 44.5088 14.2242C44.674 14.1233 44.858 14.0864 45.0383 14.0864H45.0414C45.9459 14.0864 46.6798 14.8202 46.6797 15.7248C46.6797 15.7248 46.6797 15.7248 46.6797 15.7248V20.632C46.6797 21.7261 46.5377 22.4699 46.2938 23.0295C46.0465 23.597 45.7103 23.9337 45.4287 24.2154C45.3358 24.3083 45.2556 24.3867 45.1855 24.4552C45.0019 24.6348 44.8885 24.7457 44.8018 24.8674C44.7171 24.9863 44.6659 25.1079 44.6659 25.3682V35.2477C44.6659 36.2683 43.8371 37.097 42.8165 37.097H41.7707C40.7502 37.097 39.9213 36.2683 39.9213 35.2477V28.3438H40.4213H40.9213V35.2477C40.9213 35.716 41.3024 36.097 41.7707 36.097H42.8165C43.2848 36.097 43.6659 35.716 43.6659 35.2477V25.3682C43.6659 24.9254 43.768 24.5952 43.9873 24.2873C44.1303 24.0865 44.3334 23.8884 44.5416 23.6853C44.6016 23.6268 44.662 23.5678 44.7216 23.5083C44.9946 23.2353 45.2107 23.0116 45.3771 22.63C45.5468 22.2405 45.6797 21.6467 45.6797 20.632V15.7248C45.6798 15.3787 45.4036 15.0964 45.0597 15.0867C45.0567 15.102 45.0537 15.1211 45.051 15.1446C45.043 15.2137 45.0401 15.2987 45.0401 15.4063V19.9757C45.0401 20.6143 44.5224 21.132 43.8838 21.132C43.2453 21.132 42.7276 20.6143 42.7276 19.9757V15.4063C42.7276 15.2297 42.5843 15.0864 42.4077 15.0864C42.2312 15.0864 42.0879 15.2297 42.0879 15.4063V19.8616C42.0879 20.5632 41.5191 21.132 40.8175 21.132C40.1159 21.132 39.5471 20.5632 39.5471 19.8616V15.4063C39.5471 15.2987 39.5442 15.2137 39.5362 15.1446C39.5335 15.1211 39.5305 15.102 39.5275 15.0867C39.1837 15.0964 38.9075 15.3787 38.9075 15.7248V20.632C38.9075 21.6467 39.0404 22.2405 39.2101 22.63C39.3765 23.0116 39.5926 23.2353 39.8656 23.5083C39.9252 23.5678 39.9856 23.6268 40.0456 23.6853C40.2538 23.8884 40.4569 24.0865 40.5999 24.2873C40.8192 24.5952 40.9213 24.9254 40.9213 25.3682V28.3438H40.4213H39.9213V25.3682C39.9213 25.1079 39.8701 24.9863 39.7854 24.8674C39.6987 24.7457 39.5853 24.6348 39.4017 24.4552C39.3316 24.3867 39.2514 24.3083 39.1585 24.2154C38.8769 23.9337 38.5407 23.597 38.2934 23.0295C38.0495 22.4699 37.9075 21.7261 37.9075 20.632V15.7248Z" fill="#333333"/>
<path d="M40.3333 5.33333V4.66667C40.3333 4.29848 40.6318 4 41 4C41.3682 4 41.6667 4.29848 41.6667 4.66667V5.33333H42.3333C42.7015 5.33333 43 5.63181 43 6C43 6.36819 42.7015 6.66667 42.3333 6.66667H41.6667V7.33333C41.6667 7.70152 41.3682 8 41 8C40.6318 8 40.3333 7.70152 40.3333 7.33333V6.66667H39.6667C39.2985 6.66667 39 6.36819 39 6C39 5.63181 39.2985 5.33333 39.6667 5.33333H40.3333Z" fill="#DDFFF5"/>
<path d="M32.6667 8.66667V8.33333C32.6667 8.14924 32.8159 8 33 8C33.1841 8 33.3333 8.14924 33.3333 8.33333V8.66667H33.6667C33.8508 8.66667 34 8.81591 34 9C34 9.18409 33.8508 9.33333 33.6667 9.33333H33.3333V9.66667C33.3333 9.85076 33.1841 10 33 10C32.8159 10 32.6667 9.85076 32.6667 9.66667V9.33333H32.3333C32.1492 9.33333 32 9.18409 32 9C32 8.81591 32.1492 8.66667 32.3333 8.66667H32.6667Z" fill="#DDFFF5"/>
<path d="M12.6667 40.6667V39.8333C12.6667 39.3731 13.0398 39 13.5 39C13.9602 39 14.3333 39.3731 14.3333 39.8333V40.6667H15.1667C15.6269 40.6667 16 41.0398 16 41.5C16 41.9602 15.6269 42.3333 15.1667 42.3333H14.3333V43.1667C14.3333 43.6269 13.9602 44 13.5 44C13.0398 44 12.6667 43.6269 12.6667 43.1667V42.3333H11.8333C11.3731 42.3333 11 41.9602 11 41.5C11 41.0398 11.3731 40.6667 11.8333 40.6667H12.6667Z" fill="#DDFFF5"/>
</svg>
