<svg width="50" height="50" viewBox="0 0 50 50" fill="none" xmlns="http://www.w3.org/2000/svg">
<rect width="50" height="50" fill="white"/>
<path fill-rule="evenodd" clip-rule="evenodd" d="M17.8939 12.8395C17.8285 12.7734 17.7745 12.696 17.735 12.6106C17.6875 12.508 17.661 12.3938 17.661 12.2735C17.661 12.0989 17.8381 12.1551 18.0424 12.22C18.102 12.2389 18.1639 12.2586 18.2244 12.2735C18.3061 12.2936 18.3853 12.305 18.4528 12.2941C18.4696 12.2914 18.4857 12.2873 18.5009 12.2816C18.5074 12.2792 18.5137 12.2765 18.5199 12.2735L15.9361 6.2572C15.9109 6.19571 15.914 6.1255 15.944 6.06634C15.974 6.00642 16.0284 5.96382 16.0923 5.94726C16.0923 5.94726 18.5223 5 19.893 5C20.8009 5 21.76 5.2114 22.8585 5.76034C23.3255 5.99461 23.8113 6.08451 24.3122 6.08451C25.1136 6.08451 25.9534 5.85429 26.8191 5.61697C27.7399 5.36456 28.6899 5.10414 29.6541 5.10414C30.5579 5.10414 32.1567 5.93389 32.1567 5.93389C32.2174 5.95438 32.2663 5.99855 32.2931 6.05614C32.3192 6.11369 32.3207 6.17996 32.2963 6.23832L29.6541 12.8366L30.6535 13.4707C31.8791 15.0135 34.026 18.0516 34.8983 21.3674C36.3259 26.7913 33.1426 30.8445 24.1127 30.8445C15.0827 30.8445 11.8995 26.7913 13.3271 21.3673C14.1556 18.2185 16.1336 15.3197 17.3803 13.7153C17.5311 13.5211 17.6713 13.3459 17.7974 13.1915C17.8074 13.1792 17.8173 13.1671 17.8271 13.1551C17.8918 13.0763 17.9525 13.0032 18.0089 12.936C17.9676 12.9074 17.9291 12.8751 17.8939 12.8395ZM19.226 13.0411L19.8142 12.7531L17.18 6.61956C17.3568 6.55997 17.5567 6.49511 17.7695 6.43038C18.5479 6.1937 19.3711 6 19.893 6C20.6308 6 21.4375 6.16831 22.4109 6.65454C23.0426 6.97133 23.6877 7.08451 24.3122 7.08451C25.2524 7.08451 26.2108 6.82118 27.0374 6.59408C27.0806 6.58221 27.1234 6.57044 27.1659 6.5588C28.0772 6.30923 28.8734 6.10414 29.6541 6.10414C29.89 6.10414 30.3517 6.23658 30.8692 6.446C30.9486 6.47811 31.0252 6.5103 31.0976 6.54163L28.417 13.236L29.974 14.2239C31.1871 15.7704 33.1361 18.5996 33.9312 21.6218C34.5804 24.0884 34.1488 26.0487 32.7313 27.4216C31.2564 28.8502 28.5164 29.8445 24.1127 29.8445C19.709 29.8445 16.9689 28.8502 15.494 27.4216C14.0766 26.0487 13.6449 24.0885 14.2941 21.6218C15.2238 18.0885 17.7267 14.8279 18.7749 13.5788L19.226 13.0411ZM32.0499 6.13965L32.0318 6.1744Z" fill="#333333"/>
<path d="M33.7547 37.1533L33.4407 36.9334C32.9637 36.5992 32.6511 36.0733 32.5835 35.492L32.2845 32.9115C32.2849 32.8737 32.2858 32.8369 32.2858 32.7932C32.2854 32.6309 32.2795 32.4382 32.2346 32.2232C32.1878 32.0109 32.1039 31.7555 31.8792 31.5246C31.5421 31.1837 31.0829 30.9918 30.6041 30.9918L30.5727 30.9922L29.8886 31.0049V31.0586C29.8637 31.0641 29.841 31.0668 29.8155 31.0736C29.6499 31.1191 29.4716 31.1955 29.3028 31.3109C29.1335 31.4264 28.976 31.5786 28.8399 31.7619L28.8118 31.8L27.7107 33.7979C27.5178 34.1211 27.3361 34.2933 27.1772 34.3901C27.0166 34.4865 26.8662 34.5238 26.6651 34.5256C26.4618 34.5265 26.2086 34.4747 25.9252 34.3792L18.2876 31.0619L18.2603 31.0528C18.0809 30.9914 17.8957 30.9619 17.7133 30.9619C17.176 30.9619 16.6566 31.2179 16.3301 31.6729L16.3278 31.6756L16.3158 31.6928L16.3165 31.6933C16.1044 31.9906 15.9998 32.3392 16 32.6811C15.9993 33.177 16.2196 33.6715 16.6326 34.0061L16.6317 34.007L25.5142 41.3464L25.5859 41.3822L30.238 43.6978L29.9794 44.1796L35.0026 46.9619L39 39.5225L33.9765 36.7405L33.7547 37.1533ZM30.8994 42.4677L26.2775 40.1667L17.5152 32.9264L17.5103 32.9227C17.4331 32.8609 17.395 32.7737 17.3941 32.6809C17.3945 32.6172 17.412 32.5581 17.4517 32.5022L17.4538 32.4995L17.4624 32.4872C17.5216 32.4044 17.6158 32.3585 17.7133 32.3581L17.8023 32.3726L25.4341 35.6873L25.4604 35.6964C25.8382 35.8246 26.238 35.9214 26.665 35.9219C27.0728 35.9237 27.5093 35.8241 27.9014 35.5832C28.2953 35.3437 28.6319 34.98 28.9115 34.5073L28.9174 34.4968L29.9779 32.5731C30.0215 32.5185 30.0583 32.4849 30.0868 32.4654C30.1367 32.4327 30.1748 32.4186 30.2542 32.4058C30.3322 32.3936 30.4441 32.3936 30.5971 32.3922L30.622 32.3918C30.7128 32.3963 30.7972 32.4318 30.8654 32.4913C30.8703 32.509 30.8757 32.5336 30.8794 32.5658C30.888 32.6267 30.8917 32.7077 30.8917 32.7931C30.8917 32.8372 30.8908 32.8827 30.8894 32.9294L30.8885 32.9785L31.1985 35.6531C31.3124 36.6309 31.837 37.5141 32.6429 38.0783L32.6661 38.0941L33.0894 38.3914L30.8994 42.4677ZM36.3953 40.633C36.3971 41.0507 36.0612 41.3908 35.6438 41.3926C35.2272 41.3949 34.8869 41.0576 34.8851 40.6398C34.8833 40.2221 35.2205 39.8821 35.637 39.8798C36.0545 39.878 36.3935 40.2153 36.3953 40.633Z" fill="#333333"/>
<path d="M17 12.75C17 12.3358 17.3358 12 17.75 12H31V13.5H17.75C17.3358 13.5 17 13.1642 17 12.75V12.75Z" fill="#26DFB3"/>
<path d="M30 12L33.6854 9.88336C34.0446 9.67706 34.503 9.80101 34.7093 10.1602V10.1602C34.9156 10.5194 34.7917 10.9778 34.4325 11.1841L30.7471 13.3007L30 12Z" fill="#26DFB3"/>
<path d="M29.894 13L33.6919 14.9076C34.062 15.0935 34.5128 14.9442 34.6987 14.574V14.574C34.8846 14.2039 34.7353 13.7531 34.3652 13.5672L30.5673 11.6596L29.894 13Z" fill="#26DFB3"/>
<path d="M27.0795 23.6997C26.9154 24.0073 26.6899 24.2645 26.4044 24.4743C26.118 24.684 25.7749 24.8402 25.3767 24.9427C25.2024 24.9869 25.0202 25.0177 24.8349 25.0429V26.2031H23.4498V25.0658C23.0555 25.0326 22.6785 24.9711 22.3235 24.8733C21.7817 24.725 21.0718 24.1256 21.0718 24.1256C21.0111 24.0901 20.9709 24.0277 20.9622 23.9583C20.9535 23.8889 20.9772 23.8187 21.0269 23.769L21.7209 23.075C21.7958 23.0008 21.9118 22.9866 22.0017 23.0419C22.0017 23.0419 22.5207 23.493 22.9143 23.6003C23.3079 23.7076 23.6982 23.7612 24.0879 23.7612C24.5792 23.7612 24.9854 23.6744 25.3072 23.501C25.6298 23.3258 25.7907 23.0561 25.7907 22.687C25.7907 22.4212 25.7118 22.2114 25.5525 22.0576C25.3939 21.9046 25.1258 21.8083 24.7472 21.7665L23.5042 21.6593C22.7684 21.5875 22.2005 21.3825 21.8022 21.0457C21.4023 20.7081 21.2035 20.1962 21.2035 19.5116C21.2035 19.133 21.2801 18.7954 21.4339 18.4997C21.5877 18.2031 21.7967 17.9523 22.0625 17.7473C22.3283 17.5438 22.6382 17.3892 22.9908 17.2882C23.1383 17.2456 23.2929 17.2172 23.4498 17.192V16.1919H24.8349V17.1715C25.1582 17.203 25.4658 17.2551 25.7521 17.334C26.238 17.4665 26.7483 17.8655 26.7483 17.8655C26.8122 17.8986 26.8555 17.9602 26.8666 18.0311C26.8776 18.1037 26.854 18.1747 26.8035 18.2267L26.1528 18.8869C26.0834 18.9571 25.9761 18.9752 25.8878 18.9295C25.8878 18.9295 25.5021 18.655 25.1693 18.5683C24.8364 18.4823 24.487 18.4381 24.1187 18.4381C23.6376 18.4381 23.2819 18.5297 23.0523 18.7134C22.822 18.8979 22.7077 19.1385 22.7077 19.4343C22.7077 19.7008 22.7881 19.9051 22.9529 20.0479C23.1162 20.1914 23.3923 20.2845 23.7811 20.3239L24.8703 20.417C25.6779 20.488 26.2892 20.7025 26.7033 21.0606C27.1182 21.4187 27.3248 21.9408 27.3248 22.6254C27.3248 23.0357 27.2427 23.3929 27.0795 23.6997Z" fill="#26DFB3"/>
<path d="M38.3333 8.33333V7.66667C38.3333 7.29848 38.6318 7 39 7C39.3682 7 39.6667 7.29848 39.6667 7.66667V8.33333H40.3333C40.7015 8.33333 41 8.63181 41 9C41 9.36819 40.7015 9.66667 40.3333 9.66667H39.6667V10.3333C39.6667 10.7015 39.3682 11 39 11C38.6318 11 38.3333 10.7015 38.3333 10.3333V9.66667H37.6667C37.2985 9.66667 37 9.36819 37 9C37 8.63181 37.2985 8.33333 37.6667 8.33333H38.3333Z" fill="#DDFFF5"/>
<path d="M7.66667 23.6667V22.8333C7.66667 22.3731 8.03976 22 8.5 22C8.96024 22 9.33333 22.3731 9.33333 22.8333V23.6667H10.1667C10.6269 23.6667 11 24.0398 11 24.5C11 24.9602 10.6269 25.3333 10.1667 25.3333H9.33333V26.1667C9.33333 26.6269 8.96024 27 8.5 27C8.03976 27 7.66667 26.6269 7.66667 26.1667V25.3333H6.83333C6.3731 25.3333 6 24.9602 6 24.5C6 24.0398 6.3731 23.6667 6.83333 23.6667H7.66667Z" fill="#DDFFF5"/>
</svg>
