<svg width="50" height="50" viewBox="0 0 50 50" fill="none" xmlns="http://www.w3.org/2000/svg">
<rect width="50" height="50" fill="white"/>
<path fill-rule="evenodd" clip-rule="evenodd" d="M11.6621 18.4285C12.625 18.4688 13.6661 18.6252 14.2049 18.7783L14.8073 18.9495L14.7464 19.5728C14.7107 19.9376 14.5836 20.3493 14.4393 20.7298C14.2905 21.1223 14.1033 21.533 13.916 21.9108C13.5531 22.6424 13.1454 23.3382 12.9703 23.562C12.7621 23.8282 12.4743 23.9138 12.2557 23.9275C12.0532 23.9403 11.865 23.8973 11.7249 23.8547C11.4412 23.7683 11.1307 23.6109 10.8557 23.4602C10.6667 23.3567 10.462 23.2377 10.2675 23.1247C10.175 23.071 10.0848 23.0186 9.99973 22.9698C9.71895 22.8089 9.48134 22.6801 9.29332 22.6C8.91231 22.4376 8.61829 22.1724 8.44001 21.8245C8.26761 21.4881 8.23033 21.1279 8.25849 20.8039C8.31342 20.1719 8.62618 19.5418 8.99661 19.0682C9.17556 18.8394 9.41643 18.7119 9.60947 18.6369C9.81134 18.5584 10.0323 18.5098 10.2468 18.4784C10.6766 18.4156 11.1775 18.4083 11.6621 18.4285ZM10.1163 20.0517C10.1163 20.0517 10.1172 20.0511 10.1191 20.05C10.1173 20.0512 10.1164 20.0517 10.1163 20.0517ZM10.1423 20.0392C10.1456 20.0379 10.1492 20.0364 10.1532 20.0349C10.2132 20.0115 10.3142 19.9845 10.4639 19.9627C10.7626 19.919 11.1593 19.9088 11.5995 19.9272C12.1206 19.949 12.6524 20.0083 13.0817 20.0761C13.0676 20.1155 13.0526 20.1562 13.0368 20.198C12.9108 20.5302 12.7459 20.8939 12.5722 21.2443C12.3989 21.5935 12.2213 21.9207 12.0731 22.1778C12.038 22.2387 12.0049 22.2952 11.9741 22.3465C11.8669 22.2984 11.7347 22.2314 11.5765 22.1448C11.4034 22.0499 11.2283 21.9481 11.0442 21.8411C10.9475 21.7849 10.8483 21.7272 10.7456 21.6684C10.4641 21.507 10.1587 21.3383 9.88141 21.2201C9.79744 21.1843 9.781 21.1522 9.77501 21.1405L9.77493 21.1404C9.76312 21.1173 9.74223 21.0561 9.75286 20.9338C9.77439 20.6861 9.91355 20.3469 10.1423 20.0392Z" fill="#333333"/>
<path fill-rule="evenodd" clip-rule="evenodd" d="M39.3379 18.4285C38.375 18.4688 37.3339 18.6252 36.7951 18.7783L36.1927 18.9495L36.2536 19.5728C36.2893 19.9376 36.4164 20.3493 36.5607 20.7298C36.7095 21.1223 36.8967 21.533 37.084 21.9108C37.4469 22.6424 37.8546 23.3382 38.0297 23.562C38.2379 23.8282 38.5257 23.9138 38.7443 23.9275C38.9468 23.9403 39.135 23.8973 39.2751 23.8547C39.5588 23.7683 39.8693 23.6109 40.1443 23.4602C40.3333 23.3567 40.538 23.2377 40.7325 23.1247C40.825 23.071 40.9152 23.0186 41.0003 22.9698C41.2811 22.8089 41.5187 22.6801 41.7067 22.6C42.0877 22.4376 42.3817 22.1724 42.56 21.8245C42.7324 21.4881 42.7697 21.1279 42.7415 20.8039C42.6866 20.1719 42.3738 19.5418 42.0034 19.0682C41.8244 18.8394 41.5836 18.7119 41.3905 18.6369C41.1887 18.5584 40.9677 18.5098 40.7532 18.4784C40.3234 18.4156 39.8225 18.4083 39.3379 18.4285ZM40.8837 20.0517C40.8837 20.0517 40.8828 20.0511 40.8809 20.05C40.8827 20.0512 40.8836 20.0517 40.8837 20.0517ZM40.8577 20.0392C40.8544 20.0379 40.8508 20.0364 40.8468 20.0349C40.7868 20.0115 40.6858 19.9845 40.5361 19.9627C40.2374 19.919 39.8407 19.9088 39.4005 19.9272C38.8794 19.949 38.3476 20.0083 37.9183 20.0761C37.9324 20.1155 37.9474 20.1562 37.9632 20.198C38.0892 20.5302 38.2541 20.8939 38.4278 21.2443C38.6011 21.5935 38.7787 21.9207 38.9269 22.1778C38.962 22.2387 38.9951 22.2952 39.0259 22.3465C39.1331 22.2984 39.2653 22.2314 39.4235 22.1448C39.5966 22.0499 39.7717 21.9481 39.9558 21.8411C40.0525 21.7849 40.1517 21.7272 40.2544 21.6684C40.5359 21.507 40.8413 21.3383 41.1186 21.2201C41.2026 21.1843 41.219 21.1522 41.225 21.1405L41.2251 21.1404C41.2369 21.1173 41.2578 21.0561 41.2471 20.9338C41.2256 20.6861 41.0865 20.3469 40.8577 20.0392Z" fill="#333333"/>
<path fill-rule="evenodd" clip-rule="evenodd" d="M16.2423 15.75C16.1344 15.75 16.0386 15.8193 16.0049 15.9219L13.461 23.6588C13.3316 24.0523 12.9077 24.2664 12.5142 24.137C12.1207 24.0077 11.9066 23.5838 12.036 23.1903L14.5799 15.4534C14.816 14.7353 15.4865 14.25 16.2423 14.25H34.7573C35.5132 14.25 36.1836 14.7353 36.4197 15.4534L38.9636 23.1903C39.093 23.5838 38.8789 24.0077 38.4854 24.137C38.0919 24.2664 37.668 24.0523 37.5387 23.6588L34.9948 15.9219C34.9611 15.8193 34.8653 15.75 34.7573 15.75H16.2423Z" fill="#333333"/>
<path fill-rule="evenodd" clip-rule="evenodd" d="M15.3076 22.4575H35.6919C39.8341 22.4575 43.1919 25.8154 43.1919 29.9575V30.9149C43.1919 32.8479 41.6249 34.4149 39.6919 34.4149H11.3076C9.37462 34.4149 7.80762 32.8479 7.80762 30.9149V29.9575C7.80762 25.8154 11.1655 22.4575 15.3076 22.4575ZM15.3076 23.9575C11.9939 23.9575 9.30762 26.6438 9.30762 29.9575V30.9149C9.30762 32.0195 10.203 32.9149 11.3076 32.9149H39.6919C40.7965 32.9149 41.6919 32.0195 41.6919 30.9149V29.9575C41.6919 26.6438 39.0056 23.9575 35.6919 23.9575H15.3076Z" fill="#333333"/>
<path d="M16.988 28.3659C16.845 29.2684 15.3762 29.6874 13.7073 29.3018C12.0385 28.9163 10.8015 27.8721 10.9446 26.9696C11.0876 26.0671 12.5565 25.648 14.2253 26.0336C15.8942 26.4192 17.1311 27.4634 16.988 28.3659Z" fill="#26DFB3"/>
<path d="M16.988 30.5831C16.845 30.2611 15.3762 30.1115 13.7073 30.2491C12.0385 30.3867 10.8015 30.7594 10.9446 31.0814C11.0876 31.4035 12.5565 31.553 14.2253 31.4154C15.8942 31.2778 17.1311 30.9052 16.988 30.5831Z" fill="#26DFB3"/>
<path d="M33.6829 28.3659C33.8259 29.2684 35.2947 29.6874 36.9636 29.3018C38.6324 28.9163 39.8694 27.8721 39.7263 26.9696C39.5833 26.0671 38.1144 25.648 36.4456 26.0336C34.7767 26.4192 33.5398 27.4634 33.6829 28.3659Z" fill="#26DFB3"/>
<path d="M33.6829 30.5831C33.8259 30.2611 35.2947 30.1115 36.9636 30.2491C38.6324 30.3867 39.8694 30.7594 39.7263 31.0814C39.5833 31.4035 38.1144 31.553 36.4456 31.4154C34.7767 31.2778 33.5398 30.9052 33.6829 30.5831Z" fill="#26DFB3"/>
<path d="M11 34.1797H15V35.1797C15 36.2843 14.1046 37.1797 13 37.1797C11.8954 37.1797 11 36.2843 11 35.1797V34.1797Z" fill="#333333"/>
<path d="M36 34.1797H40V35.1797C40 36.2843 39.1046 37.1797 38 37.1797C36.8954 37.1797 36 36.2843 36 35.1797V34.1797Z" fill="#333333"/>
<path fill-rule="evenodd" clip-rule="evenodd" d="M30.3565 29.0918H20.6431V29.5369C20.6431 30.0892 21.0908 30.5369 21.6431 30.5369H29.3565C29.9088 30.5369 30.3565 30.0892 30.3565 29.5369V29.0918ZM20.6431 28.0918C20.0908 28.0918 19.6431 28.5395 19.6431 29.0918V29.5369C19.6431 30.6415 20.5385 31.5369 21.6431 31.5369H29.3565C30.4611 31.5369 31.3565 30.6415 31.3565 29.5369V29.0918C31.3565 28.5395 30.9088 28.0918 30.3565 28.0918H20.6431Z" fill="#333333"/>
<path fill-rule="evenodd" clip-rule="evenodd" d="M22.4548 28.7808V30.8478H21.6548V28.7808H22.4548Z" fill="#333333"/>
<path fill-rule="evenodd" clip-rule="evenodd" d="M24.1772 28.7808V30.8478H23.3772V28.7808H24.1772Z" fill="#333333"/>
<path fill-rule="evenodd" clip-rule="evenodd" d="M25.8999 28.7808V30.8478H25.0999V28.7808H25.8999Z" fill="#333333"/>
<path fill-rule="evenodd" clip-rule="evenodd" d="M27.6223 28.7808V30.8478H26.8223V28.7808H27.6223Z" fill="#333333"/>
<path fill-rule="evenodd" clip-rule="evenodd" d="M29.3449 28.7808V30.8478H28.5449V28.7808H29.3449Z" fill="#333333"/>
<path fill-rule="evenodd" clip-rule="evenodd" d="M3.25 38C3.25 37.5858 3.58579 37.25 4 37.25H47C47.4142 37.25 47.75 37.5858 47.75 38C47.75 38.4142 47.4142 38.75 47 38.75H4C3.58579 38.75 3.25 38.4142 3.25 38Z" fill="#333333"/>
<path d="M39.3333 9.33333V8.66667C39.3333 8.29848 39.6318 8 40 8C40.3682 8 40.6667 8.29848 40.6667 8.66667V9.33333H41.3333C41.7015 9.33333 42 9.63181 42 10C42 10.3682 41.7015 10.6667 41.3333 10.6667H40.6667V11.3333C40.6667 11.7015 40.3682 12 40 12C39.6318 12 39.3333 11.7015 39.3333 11.3333V10.6667H38.6667C38.2985 10.6667 38 10.3682 38 10C38 9.63181 38.2985 9.33333 38.6667 9.33333H39.3333Z" fill="#DDFFF5"/>
<path d="M35.6667 5.66667V5.33333C35.6667 5.14924 35.8159 5 36 5C36.1841 5 36.3333 5.14924 36.3333 5.33333V5.66667H36.6667C36.8508 5.66667 37 5.81591 37 6C37 6.18409 36.8508 6.33333 36.6667 6.33333H36.3333V6.66667C36.3333 6.85076 36.1841 7 36 7C35.8159 7 35.6667 6.85076 35.6667 6.66667V6.33333H35.3333C35.1492 6.33333 35 6.18409 35 6C35 5.81591 35.1492 5.66667 35.3333 5.66667H35.6667Z" fill="#DDFFF5"/>
<path d="M7.66667 14.6667V13.8333C7.66667 13.3731 8.03976 13 8.5 13C8.96024 13 9.33333 13.3731 9.33333 13.8333V14.6667H10.1667C10.6269 14.6667 11 15.0398 11 15.5C11 15.9602 10.6269 16.3333 10.1667 16.3333H9.33333V17.1667C9.33333 17.6269 8.96024 18 8.5 18C8.03976 18 7.66667 17.6269 7.66667 17.1667V16.3333H6.83333C6.3731 16.3333 6 15.9602 6 15.5C6 15.0398 6.3731 14.6667 6.83333 14.6667H7.66667Z" fill="#DDFFF5"/>
</svg>
