<svg width="50" height="50" viewBox="0 0 50 50" fill="none" xmlns="http://www.w3.org/2000/svg">
<g clip-path="url(#clip0_1175_25144)">
<rect width="50" height="50" fill="white"/>
<path d="M15.5 24L20.5 21.5H21C21.1667 21.8333 21.5 22.6 21.5 23C21.5 23.4 22.5 23.5 23 23.5C23.5 23.6667 24.6 24 25 24C25.4 24 26.1667 23.6667 26.5 23.5L28 23L29 21L33 22.5L35 24V26L34 28H32.5L31 27L30.5 33.5L26.5 35.5L20 34.5L19 33.5V31L18.5 27.5H17L16 26.5L15.5 24Z" fill="#26DFB3"/>
<path d="M27.4082 4.25734C27.2152 4.25158 27.0174 4.26252 26.8164 4.29249C26.3027 4.36897 25.8205 4.56036 25.3252 4.71876C24.83 4.87716 24.3394 5.00001 23.9732 5.00001C23.7397 5.00001 23.318 4.9939 22.8921 4.99855C22.4663 5.0032 22.059 5.00919 21.6997 5.07472C21.065 5.19067 20.5153 5.46914 20.1294 5.89357C19.7436 6.31799 19.5383 6.85052 19.4439 7.40382C19.4434 7.40723 19.4429 7.41065 19.4424 7.41407L18.9912 10.2764C16.6333 10.4098 14.925 11.8585 13.9991 13.8037C13.5922 14.658 13.693 15.6026 14.1426 16.294C14.5922 16.9853 15.3358 17.4538 16.1905 17.6387C22.3201 18.9649 27.5719 18.5595 33.2852 17.7485C33.2891 17.7486 33.293 17.7486 33.2969 17.7485C33.2994 17.7486 33.3018 17.7486 33.3042 17.7485V17.7471C33.3155 17.7464 33.3267 17.7454 33.3379 17.7442C33.3439 17.7433 33.3495 17.7436 33.3555 17.7427C33.3604 17.7418 33.3653 17.7408 33.3702 17.7398C33.444 17.7275 33.5156 17.7043 33.5826 17.6709C34.5515 17.469 35.2753 17.0622 35.6934 16.5108C36.1456 15.9143 36.25 15.245 36.25 14.7368C36.25 12.1862 34.2868 9.11143 30.6661 8.13478L30.2266 6.4297C30.2252 6.4248 30.2237 6.41992 30.2222 6.41505C29.8763 5.17812 28.7592 4.29764 27.4082 4.25734ZM27.3892 5.74562C28.1598 5.73481 28.5839 6.13199 28.7764 6.81788L28.7779 6.81935L29.2979 8.83058L29.2994 8.83497C29.3069 8.90285 29.3236 8.96938 29.3492 9.03273L29.4722 9.50734C29.4762 9.52804 29.4811 9.54857 29.4869 9.56886C29.571 9.87021 29.3044 10.4696 28.9507 10.6763C28.7352 10.802 27.9002 11.1194 26.9292 11.3472C26.0198 11.5606 24.9544 11.7208 23.982 11.7398C23.0485 11.0682 21.9482 10.519 20.503 10.3262L20.9234 7.65724C20.985 7.29629 21.0934 7.06229 21.2383 6.90284C21.3833 6.7434 21.5818 6.62061 21.9693 6.54982C22.0952 6.52684 22.5093 6.5029 22.9082 6.49855C23.3072 6.49419 23.7131 6.50001 23.9732 6.50001C24.6337 6.50001 25.2451 6.32024 25.7823 6.14845C26.3194 5.97666 26.8006 5.81019 27.0376 5.77491C27.1622 5.75634 27.2791 5.74716 27.3892 5.74562ZM31.1143 9.86769C33.538 10.894 34.75 13.1598 34.75 14.7368C34.75 15.0446 34.6901 15.3523 34.4981 15.6055C34.309 15.8549 33.9498 16.1147 33.1504 16.25C30.8838 16.4088 29.4361 16.0107 28.2901 15.3447C29.2351 15.1449 30.0805 14.8429 30.6411 14.5156C30.6416 14.5151 30.6421 14.5147 30.6426 14.5142C31.5041 14.0106 31.9376 12.9838 31.6695 12.0195L31.1143 9.86769ZM30.0479 11.7368L30.2207 12.4077C30.2217 12.4121 30.2227 12.4165 30.2237 12.4209C30.3102 12.7313 30.1859 13.0435 29.8853 13.2192C29.3812 13.5135 27.902 13.9989 26.604 14.0601C26.4681 13.9347 26.3327 13.8102 26.1968 13.6807C26.0046 13.4975 25.7961 13.3058 25.5977 13.1167C26.1811 13.038 26.749 12.9303 27.272 12.8076C28.3323 12.5588 29.1638 12.288 29.7066 11.9712C29.7071 11.9712 29.7076 11.9712 29.708 11.9712C29.8271 11.9016 29.9413 11.8228 30.0479 11.7368ZM19.337 11.75C21.1118 11.75 22.2356 12.2542 23.2115 12.9951C23.2757 13.0674 23.3533 13.1266 23.44 13.1694C24.0182 13.6399 24.5559 14.1893 25.1612 14.7661C25.3493 14.9454 25.5461 15.1246 25.753 15.3008C25.8194 15.3808 25.9017 15.4462 25.9947 15.4927C25.9961 15.4937 25.9976 15.4946 25.9991 15.4956C26.5495 15.9422 27.1596 16.3693 27.8594 16.7349C24.1771 17.0131 20.5267 17.0436 16.5069 16.1738C15.9958 16.0633 15.5975 15.781 15.3995 15.4766C15.2014 15.1721 15.1497 14.8756 15.3526 14.4497C16.1525 12.7693 17.3548 11.75 19.337 11.75Z" fill="#333333"/>
<path fill-rule="evenodd" clip-rule="evenodd" d="M28.6005 20.3412C28.8012 20.232 29.0409 20.2202 29.2513 20.3093L34.7888 22.6531C34.7975 22.6568 34.8061 22.6607 34.8147 22.6647C35.5506 23.0094 35.9162 23.8447 35.674 24.6174L34.8838 27.652C34.8806 27.6642 34.8771 27.6764 34.8733 27.6885C34.7215 28.1702 34.3509 28.5518 33.8739 28.7177C33.4307 28.8718 32.944 28.8229 32.542 28.5878L31.6658 28.268V33.4764L34.5811 39.2126C35.1126 40.2222 34.7797 41.4714 33.8152 42.0824L33.7974 42.0933C31.1364 43.6772 28.1092 44.5419 25.013 44.6025C25.0032 44.6027 24.9934 44.6027 24.9836 44.6025C21.8891 44.5416 18.8635 43.6774 16.2037 42.0948L16.1861 42.084C15.2205 41.473 14.8874 40.2225 15.42 39.2124L18.3352 33.4764V28.2695L17.4597 28.589C17.0567 28.8256 16.5682 28.8748 16.1236 28.7195C15.6448 28.5523 15.2738 28.1679 15.1238 27.6835C15.1204 27.6727 15.1173 27.6617 15.1144 27.6507L14.3242 24.6174C14.0819 23.8448 14.4475 23.0094 15.1835 22.6647C15.192 22.6607 15.2006 22.6568 15.2093 22.6532L20.7453 20.3093C20.9558 20.2202 21.1954 20.232 21.3962 20.3412C21.597 20.4505 21.737 20.6453 21.7764 20.8704C22.0511 22.4368 23.4083 23.5813 24.9984 23.5879C26.5884 23.5813 27.9456 22.4368 28.2203 20.8704C28.2598 20.6453 28.3997 20.4505 28.6005 20.3412ZM29.4506 22.0225C28.754 23.8345 27.004 25.0811 25.0009 25.0879H24.9958C22.9928 25.0811 21.2428 23.8345 20.5462 22.0226L15.813 24.0265C15.7619 24.0544 15.7376 24.1152 15.7562 24.1711C15.7615 24.1868 15.7662 24.2028 15.7704 24.2188L16.5595 27.2478C16.5701 27.2737 16.5914 27.2941 16.6181 27.3034C16.6476 27.3137 16.6802 27.3094 16.706 27.2918C16.7574 27.2568 16.8129 27.2283 16.8713 27.2069L18.8281 26.4928C19.0581 26.4089 19.3146 26.4425 19.5152 26.5828C19.7158 26.7231 19.8352 26.9525 19.8352 27.1973V33.6561C19.8352 33.7742 19.8074 33.8906 19.7538 33.9959L16.7482 39.9099C16.5801 40.2259 16.6817 40.6173 16.981 40.8119C19.4107 42.2551 22.173 43.0443 24.9984 43.1025C27.8253 43.0446 30.589 42.255 33.0198 40.8106C33.3186 40.6161 33.4202 40.2251 33.2527 39.9093L33.2465 39.8976L30.2472 33.9959C30.1936 33.8906 30.1658 33.7742 30.1658 33.6561V27.1959C30.1658 26.9511 30.2852 26.7217 30.4858 26.5814C30.6864 26.441 30.9429 26.4074 31.1729 26.4914L33.1296 27.2055C33.1875 27.2266 33.2426 27.2548 33.2936 27.2894C33.3193 27.3069 33.3518 27.3111 33.3811 27.3009C33.4074 27.2918 33.4285 27.272 33.4393 27.2466L34.2277 24.2189C34.2319 24.2028 34.2367 24.1869 34.2419 24.1711C34.2605 24.1152 34.2362 24.0544 34.1852 24.0265L29.4506 22.0225Z" fill="#333333"/>
<path fill-rule="evenodd" clip-rule="evenodd" d="M31.5718 25.1149C31.9685 25.2341 32.1935 25.6523 32.0743 26.049C32.033 26.1864 31.9665 26.3748 31.9026 26.5559C31.8797 26.6208 31.8571 26.6848 31.8361 26.7451C31.7462 27.0038 31.6789 27.2147 31.6526 27.3445C31.5705 27.7505 31.1748 28.013 30.7688 27.9309C30.3628 27.8488 30.1003 27.4531 30.1824 27.0471C30.2319 26.8027 30.3338 26.4986 30.4192 26.2528C30.4487 26.1678 30.4766 26.0888 30.5024 26.0158C30.5603 25.8518 30.6074 25.7185 30.6377 25.6174C30.7569 25.2207 31.1751 24.9957 31.5718 25.1149ZM18.4253 25.1163C18.822 24.9971 19.2402 25.2221 19.3594 25.6188C19.3897 25.7199 19.4368 25.8532 19.4947 26.0171C19.5204 26.0901 19.5483 26.1692 19.5779 26.2542C19.6633 26.5 19.7652 26.804 19.8147 27.0485C19.8968 27.4545 19.6342 27.8502 19.2283 27.9323C18.8223 28.0144 18.4266 27.7519 18.3444 27.3459C18.3182 27.2161 18.2509 27.0052 18.161 26.7465C18.14 26.6862 18.1174 26.6222 18.0945 26.5572C18.0306 26.3762 17.9641 26.1878 17.9228 26.0504C17.8036 25.6537 18.0286 25.2355 18.4253 25.1163ZM31.5657 33.2783C31.7742 33.6362 31.6531 34.0954 31.2953 34.304C29.3875 35.4156 27.2397 36.0505 25.0342 36.1548C25.0107 36.1559 24.9871 36.1559 24.9636 36.1548C22.7582 36.051 20.6104 35.4166 18.7025 34.3055C18.3446 34.097 18.2234 33.6379 18.4319 33.2799C18.6403 32.922 19.0995 32.8008 19.4574 33.0093C21.1466 33.993 23.0468 34.5572 24.9988 34.6547C26.9508 34.5568 28.8511 33.9921 30.5401 33.0079C30.8979 32.7994 31.3571 32.9205 31.5657 33.2783Z" fill="#333333"/>
<path d="M9.33333 14.3333V13.6667C9.33333 13.2985 9.63181 13 10 13C10.3682 13 10.6667 13.2985 10.6667 13.6667V14.3333H11.3333C11.7015 14.3333 12 14.6318 12 15C12 15.3682 11.7015 15.6667 11.3333 15.6667H10.6667V16.3333C10.6667 16.7015 10.3682 17 10 17C9.63181 17 9.33333 16.7015 9.33333 16.3333V15.6667H8.66667C8.29848 15.6667 8 15.3682 8 15C8 14.6318 8.29848 14.3333 8.66667 14.3333H9.33333Z" fill="#DDFFF5"/>
<path d="M39.6667 21.6667V20.8333C39.6667 20.3731 40.0398 20 40.5 20C40.9602 20 41.3333 20.3731 41.3333 20.8333V21.6667H42.1667C42.6269 21.6667 43 22.0398 43 22.5C43 22.9602 42.6269 23.3333 42.1667 23.3333H41.3333V24.1667C41.3333 24.6269 40.9602 25 40.5 25C40.0398 25 39.6667 24.6269 39.6667 24.1667V23.3333H38.8333C38.3731 23.3333 38 22.9602 38 22.5C38 22.0398 38.3731 21.6667 38.8333 21.6667H39.6667Z" fill="#DDFFF5"/>
</g>
<defs>
<clipPath id="clip0_1175_25144">
<rect width="50" height="50" fill="white"/>
</clipPath>
</defs>
</svg>
