<svg width="50" height="50" viewBox="0 0 50 50" fill="none" xmlns="http://www.w3.org/2000/svg">
<rect width="50" height="50" fill="white"/>
<path fill-rule="evenodd" clip-rule="evenodd" d="M14.0962 6C14.0962 5.58579 14.4319 5.25 14.8462 5.25H21C21.4142 5.25 21.75 5.58579 21.75 6V16.1961C21.75 16.6103 21.4142 16.9461 21 16.9461C20.5858 16.9461 20.25 16.6103 20.25 16.1961V6.75H15.5962V16.1961C15.5962 16.478 15.438 16.7362 15.1868 16.8643C14.3769 17.2772 12.3398 19.0442 11.75 22.5325V40.25H17.9231C18.3373 40.25 18.6731 40.5858 18.6731 41C18.6731 41.4142 18.3373 41.75 17.9231 41.75H11C10.5858 41.75 10.25 41.4142 10.25 41V22.4097L10.2598 22.3496C10.8474 18.7549 12.8071 16.6228 14.0962 15.7691V6Z" fill="#26DFB3"/>
<path fill-rule="evenodd" clip-rule="evenodd" d="M21.5 25.5V42C21.5 42.2761 21.7239 42.5 22 42.5H36C36.2761 42.5 36.5 42.2761 36.5 42V25.5H21.5ZM20 42C20 43.1046 20.8954 44 22 44H36C37.1046 44 38 43.1046 38 42V24H20V42Z" fill="#333333"/>
<path fill-rule="evenodd" clip-rule="evenodd" d="M26.6819 29.0767C28.203 29.0767 29.5579 28.3651 30.4318 27.2567C30.9333 27.5468 31.5155 27.7129 32.1365 27.7129C32.5886 27.7129 33.0202 27.6248 33.415 27.465C34.075 28.0438 34.9398 28.3947 35.8866 28.3947C37.9576 28.3947 39.6366 26.7157 39.6366 24.6447C39.6366 22.5736 37.9576 20.8947 35.8866 20.8947C35.1835 20.8947 34.5255 21.0882 33.9632 21.4249C33.4352 21.0891 32.8086 20.8947 32.1365 20.8947C31.5154 20.8947 30.9331 21.0608 30.4316 21.351C29.5576 20.2427 28.2028 19.5312 26.6819 19.5312C25.3179 19.5312 24.0876 20.1034 23.2178 21.0208C22.9091 20.9385 22.5847 20.8947 22.25 20.8947C20.1789 20.8947 18.5 22.5736 18.5 24.6447C18.5 26.7157 20.1789 28.3947 22.25 28.3947C22.7873 28.3947 23.2981 28.2817 23.7602 28.0782C24.5675 28.7041 25.5812 29.0767 26.6819 29.0767Z" fill="#26DFB3"/>
<path d="M34 30C34 30.5523 33.5523 31 33 31C32.4477 31 32 30.5523 32 30C32 29.4477 32.4477 29 33 29C33.5523 29 34 29.4477 34 30Z" fill="#26DFB3"/>
<path d="M34 35.5C34 36.3284 33.3284 37 32.5 37C31.6716 37 31 36.3284 31 35.5C31 34.6716 31.6716 34 32.5 34C33.3284 34 34 34.6716 34 35.5Z" fill="#26DFB3"/>
<path fill-rule="evenodd" clip-rule="evenodd" d="M40.5 30.5H38V36.5H40.5C40.7761 36.5 41 36.2761 41 36V31C41 30.7239 40.7761 30.5 40.5 30.5ZM36.5 29V38H40.5C41.6046 38 42.5 37.1046 42.5 36V31C42.5 29.8954 41.6046 29 40.5 29H36.5Z" fill="#333333"/>
<path d="M6.33333 18.3333V17.6667C6.33333 17.2985 6.63181 17 7 17C7.36819 17 7.66667 17.2985 7.66667 17.6667V18.3333H8.33333C8.70152 18.3333 9 18.6318 9 19C9 19.3682 8.70152 19.6667 8.33333 19.6667H7.66667V20.3333C7.66667 20.7015 7.36819 21 7 21C6.63181 21 6.33333 20.7015 6.33333 20.3333V19.6667H5.66667C5.29848 19.6667 5 19.3682 5 19C5 18.6318 5.29848 18.3333 5.66667 18.3333H6.33333Z" fill="#DDFFF5"/>
<path d="M38.6667 10.6667V9.83333C38.6667 9.3731 39.0398 9 39.5 9C39.9602 9 40.3333 9.3731 40.3333 9.83333V10.6667H41.1667C41.6269 10.6667 42 11.0398 42 11.5C42 11.9602 41.6269 12.3333 41.1667 12.3333H40.3333V13.1667C40.3333 13.6269 39.9602 14 39.5 14C39.0398 14 38.6667 13.6269 38.6667 13.1667V12.3333H37.8333C37.3731 12.3333 37 11.9602 37 11.5C37 11.0398 37.3731 10.6667 37.8333 10.6667H38.6667Z" fill="#DDFFF5"/>
<path d="M34 15V14.5C34 14.2239 34.2239 14 34.5 14C34.7761 14 35 14.2239 35 14.5V15H35.5C35.7761 15 36 15.2239 36 15.5C36 15.7761 35.7761 16 35.5 16H35V16.5C35 16.7761 34.7761 17 34.5 17C34.2239 17 34 16.7761 34 16.5V16H33.5C33.2239 16 33 15.7761 33 15.5C33 15.2239 33.2239 15 33.5 15H34Z" fill="#DDFFF5"/>
</svg>
