<svg width="50" height="50" viewBox="0 0 50 50" fill="none" xmlns="http://www.w3.org/2000/svg">
<rect width="50" height="50" fill="white"/>
<path fill-rule="evenodd" clip-rule="evenodd" d="M35.8628 22.3506C36.2215 22.5577 36.3444 23.0164 36.1373 23.3751L35.9937 23.6239C37.1375 24.4445 38.0554 25.5777 38.5674 26.8369C39.1743 28.3297 39.22 30.0356 38.3334 31.5713C38.1263 31.93 37.6676 32.0529 37.3089 31.8458L32.7623 29.2208L30.1373 33.7674C29.9302 34.1261 29.4715 34.249 29.1128 34.0419C28.754 33.8348 28.6311 33.3761 28.8382 33.0174L31.4632 28.4708L26.9166 25.8458C26.5579 25.6387 26.435 25.18 26.6421 24.8213C27.5287 23.2856 29.0289 22.4723 30.6251 22.2515C31.9717 22.0652 33.412 22.2936 34.6946 22.8739L34.8382 22.6251C35.0453 22.2664 35.504 22.1435 35.8628 22.3506ZM32.9214 23.8482C32.2208 23.6841 31.5043 23.6442 30.8307 23.7373C29.8618 23.8713 29.0042 24.2745 28.3842 24.961L30.4993 26.1822C31.0325 25.3725 31.584 24.7656 32.2101 24.3003C32.4411 24.1287 32.6778 23.9797 32.9214 23.8482ZM31.801 26.9337L33.9245 28.1598C34.2737 27.4469 34.4476 26.8586 34.5105 26.3159C34.5668 25.831 34.5381 25.3528 34.4384 24.8177C33.9251 24.9989 33.4966 25.2132 33.1048 25.5043C32.6663 25.8301 32.2437 26.2749 31.801 26.9337ZM36.0364 25.6467C36.0444 25.9234 36.0337 26.2029 36.0006 26.4887C35.9107 27.2636 35.6608 28.0446 35.2262 28.9113L37.3413 30.1324C37.6259 29.2522 37.5462 28.3079 37.1778 27.4019C36.9217 26.7719 36.5288 26.1714 36.0364 25.6467Z" fill="#333333"/>
<path fill-rule="evenodd" clip-rule="evenodd" d="M16.6187 39.4173C16.0265 38.7405 14.9736 38.7405 14.3813 39.4173L14.1904 39.6355C13.0388 40.9516 10.9678 40.8735 9.91854 39.4745C9.43388 38.8283 8.47308 38.8037 7.95597 39.4242L7.07618 40.48C6.81101 40.7982 6.33809 40.8412 6.01988 40.576C5.70167 40.3108 5.65868 39.8379 5.92385 39.5197L6.80364 38.464C7.94056 37.0996 10.053 37.1538 11.1185 38.5745C11.5958 39.2108 12.5378 39.2463 13.0615 38.6477L13.2525 38.4295C14.4423 37.0697 16.5577 37.0697 17.7476 38.4295L17.9821 38.6976C18.4834 39.2705 19.385 39.2365 19.8418 38.6275C20.9209 37.1887 23.0791 37.1887 24.1583 38.6275L25.6 40.5498C25.8485 40.8812 25.7814 41.3513 25.45 41.5998C25.1186 41.8484 24.6485 41.7812 24.4 41.4498L22.9583 39.5275C22.4791 38.8887 21.5209 38.8887 21.0418 39.5275C20.013 40.8992 17.9823 40.9757 16.8532 39.6853L16.6187 39.4173Z" fill="#26DFB3"/>
<path fill-rule="evenodd" clip-rule="evenodd" d="M35.6187 39.4173C35.0265 38.7405 33.9736 38.7405 33.3813 39.4173L33.1468 39.6853C32.0177 40.9757 29.9871 40.8992 28.9583 39.5275C28.4792 38.8887 27.5209 38.8887 27.0418 39.5275L25.6 41.4498C25.3515 41.7812 24.8814 41.8484 24.55 41.5998C24.2187 41.3513 24.1515 40.8812 24.4 40.5498L25.8418 38.6275C26.9209 37.1887 29.0792 37.1887 30.1583 38.6275C30.6151 39.2365 31.5166 39.2705 32.018 38.6976L32.2525 38.4295C33.4423 37.0697 35.5578 37.0697 36.7476 38.4295L36.9385 38.6477C37.4623 39.2463 38.4043 39.2108 38.8815 38.5745C39.9471 37.1538 42.0595 37.0997 43.1964 38.464L44.0762 39.5197C44.3414 39.8379 44.2984 40.3108 43.9802 40.576C43.662 40.8412 43.1891 40.7982 42.9239 40.48L42.0441 39.4242C41.527 38.8037 40.5662 38.8283 40.0815 39.4745C39.0323 40.8735 36.9612 40.9516 35.8097 39.6355L35.6187 39.4173Z" fill="#26DFB3"/>
<path fill-rule="evenodd" clip-rule="evenodd" d="M29.2917 34.75C27.4525 34.75 25.7748 35.4339 24.4963 36.5623C24.1858 36.8364 23.7118 36.8069 23.4377 36.4963C23.1636 36.1857 23.1932 35.7118 23.5037 35.4377C25.0457 34.0767 27.0731 33.25 29.2917 33.25C31.5102 33.25 33.5376 34.0767 35.0796 35.4377C35.3902 35.7118 35.4197 36.1857 35.1456 36.4963C34.8715 36.8069 34.3976 36.8364 34.087 36.5623C32.8085 35.4339 31.1309 34.75 29.2917 34.75Z" fill="#333333"/>
<path fill-rule="evenodd" clip-rule="evenodd" d="M7.43555 17.6611L7.6384 18.4849C7.92838 19.6572 8.77616 20.5728 9.86158 20.886C10.3933 21.038 10.9526 21.038 11.4843 20.886L26.6571 16.5043C28.0357 16.1231 29 14.7814 29 13.2443C29 11.7073 28.0357 10.3656 26.6571 9.98436C26.0826 9.82213 25.4791 9.82213 24.9045 9.98436L21.2452 11.0447L16.3202 3.38551C16.2173 3.21429 16.0623 3.08721 15.882 3.02621C15.7487 2.99126 15.6096 2.99126 15.4763 3.02621L12.9692 3.75357C12.5665 3.88863 12.3268 4.3342 12.4174 4.77889L14.4459 12.9814L12.1659 13.6387L9.95083 10.4751C9.84549 10.3234 9.69745 10.2127 9.52891 10.1596C9.39562 10.1247 9.25652 10.1247 9.12322 10.1596L6.59983 10.9133C6.18791 11.0335 5.93259 11.4778 6.01564 11.9298L7.43555 17.6611ZM8.89205 17.3025L9.09451 18.1247C9.09456 18.1249 9.09447 18.1245 9.09451 18.1247C9.26658 18.8195 9.7481 19.2914 10.2757 19.4443C10.5369 19.5186 10.8092 19.5186 11.0704 19.4443C11.071 19.4441 11.0716 19.4439 11.0722 19.4438L26.2491 15.0609L26.2573 15.0586C26.9208 14.8751 27.5 14.1769 27.5 13.2443C27.5 12.3118 26.9208 11.6136 26.2573 11.4301L26.2495 11.4279C25.9429 11.3414 25.6232 11.3409 25.3165 11.4267L20.5885 12.7967L15.3362 4.6287L14.0199 5.01058L16.2486 14.0228L11.5517 15.3768L9.0171 11.7568L7.62129 12.1737L8.89205 17.3025Z" fill="#333333"/>
<path d="M40.3333 21.3333V20.6667C40.3333 20.2985 40.6318 20 41 20C41.3682 20 41.6667 20.2985 41.6667 20.6667V21.3333H42.3333C42.7015 21.3333 43 21.6318 43 22C43 22.3682 42.7015 22.6667 42.3333 22.6667H41.6667V23.3333C41.6667 23.7015 41.3682 24 41 24C40.6318 24 40.3333 23.7015 40.3333 23.3333V22.6667H39.6667C39.2985 22.6667 39 22.3682 39 22C39 21.6318 39.2985 21.3333 39.6667 21.3333H40.3333Z" fill="#DDFFF5"/>
<path d="M3.66667 20.6667V19.8333C3.66667 19.3731 4.03976 19 4.5 19C4.96024 19 5.33333 19.3731 5.33333 19.8333V20.6667H6.16667C6.6269 20.6667 7 21.0398 7 21.5C7 21.9602 6.6269 22.3333 6.16667 22.3333H5.33333V23.1667C5.33333 23.6269 4.96024 24 4.5 24C4.03976 24 3.66667 23.6269 3.66667 23.1667V22.3333H2.83333C2.3731 22.3333 2 21.9602 2 21.5C2 21.0398 2.3731 20.6667 2.83333 20.6667H3.66667Z" fill="#DDFFF5"/>
</svg>
