<svg width="50" height="50" viewBox="0 0 50 50" fill="none" xmlns="http://www.w3.org/2000/svg">
<g clip-path="url(#clip0_1175_25146)">
<rect width="50" height="50" fill="white"/>
<path d="M12 20C12 19.4477 12.4477 19 13 19H14C14.5523 19 15 19.4477 15 20V21C15 21.5523 14.5523 22 14 22H13C12.4477 22 12 21.5523 12 21V20Z" fill="#26DFB3"/>
<path fill-rule="evenodd" clip-rule="evenodd" d="M29.5 12H39.5C42.2614 12 44.5 14.2386 44.5 17V33C44.5 34.1046 43.6046 35 42.5 35V38H41V35H28V38H26.5V35C25.3954 35 24.5 34.1046 24.5 33V17C24.5 14.2386 26.7386 12 29.5 12ZM43 26V18H26V26H43ZM29.1805 13.5H39.8199C41.1692 13.5053 42.3704 14.7064 42.8202 16.5H26.1802C26.63 14.7064 27.8311 13.5053 29.1805 13.5ZM26 27.5V33.5H43V27.5H26ZM22 18H23.5V24H22V18ZM47 18H45.5V24H47V18Z" fill="#333333"/>
<path d="M28.5 30.5C28.5 29.6716 29.1716 29 30 29C30.8284 29 31.5 29.6716 31.5 30.5C31.5 31.3284 30.8284 32 30 32C29.1716 32 28.5 31.3284 28.5 30.5Z" fill="#26DFB3"/>
<path d="M37.5 30.5C37.5 29.6716 38.1716 29 39 29C39.8284 29 40.5 29.6716 40.5 30.5C40.5 31.3284 39.8284 32 39 32C38.1716 32 37.5 31.3284 37.5 30.5Z" fill="#26DFB3"/>
<path d="M18.5 36H20V38H18.5V36Z" fill="#333333"/>
<path fill-rule="evenodd" clip-rule="evenodd" d="M8.74212 22.75C8.62771 22.75 8.52789 22.8277 8.49979 22.9386L7.18935 28.1093C7.08759 28.5108 6.67961 28.7538 6.27809 28.652C5.87657 28.5503 5.63356 28.1423 5.73532 27.7407L7.04575 22.5701C7.24251 21.7937 7.94121 21.25 8.74212 21.25H18.0075C18.8085 21.25 19.5072 21.7937 19.7039 22.5701L21.0144 27.7407C21.1161 28.1423 20.8731 28.5503 20.4716 28.652C20.0701 28.7538 19.6621 28.5108 19.5603 28.1093L18.2499 22.9386C18.2218 22.8277 18.122 22.75 18.0075 22.75H8.74212Z" fill="#333333"/>
<path fill-rule="evenodd" clip-rule="evenodd" d="M6.59717 27.833H20.1527C22.0857 27.833 23.6527 29.4 23.6527 31.333V32.5997C23.6527 34.5327 22.0857 36.0997 20.1527 36.0997H6.59717C4.66417 36.0997 3.09717 34.5327 3.09717 32.5997V31.333C3.09717 29.4 4.66417 27.833 6.59717 27.833ZM6.59717 29.333C5.4926 29.333 4.59717 30.2284 4.59717 31.333V32.5997C4.59717 33.7042 5.4926 34.5997 6.59717 34.5997H20.1527C21.2573 34.5997 22.1527 33.7042 22.1527 32.5997V31.333C22.1527 30.2284 21.2573 29.333 20.1527 29.333H6.59717Z" fill="#333333"/>
<path d="M9.5 32C9.5 32.8284 8.82843 33.5 8 33.5C7.17157 33.5 6.5 32.8284 6.5 32C6.5 31.1716 7.17157 30.5 8 30.5C8.82843 30.5 9.5 31.1716 9.5 32Z" fill="#26DFB3"/>
<path d="M20.062 32C20.062 32.8284 19.3904 33.5 18.562 33.5C17.7336 33.5 17.062 32.8284 17.062 32C17.062 31.1716 17.7336 30.5 18.562 30.5C19.3904 30.5 20.062 31.1716 20.062 32Z" fill="#26DFB3"/>
<path fill-rule="evenodd" clip-rule="evenodd" d="M2.75 38C2.75 37.5858 3.08579 37.25 3.5 37.25H46.5C46.9142 37.25 47.25 37.5858 47.25 38C47.25 38.4142 46.9142 38.75 46.5 38.75H3.5C3.08579 38.75 2.75 38.4142 2.75 38Z" fill="#333333"/>
<path d="M6.5 36H8V38H6.5V36Z" fill="#333333"/>
<path d="M40.3333 7.33333V6.66667C40.3333 6.29848 40.6318 6 41 6C41.3682 6 41.6667 6.29848 41.6667 6.66667V7.33333H42.3333C42.7015 7.33333 43 7.63181 43 8C43 8.36819 42.7015 8.66667 42.3333 8.66667H41.6667V9.33333C41.6667 9.70152 41.3682 10 41 10C40.6318 10 40.3333 9.70152 40.3333 9.33333V8.66667H39.6667C39.2985 8.66667 39 8.36819 39 8C39 7.63181 39.2985 7.33333 39.6667 7.33333H40.3333Z" fill="#DDFFF5"/>
<path d="M7.66667 14.6667V13.8333C7.66667 13.3731 8.03976 13 8.5 13C8.96024 13 9.33333 13.3731 9.33333 13.8333V14.6667H10.1667C10.6269 14.6667 11 15.0398 11 15.5C11 15.9602 10.6269 16.3333 10.1667 16.3333H9.33333V17.1667C9.33333 17.6269 8.96024 18 8.5 18C8.03976 18 7.66667 17.6269 7.66667 17.1667V16.3333H6.83333C6.3731 16.3333 6 15.9602 6 15.5C6 15.0398 6.3731 14.6667 6.83333 14.6667H7.66667Z" fill="#DDFFF5"/>
</g>
<defs>
<clipPath id="clip0_1175_25146">
<rect width="50" height="50" fill="white"/>
</clipPath>
</defs>
</svg>
